G04 #@! TF.FileFunction,Legend,Bot*
%FSLAX46Y46*%
G04 Gerber Fmt 4.6, Leading zero omitted, Abs format (unit mm)*
G04 Created by KiCad (PCBNEW 4.0.2-stable) date 11.07.2016 23:58:06*
%MOMM*%
G01*
G04 APERTURE LIST*
%ADD10C,0.100000*%
%ADD11C,0.150000*%
G04 APERTURE END LIST*
D10*
D11*
X136767600Y-122289400D02*
X136767600Y-127429400D01*
X134067600Y-122289400D02*
X136747600Y-122289400D01*
X136747600Y-127429400D02*
X134067600Y-127429400D01*
X134067600Y-122289400D02*
X134067600Y-127429400D01*
X134067600Y-111289400D02*
X134067600Y-116429400D01*
X136747600Y-116429400D02*
X134067600Y-116429400D01*
X134067600Y-111289400D02*
X136747600Y-111289400D01*
X136767600Y-111289400D02*
X136767600Y-116429400D01*
X155267600Y-111289400D02*
X155267600Y-116429400D01*
X152567600Y-111289400D02*
X155247600Y-111289400D01*
X155247600Y-116429400D02*
X152567600Y-116429400D01*
X152567600Y-111289400D02*
X152567600Y-116429400D01*
X153647600Y-127609400D02*
X155197600Y-127609400D01*
X155197600Y-122009400D02*
X153647600Y-122009400D01*
X155247600Y-122009400D02*
X155247600Y-127609400D01*
X135021600Y-86801800D02*
X137701600Y-86801800D01*
X137701600Y-86801800D02*
X137701600Y-89341800D01*
X137701600Y-89341800D02*
X135021600Y-89341800D01*
X135021600Y-89341800D02*
X135021600Y-86801800D01*
X135021600Y-96941800D02*
X135021600Y-94401800D01*
X137701600Y-96941800D02*
X135021600Y-96941800D01*
X137701600Y-94401800D02*
X137701600Y-96941800D01*
X135021600Y-94401800D02*
X137701600Y-94401800D01*
X152621600Y-96901800D02*
X155301600Y-96901800D01*
X155301600Y-96901800D02*
X155301600Y-99441800D01*
X155301600Y-99441800D02*
X152621600Y-99441800D01*
X152621600Y-99441800D02*
X152621600Y-96901800D01*
X154001600Y-87121800D02*
X155551600Y-87121800D01*
X155451600Y-84021800D02*
X153901600Y-84021800D01*
X155501600Y-84021800D02*
X155501600Y-87121800D01*
X155036781Y-116964105D02*
X154036781Y-116964105D01*
X154036781Y-117202200D01*
X154084400Y-117345058D01*
X154179638Y-117440296D01*
X154274876Y-117487915D01*
X154465352Y-117535534D01*
X154608210Y-117535534D01*
X154798686Y-117487915D01*
X154893924Y-117440296D01*
X154989162Y-117345058D01*
X155036781Y-117202200D01*
X155036781Y-116964105D01*
X154941543Y-118535534D02*
X154989162Y-118487915D01*
X155036781Y-118345058D01*
X155036781Y-118249820D01*
X154989162Y-118106962D01*
X154893924Y-118011724D01*
X154798686Y-117964105D01*
X154608210Y-117916486D01*
X154465352Y-117916486D01*
X154274876Y-117964105D01*
X154179638Y-118011724D01*
X154084400Y-118106962D01*
X154036781Y-118249820D01*
X154036781Y-118345058D01*
X154084400Y-118487915D01*
X154132019Y-118535534D01*
X155036781Y-118964105D02*
X154036781Y-118964105D01*
X154036781Y-119202200D01*
X154084400Y-119345058D01*
X154179638Y-119440296D01*
X154274876Y-119487915D01*
X154465352Y-119535534D01*
X154608210Y-119535534D01*
X154798686Y-119487915D01*
X154893924Y-119440296D01*
X154989162Y-119345058D01*
X155036781Y-119202200D01*
X155036781Y-118964105D01*
X154941543Y-120535534D02*
X154989162Y-120487915D01*
X155036781Y-120345058D01*
X155036781Y-120249820D01*
X154989162Y-120106962D01*
X154893924Y-120011724D01*
X154798686Y-119964105D01*
X154608210Y-119916486D01*
X154465352Y-119916486D01*
X154274876Y-119964105D01*
X154179638Y-120011724D01*
X154084400Y-120106962D01*
X154036781Y-120249820D01*
X154036781Y-120345058D01*
X154084400Y-120487915D01*
X154132019Y-120535534D01*
X154132019Y-120916486D02*
X154084400Y-120964105D01*
X154036781Y-121059343D01*
X154036781Y-121297439D01*
X154084400Y-121392677D01*
X154132019Y-121440296D01*
X154227257Y-121487915D01*
X154322495Y-121487915D01*
X154465352Y-121440296D01*
X155036781Y-120868867D01*
X155036781Y-121487915D01*
X137559848Y-109383581D02*
X137369371Y-109383581D01*
X137274133Y-109431200D01*
X137178895Y-109526438D01*
X137131276Y-109716914D01*
X137131276Y-110050248D01*
X137178895Y-110240724D01*
X137274133Y-110335962D01*
X137369371Y-110383581D01*
X137559848Y-110383581D01*
X137655086Y-110335962D01*
X137750324Y-110240724D01*
X137797943Y-110050248D01*
X137797943Y-109716914D01*
X137750324Y-109526438D01*
X137655086Y-109431200D01*
X137559848Y-109383581D01*
X136702705Y-109383581D02*
X136702705Y-110193105D01*
X136655086Y-110288343D01*
X136607467Y-110335962D01*
X136512229Y-110383581D01*
X136321752Y-110383581D01*
X136226514Y-110335962D01*
X136178895Y-110288343D01*
X136131276Y-110193105D01*
X136131276Y-109383581D01*
X135797943Y-109383581D02*
X135226514Y-109383581D01*
X135512229Y-110383581D02*
X135512229Y-109383581D01*
X134893181Y-110002629D02*
X134131276Y-110002629D01*
X137661448Y-128052581D02*
X137470971Y-128052581D01*
X137375733Y-128100200D01*
X137280495Y-128195438D01*
X137232876Y-128385914D01*
X137232876Y-128719248D01*
X137280495Y-128909724D01*
X137375733Y-129004962D01*
X137470971Y-129052581D01*
X137661448Y-129052581D01*
X137756686Y-129004962D01*
X137851924Y-128909724D01*
X137899543Y-128719248D01*
X137899543Y-128385914D01*
X137851924Y-128195438D01*
X137756686Y-128100200D01*
X137661448Y-128052581D01*
X136804305Y-128052581D02*
X136804305Y-128862105D01*
X136756686Y-128957343D01*
X136709067Y-129004962D01*
X136613829Y-129052581D01*
X136423352Y-129052581D01*
X136328114Y-129004962D01*
X136280495Y-128957343D01*
X136232876Y-128862105D01*
X136232876Y-128052581D01*
X135899543Y-128052581D02*
X135328114Y-128052581D01*
X135613829Y-129052581D02*
X135613829Y-128052581D01*
X134994781Y-128671629D02*
X134232876Y-128671629D01*
X134613828Y-129052581D02*
X134613828Y-128290676D01*
X155240457Y-110611781D02*
X155240457Y-109611781D01*
X154764267Y-110611781D02*
X154764267Y-109611781D01*
X154192838Y-110611781D01*
X154192838Y-109611781D01*
X153716648Y-110230829D02*
X152954743Y-110230829D01*
X155140457Y-129211781D02*
X155140457Y-128211781D01*
X154664267Y-129211781D02*
X154664267Y-128211781D01*
X154092838Y-129211781D01*
X154092838Y-128211781D01*
X153616648Y-128830829D02*
X152854743Y-128830829D01*
X153235695Y-129211781D02*
X153235695Y-128449876D01*
X155493981Y-87589005D02*
X154493981Y-87589005D01*
X154493981Y-87827100D01*
X154541600Y-87969958D01*
X154636838Y-88065196D01*
X154732076Y-88112815D01*
X154922552Y-88160434D01*
X155065410Y-88160434D01*
X155255886Y-88112815D01*
X155351124Y-88065196D01*
X155446362Y-87969958D01*
X155493981Y-87827100D01*
X155493981Y-87589005D01*
X155398743Y-89160434D02*
X155446362Y-89112815D01*
X155493981Y-88969958D01*
X155493981Y-88874720D01*
X155446362Y-88731862D01*
X155351124Y-88636624D01*
X155255886Y-88589005D01*
X155065410Y-88541386D01*
X154922552Y-88541386D01*
X154732076Y-88589005D01*
X154636838Y-88636624D01*
X154541600Y-88731862D01*
X154493981Y-88874720D01*
X154493981Y-88969958D01*
X154541600Y-89112815D01*
X154589219Y-89160434D01*
X155493981Y-89589005D02*
X154493981Y-89589005D01*
X154493981Y-89827100D01*
X154541600Y-89969958D01*
X154636838Y-90065196D01*
X154732076Y-90112815D01*
X154922552Y-90160434D01*
X155065410Y-90160434D01*
X155255886Y-90112815D01*
X155351124Y-90065196D01*
X155446362Y-89969958D01*
X155493981Y-89827100D01*
X155493981Y-89589005D01*
X155398743Y-91160434D02*
X155446362Y-91112815D01*
X155493981Y-90969958D01*
X155493981Y-90874720D01*
X155446362Y-90731862D01*
X155351124Y-90636624D01*
X155255886Y-90589005D01*
X155065410Y-90541386D01*
X154922552Y-90541386D01*
X154732076Y-90589005D01*
X154636838Y-90636624D01*
X154541600Y-90731862D01*
X154493981Y-90874720D01*
X154493981Y-90969958D01*
X154541600Y-91112815D01*
X154589219Y-91160434D01*
X154493981Y-91493767D02*
X154493981Y-92112815D01*
X154874933Y-91779481D01*
X154874933Y-91922339D01*
X154922552Y-92017577D01*
X154970171Y-92065196D01*
X155065410Y-92112815D01*
X155303505Y-92112815D01*
X155398743Y-92065196D01*
X155446362Y-92017577D01*
X155493981Y-91922339D01*
X155493981Y-91636624D01*
X155446362Y-91541386D01*
X155398743Y-91493767D01*
X138370648Y-82224181D02*
X138180171Y-82224181D01*
X138084933Y-82271800D01*
X137989695Y-82367038D01*
X137942076Y-82557514D01*
X137942076Y-82890848D01*
X137989695Y-83081324D01*
X138084933Y-83176562D01*
X138180171Y-83224181D01*
X138370648Y-83224181D01*
X138465886Y-83176562D01*
X138561124Y-83081324D01*
X138608743Y-82890848D01*
X138608743Y-82557514D01*
X138561124Y-82367038D01*
X138465886Y-82271800D01*
X138370648Y-82224181D01*
X137513505Y-82224181D02*
X137513505Y-83033705D01*
X137465886Y-83128943D01*
X137418267Y-83176562D01*
X137323029Y-83224181D01*
X137132552Y-83224181D01*
X137037314Y-83176562D01*
X136989695Y-83128943D01*
X136942076Y-83033705D01*
X136942076Y-82224181D01*
X136608743Y-82224181D02*
X136037314Y-82224181D01*
X136323029Y-83224181D02*
X136323029Y-82224181D01*
X135703981Y-82843229D02*
X134942076Y-82843229D01*
X138170648Y-100024181D02*
X137980171Y-100024181D01*
X137884933Y-100071800D01*
X137789695Y-100167038D01*
X137742076Y-100357514D01*
X137742076Y-100690848D01*
X137789695Y-100881324D01*
X137884933Y-100976562D01*
X137980171Y-101024181D01*
X138170648Y-101024181D01*
X138265886Y-100976562D01*
X138361124Y-100881324D01*
X138408743Y-100690848D01*
X138408743Y-100357514D01*
X138361124Y-100167038D01*
X138265886Y-100071800D01*
X138170648Y-100024181D01*
X137313505Y-100024181D02*
X137313505Y-100833705D01*
X137265886Y-100928943D01*
X137218267Y-100976562D01*
X137123029Y-101024181D01*
X136932552Y-101024181D01*
X136837314Y-100976562D01*
X136789695Y-100928943D01*
X136742076Y-100833705D01*
X136742076Y-100024181D01*
X136408743Y-100024181D02*
X135837314Y-100024181D01*
X136123029Y-101024181D02*
X136123029Y-100024181D01*
X135503981Y-100643229D02*
X134742076Y-100643229D01*
X135123028Y-101024181D02*
X135123028Y-100262276D01*
X155094457Y-101224181D02*
X155094457Y-100224181D01*
X154618267Y-101224181D02*
X154618267Y-100224181D01*
X154046838Y-101224181D01*
X154046838Y-100224181D01*
X153570648Y-100843229D02*
X152808743Y-100843229D01*
X154994457Y-83224181D02*
X154994457Y-82224181D01*
X154518267Y-83224181D02*
X154518267Y-82224181D01*
X153946838Y-83224181D01*
X153946838Y-82224181D01*
X153470648Y-82843229D02*
X152708743Y-82843229D01*
X153089695Y-83224181D02*
X153089695Y-82462276D01*
M02*
