G04 #@! TF.FileFunction,Legend,Top*
%FSLAX46Y46*%
G04 Gerber Fmt 4.6, Leading zero omitted, Abs format (unit mm)*
G04 Created by KiCad (PCBNEW 4.0.2-stable) date 11.07.2016 23:58:06*
%MOMM*%
G01*
G04 APERTURE LIST*
%ADD10C,0.100000*%
%ADD11C,0.250000*%
%ADD12C,0.150000*%
G04 APERTURE END LIST*
D10*
D11*
X127517734Y-102179333D02*
X127470114Y-102131714D01*
X127374876Y-101988857D01*
X127327257Y-101893619D01*
X127279638Y-101750762D01*
X127232019Y-101512667D01*
X127232019Y-101322190D01*
X127279638Y-101084095D01*
X127327257Y-100941238D01*
X127374876Y-100846000D01*
X127470114Y-100703143D01*
X127517734Y-100655524D01*
X128470115Y-101703143D02*
X128422496Y-101750762D01*
X128279639Y-101798381D01*
X128184401Y-101798381D01*
X128041543Y-101750762D01*
X127946305Y-101655524D01*
X127898686Y-101560286D01*
X127851067Y-101369810D01*
X127851067Y-101226952D01*
X127898686Y-101036476D01*
X127946305Y-100941238D01*
X128041543Y-100846000D01*
X128184401Y-100798381D01*
X128279639Y-100798381D01*
X128422496Y-100846000D01*
X128470115Y-100893619D01*
X128898686Y-101798381D02*
X128898686Y-100798381D01*
X129279639Y-100798381D01*
X129374877Y-100846000D01*
X129422496Y-100893619D01*
X129470115Y-100988857D01*
X129470115Y-101131714D01*
X129422496Y-101226952D01*
X129374877Y-101274571D01*
X129279639Y-101322190D01*
X128898686Y-101322190D01*
X129898686Y-100798381D02*
X129898686Y-101607905D01*
X129946305Y-101703143D01*
X129993924Y-101750762D01*
X130089162Y-101798381D01*
X130279639Y-101798381D01*
X130374877Y-101750762D01*
X130422496Y-101703143D01*
X130470115Y-101607905D01*
X130470115Y-100798381D01*
X130851067Y-102179333D02*
X130898686Y-102131714D01*
X130993924Y-101988857D01*
X131041543Y-101893619D01*
X131089162Y-101750762D01*
X131136781Y-101512667D01*
X131136781Y-101322190D01*
X131089162Y-101084095D01*
X131041543Y-100941238D01*
X130993924Y-100846000D01*
X130898686Y-100703143D01*
X130851067Y-100655524D01*
X129128781Y-123776715D02*
X128128781Y-123776715D01*
X128843067Y-123443381D01*
X128128781Y-123110048D01*
X129128781Y-123110048D01*
X128128781Y-122443382D02*
X128128781Y-122252905D01*
X128176400Y-122157667D01*
X128271638Y-122062429D01*
X128462114Y-122014810D01*
X128795448Y-122014810D01*
X128985924Y-122062429D01*
X129081162Y-122157667D01*
X129128781Y-122252905D01*
X129128781Y-122443382D01*
X129081162Y-122538620D01*
X128985924Y-122633858D01*
X128795448Y-122681477D01*
X128462114Y-122681477D01*
X128271638Y-122633858D01*
X128176400Y-122538620D01*
X128128781Y-122443382D01*
X128128781Y-121729096D02*
X128128781Y-121157667D01*
X129128781Y-121443382D02*
X128128781Y-121443382D01*
X128128781Y-120633858D02*
X128128781Y-120443381D01*
X128176400Y-120348143D01*
X128271638Y-120252905D01*
X128462114Y-120205286D01*
X128795448Y-120205286D01*
X128985924Y-120252905D01*
X129081162Y-120348143D01*
X129128781Y-120443381D01*
X129128781Y-120633858D01*
X129081162Y-120729096D01*
X128985924Y-120824334D01*
X128795448Y-120871953D01*
X128462114Y-120871953D01*
X128271638Y-120824334D01*
X128176400Y-120729096D01*
X128128781Y-120633858D01*
X129128781Y-119205286D02*
X128652590Y-119538620D01*
X129128781Y-119776715D02*
X128128781Y-119776715D01*
X128128781Y-119395762D01*
X128176400Y-119300524D01*
X128224019Y-119252905D01*
X128319257Y-119205286D01*
X128462114Y-119205286D01*
X128557352Y-119252905D01*
X128604971Y-119300524D01*
X128652590Y-119395762D01*
X128652590Y-119776715D01*
X128604971Y-117681476D02*
X128652590Y-117538619D01*
X128700210Y-117491000D01*
X128795448Y-117443381D01*
X128938305Y-117443381D01*
X129033543Y-117491000D01*
X129081162Y-117538619D01*
X129128781Y-117633857D01*
X129128781Y-118014810D01*
X128128781Y-118014810D01*
X128128781Y-117681476D01*
X128176400Y-117586238D01*
X128224019Y-117538619D01*
X128319257Y-117491000D01*
X128414495Y-117491000D01*
X128509733Y-117538619D01*
X128557352Y-117586238D01*
X128604971Y-117681476D01*
X128604971Y-118014810D01*
X129128781Y-116586238D02*
X128604971Y-116586238D01*
X128509733Y-116633857D01*
X128462114Y-116729095D01*
X128462114Y-116919572D01*
X128509733Y-117014810D01*
X129081162Y-116586238D02*
X129128781Y-116681476D01*
X129128781Y-116919572D01*
X129081162Y-117014810D01*
X128985924Y-117062429D01*
X128890686Y-117062429D01*
X128795448Y-117014810D01*
X128747829Y-116919572D01*
X128747829Y-116681476D01*
X128700210Y-116586238D01*
X128462114Y-116252905D02*
X128462114Y-115871953D01*
X128128781Y-116110048D02*
X128985924Y-116110048D01*
X129081162Y-116062429D01*
X129128781Y-115967191D01*
X129128781Y-115871953D01*
X128462114Y-115681476D02*
X128462114Y-115300524D01*
X128128781Y-115538619D02*
X128985924Y-115538619D01*
X129081162Y-115491000D01*
X129128781Y-115395762D01*
X129128781Y-115300524D01*
X129081162Y-114586237D02*
X129128781Y-114681475D01*
X129128781Y-114871952D01*
X129081162Y-114967190D01*
X128985924Y-115014809D01*
X128604971Y-115014809D01*
X128509733Y-114967190D01*
X128462114Y-114871952D01*
X128462114Y-114681475D01*
X128509733Y-114586237D01*
X128604971Y-114538618D01*
X128700210Y-114538618D01*
X128795448Y-115014809D01*
X129128781Y-114110047D02*
X128462114Y-114110047D01*
X128652590Y-114110047D02*
X128557352Y-114062428D01*
X128509733Y-114014809D01*
X128462114Y-113919571D01*
X128462114Y-113824332D01*
X128462114Y-113586237D02*
X129128781Y-113348142D01*
X128462114Y-113110046D02*
X129128781Y-113348142D01*
X129366876Y-113443380D01*
X129414495Y-113490999D01*
X129462114Y-113586237D01*
X131338629Y-122767220D02*
X131338629Y-122005315D01*
X131719581Y-122386267D02*
X130957676Y-122386267D01*
X131338629Y-115433885D02*
X131338629Y-114671980D01*
X131262429Y-111769020D02*
X131262429Y-111007115D01*
X131643381Y-111388067D02*
X130881476Y-111388067D01*
X131262429Y-104435685D02*
X131262429Y-103673780D01*
X127219153Y-89326981D02*
X126647724Y-89326981D01*
X126933438Y-89326981D02*
X126933438Y-88326981D01*
X126838200Y-88469838D01*
X126742962Y-88565076D01*
X126647724Y-88612695D01*
X127600105Y-88422219D02*
X127647724Y-88374600D01*
X127742962Y-88326981D01*
X127981058Y-88326981D01*
X128076296Y-88374600D01*
X128123915Y-88422219D01*
X128171534Y-88517457D01*
X128171534Y-88612695D01*
X128123915Y-88755552D01*
X127552486Y-89326981D01*
X128171534Y-89326981D01*
X128457248Y-88326981D02*
X128790581Y-89326981D01*
X129123915Y-88326981D01*
X128155724Y-98588581D02*
X127679533Y-98588581D01*
X127631914Y-99064771D01*
X127679533Y-99017152D01*
X127774771Y-98969533D01*
X128012867Y-98969533D01*
X128108105Y-99017152D01*
X128155724Y-99064771D01*
X128203343Y-99160010D01*
X128203343Y-99398105D01*
X128155724Y-99493343D01*
X128108105Y-99540962D01*
X128012867Y-99588581D01*
X127774771Y-99588581D01*
X127679533Y-99540962D01*
X127631914Y-99493343D01*
X128489057Y-98588581D02*
X128822390Y-99588581D01*
X129155724Y-98588581D01*
X128155724Y-93508581D02*
X127679533Y-93508581D01*
X127631914Y-93984771D01*
X127679533Y-93937152D01*
X127774771Y-93889533D01*
X128012867Y-93889533D01*
X128108105Y-93937152D01*
X128155724Y-93984771D01*
X128203343Y-94080010D01*
X128203343Y-94318105D01*
X128155724Y-94413343D01*
X128108105Y-94460962D01*
X128012867Y-94508581D01*
X127774771Y-94508581D01*
X127679533Y-94460962D01*
X127631914Y-94413343D01*
X128489057Y-93508581D02*
X128822390Y-94508581D01*
X129155724Y-93508581D01*
X129008143Y-111434096D02*
X129055762Y-111481715D01*
X129103381Y-111624572D01*
X129103381Y-111719810D01*
X129055762Y-111862668D01*
X128960524Y-111957906D01*
X128865286Y-112005525D01*
X128674810Y-112053144D01*
X128531952Y-112053144D01*
X128341476Y-112005525D01*
X128246238Y-111957906D01*
X128151000Y-111862668D01*
X128103381Y-111719810D01*
X128103381Y-111624572D01*
X128151000Y-111481715D01*
X128198619Y-111434096D01*
X129103381Y-111005525D02*
X128103381Y-111005525D01*
X128103381Y-110624572D01*
X128151000Y-110529334D01*
X128198619Y-110481715D01*
X128293857Y-110434096D01*
X128436714Y-110434096D01*
X128531952Y-110481715D01*
X128579571Y-110529334D01*
X128627190Y-110624572D01*
X128627190Y-111005525D01*
X128103381Y-110005525D02*
X128912905Y-110005525D01*
X129008143Y-109957906D01*
X129055762Y-109910287D01*
X129103381Y-109815049D01*
X129103381Y-109624572D01*
X129055762Y-109529334D01*
X129008143Y-109481715D01*
X128912905Y-109434096D01*
X128103381Y-109434096D01*
X128579571Y-107862667D02*
X128627190Y-107719810D01*
X128674810Y-107672191D01*
X128770048Y-107624572D01*
X128912905Y-107624572D01*
X129008143Y-107672191D01*
X129055762Y-107719810D01*
X129103381Y-107815048D01*
X129103381Y-108196001D01*
X128103381Y-108196001D01*
X128103381Y-107862667D01*
X128151000Y-107767429D01*
X128198619Y-107719810D01*
X128293857Y-107672191D01*
X128389095Y-107672191D01*
X128484333Y-107719810D01*
X128531952Y-107767429D01*
X128579571Y-107862667D01*
X128579571Y-108196001D01*
X129103381Y-106767429D02*
X128579571Y-106767429D01*
X128484333Y-106815048D01*
X128436714Y-106910286D01*
X128436714Y-107100763D01*
X128484333Y-107196001D01*
X129055762Y-106767429D02*
X129103381Y-106862667D01*
X129103381Y-107100763D01*
X129055762Y-107196001D01*
X128960524Y-107243620D01*
X128865286Y-107243620D01*
X128770048Y-107196001D01*
X128722429Y-107100763D01*
X128722429Y-106862667D01*
X128674810Y-106767429D01*
X128436714Y-106434096D02*
X128436714Y-106053144D01*
X128103381Y-106291239D02*
X128960524Y-106291239D01*
X129055762Y-106243620D01*
X129103381Y-106148382D01*
X129103381Y-106053144D01*
X128436714Y-105862667D02*
X128436714Y-105481715D01*
X128103381Y-105719810D02*
X128960524Y-105719810D01*
X129055762Y-105672191D01*
X129103381Y-105576953D01*
X129103381Y-105481715D01*
X129055762Y-104767428D02*
X129103381Y-104862666D01*
X129103381Y-105053143D01*
X129055762Y-105148381D01*
X128960524Y-105196000D01*
X128579571Y-105196000D01*
X128484333Y-105148381D01*
X128436714Y-105053143D01*
X128436714Y-104862666D01*
X128484333Y-104767428D01*
X128579571Y-104719809D01*
X128674810Y-104719809D01*
X128770048Y-105196000D01*
X129103381Y-104291238D02*
X128436714Y-104291238D01*
X128627190Y-104291238D02*
X128531952Y-104243619D01*
X128484333Y-104196000D01*
X128436714Y-104100762D01*
X128436714Y-104005523D01*
X128436714Y-103767428D02*
X129103381Y-103529333D01*
X128436714Y-103291237D02*
X129103381Y-103529333D01*
X129341476Y-103624571D01*
X129389095Y-103672190D01*
X129436714Y-103767428D01*
D12*
X132765800Y-128422400D02*
G75*
G03X132765800Y-128422400I-2286000J0D01*
G01*
X141426680Y-103837740D02*
X140029680Y-103837740D01*
X145871680Y-103837740D02*
X147395680Y-103837740D01*
X145490680Y-104599740D02*
X145490680Y-103075740D01*
X145744680Y-104599740D02*
X145744680Y-103075740D01*
X145998680Y-103837740D02*
X145998680Y-103075740D01*
X145998680Y-103075740D02*
X141426680Y-103075740D01*
X141426680Y-103075740D02*
X141426680Y-104599740D01*
X141426680Y-104599740D02*
X145998680Y-104599740D01*
X145998680Y-104599740D02*
X145998680Y-103837740D01*
X141452080Y-107571540D02*
X140055080Y-107571540D01*
X145897080Y-107571540D02*
X147421080Y-107571540D01*
X145516080Y-108333540D02*
X145516080Y-106809540D01*
X145770080Y-108333540D02*
X145770080Y-106809540D01*
X146024080Y-107571540D02*
X146024080Y-106809540D01*
X146024080Y-106809540D02*
X141452080Y-106809540D01*
X141452080Y-106809540D02*
X141452080Y-108333540D01*
X141452080Y-108333540D02*
X146024080Y-108333540D01*
X146024080Y-108333540D02*
X146024080Y-107571540D01*
X151151200Y-78585600D02*
X151151200Y-81265600D01*
X151151200Y-81265600D02*
X153691200Y-81265600D01*
X153691200Y-81265600D02*
X153691200Y-78585600D01*
X153691200Y-78585600D02*
X151151200Y-78585600D01*
X137291200Y-78485600D02*
X134751200Y-78485600D01*
X137291200Y-81165600D02*
X137291200Y-78485600D01*
X134751200Y-81165600D02*
X137291200Y-81165600D01*
X134751200Y-78485600D02*
X134751200Y-81165600D01*
X151151200Y-118585600D02*
X151151200Y-121265600D01*
X151151200Y-121265600D02*
X153691200Y-121265600D01*
X153691200Y-121265600D02*
X153691200Y-118585600D01*
X153691200Y-118585600D02*
X151151200Y-118585600D01*
X137571200Y-119965600D02*
X137571200Y-121515600D01*
X134471200Y-121415600D02*
X134471200Y-119865600D01*
X134471200Y-121465600D02*
X137571200Y-121465600D01*
X132537200Y-118694200D02*
X132537200Y-121234200D01*
X132817200Y-115874200D02*
X132817200Y-117424200D01*
X132537200Y-118694200D02*
X129997200Y-118694200D01*
X129717200Y-117424200D02*
X129717200Y-115874200D01*
X129717200Y-115874200D02*
X132817200Y-115874200D01*
X129997200Y-118694200D02*
X129997200Y-121234200D01*
X129997200Y-121234200D02*
X132537200Y-121234200D01*
X132308600Y-87503000D02*
X132308600Y-100203000D01*
X132308600Y-100203000D02*
X129768600Y-100203000D01*
X129768600Y-100203000D02*
X129768600Y-87503000D01*
X132588600Y-84683000D02*
X132588600Y-86233000D01*
X132308600Y-87503000D02*
X129768600Y-87503000D01*
X129488600Y-86233000D02*
X129488600Y-84683000D01*
X129488600Y-84683000D02*
X132588600Y-84683000D01*
X132461000Y-107721400D02*
X132461000Y-110261400D01*
X132741000Y-104901400D02*
X132741000Y-106451400D01*
X132461000Y-107721400D02*
X129921000Y-107721400D01*
X129641000Y-106451400D02*
X129641000Y-104901400D01*
X129641000Y-104901400D02*
X132741000Y-104901400D01*
X129921000Y-107721400D02*
X129921000Y-110261400D01*
X129921000Y-110261400D02*
X132461000Y-110261400D01*
X148679800Y-122980800D02*
X148679800Y-130760800D01*
X139899800Y-122860800D02*
X142999800Y-122860800D01*
X139899800Y-124410800D02*
X139899800Y-122860800D01*
X142719800Y-125680800D02*
X140179800Y-125680800D01*
X142999800Y-122860800D02*
X142999800Y-124410800D01*
X142719800Y-130760800D02*
X142719800Y-125680800D01*
X140179800Y-130760800D02*
X142719800Y-130760800D01*
X140179800Y-125680800D02*
X140179800Y-130760800D01*
X146079800Y-122980800D02*
X146079800Y-130760800D01*
X146079800Y-130760800D02*
X148619800Y-130760800D01*
X148619800Y-122980800D02*
X146079800Y-122980800D01*
X132740400Y-81432400D02*
G75*
G03X132740400Y-81432400I-2286000J0D01*
G01*
X142619505Y-106065581D02*
X142619505Y-105065581D01*
X142857600Y-105065581D01*
X143000458Y-105113200D01*
X143095696Y-105208438D01*
X143143315Y-105303676D01*
X143190934Y-105494152D01*
X143190934Y-105637010D01*
X143143315Y-105827486D01*
X143095696Y-105922724D01*
X143000458Y-106017962D01*
X142857600Y-106065581D01*
X142619505Y-106065581D01*
X144143315Y-106065581D02*
X143571886Y-106065581D01*
X143857600Y-106065581D02*
X143857600Y-105065581D01*
X143762362Y-105208438D01*
X143667124Y-105303676D01*
X143571886Y-105351295D01*
X142695705Y-109697781D02*
X142695705Y-108697781D01*
X142933800Y-108697781D01*
X143076658Y-108745400D01*
X143171896Y-108840638D01*
X143219515Y-108935876D01*
X143267134Y-109126352D01*
X143267134Y-109269210D01*
X143219515Y-109459686D01*
X143171896Y-109554924D01*
X143076658Y-109650162D01*
X142933800Y-109697781D01*
X142695705Y-109697781D01*
X143648086Y-108793019D02*
X143695705Y-108745400D01*
X143790943Y-108697781D01*
X144029039Y-108697781D01*
X144124277Y-108745400D01*
X144171896Y-108793019D01*
X144219515Y-108888257D01*
X144219515Y-108983495D01*
X144171896Y-109126352D01*
X143600467Y-109697781D01*
X144219515Y-109697781D01*
X139900305Y-121254781D02*
X139900305Y-120254781D01*
X140138400Y-120254781D01*
X140281258Y-120302400D01*
X140376496Y-120397638D01*
X140424115Y-120492876D01*
X140471734Y-120683352D01*
X140471734Y-120826210D01*
X140424115Y-121016686D01*
X140376496Y-121111924D01*
X140281258Y-121207162D01*
X140138400Y-121254781D01*
X139900305Y-121254781D01*
X141471734Y-121159543D02*
X141424115Y-121207162D01*
X141281258Y-121254781D01*
X141186020Y-121254781D01*
X141043162Y-121207162D01*
X140947924Y-121111924D01*
X140900305Y-121016686D01*
X140852686Y-120826210D01*
X140852686Y-120683352D01*
X140900305Y-120492876D01*
X140947924Y-120397638D01*
X141043162Y-120302400D01*
X141186020Y-120254781D01*
X141281258Y-120254781D01*
X141424115Y-120302400D01*
X141471734Y-120350019D01*
X141900305Y-121254781D02*
X141900305Y-120254781D01*
X142138400Y-120254781D01*
X142281258Y-120302400D01*
X142376496Y-120397638D01*
X142424115Y-120492876D01*
X142471734Y-120683352D01*
X142471734Y-120826210D01*
X142424115Y-121016686D01*
X142376496Y-121111924D01*
X142281258Y-121207162D01*
X142138400Y-121254781D01*
X141900305Y-121254781D01*
X143471734Y-121159543D02*
X143424115Y-121207162D01*
X143281258Y-121254781D01*
X143186020Y-121254781D01*
X143043162Y-121207162D01*
X142947924Y-121111924D01*
X142900305Y-121016686D01*
X142852686Y-120826210D01*
X142852686Y-120683352D01*
X142900305Y-120492876D01*
X142947924Y-120397638D01*
X143043162Y-120302400D01*
X143186020Y-120254781D01*
X143281258Y-120254781D01*
X143424115Y-120302400D01*
X143471734Y-120350019D01*
X144424115Y-121254781D02*
X143852686Y-121254781D01*
X144138400Y-121254781D02*
X144138400Y-120254781D01*
X144043162Y-120397638D01*
X143947924Y-120492876D01*
X143852686Y-120540495D01*
X149794981Y-81679848D02*
X149794981Y-81489371D01*
X149842600Y-81394133D01*
X149937838Y-81298895D01*
X150128314Y-81251276D01*
X150461648Y-81251276D01*
X150652124Y-81298895D01*
X150747362Y-81394133D01*
X150794981Y-81489371D01*
X150794981Y-81679848D01*
X150747362Y-81775086D01*
X150652124Y-81870324D01*
X150461648Y-81917943D01*
X150128314Y-81917943D01*
X149937838Y-81870324D01*
X149842600Y-81775086D01*
X149794981Y-81679848D01*
X149794981Y-80822705D02*
X150604505Y-80822705D01*
X150699743Y-80775086D01*
X150747362Y-80727467D01*
X150794981Y-80632229D01*
X150794981Y-80441752D01*
X150747362Y-80346514D01*
X150699743Y-80298895D01*
X150604505Y-80251276D01*
X149794981Y-80251276D01*
X149794981Y-79917943D02*
X149794981Y-79346514D01*
X150794981Y-79632229D02*
X149794981Y-79632229D01*
X150414029Y-79013181D02*
X150414029Y-78251276D01*
X138009381Y-81756048D02*
X138009381Y-81565571D01*
X138057000Y-81470333D01*
X138152238Y-81375095D01*
X138342714Y-81327476D01*
X138676048Y-81327476D01*
X138866524Y-81375095D01*
X138961762Y-81470333D01*
X139009381Y-81565571D01*
X139009381Y-81756048D01*
X138961762Y-81851286D01*
X138866524Y-81946524D01*
X138676048Y-81994143D01*
X138342714Y-81994143D01*
X138152238Y-81946524D01*
X138057000Y-81851286D01*
X138009381Y-81756048D01*
X138009381Y-80898905D02*
X138818905Y-80898905D01*
X138914143Y-80851286D01*
X138961762Y-80803667D01*
X139009381Y-80708429D01*
X139009381Y-80517952D01*
X138961762Y-80422714D01*
X138914143Y-80375095D01*
X138818905Y-80327476D01*
X138009381Y-80327476D01*
X138009381Y-79994143D02*
X138009381Y-79422714D01*
X139009381Y-79708429D02*
X138009381Y-79708429D01*
X138628429Y-79089381D02*
X138628429Y-78327476D01*
X139009381Y-78708428D02*
X138247476Y-78708428D01*
X150642581Y-121259457D02*
X149642581Y-121259457D01*
X150642581Y-120783267D02*
X149642581Y-120783267D01*
X150642581Y-120211838D01*
X149642581Y-120211838D01*
X150261629Y-119735648D02*
X150261629Y-118973743D01*
X138958581Y-121437257D02*
X137958581Y-121437257D01*
X138958581Y-120961067D02*
X137958581Y-120961067D01*
X138958581Y-120389638D01*
X137958581Y-120389638D01*
X138577629Y-119913448D02*
X138577629Y-119151543D01*
X138958581Y-119532495D02*
X138196676Y-119532495D01*
X144803762Y-128180933D02*
X144851381Y-128038076D01*
X144851381Y-127799980D01*
X144803762Y-127704742D01*
X144756143Y-127657123D01*
X144660905Y-127609504D01*
X144565667Y-127609504D01*
X144470429Y-127657123D01*
X144422810Y-127704742D01*
X144375190Y-127799980D01*
X144327571Y-127990457D01*
X144279952Y-128085695D01*
X144232333Y-128133314D01*
X144137095Y-128180933D01*
X144041857Y-128180933D01*
X143946619Y-128133314D01*
X143899000Y-128085695D01*
X143851381Y-127990457D01*
X143851381Y-127752361D01*
X143899000Y-127609504D01*
X143851381Y-127276171D02*
X144851381Y-127038076D01*
X144137095Y-126847599D01*
X144851381Y-126657123D01*
X143851381Y-126419028D01*
X144851381Y-125514266D02*
X144851381Y-126085695D01*
X144851381Y-125799981D02*
X143851381Y-125799981D01*
X143994238Y-125895219D01*
X144089476Y-125990457D01*
X144137095Y-126085695D01*
M02*
