G04 #@! TF.FileFunction,Copper,L2,Bot,Signal*
%FSLAX46Y46*%
G04 Gerber Fmt 4.6, Leading zero omitted, Abs format (unit mm)*
G04 Created by KiCad (PCBNEW 4.0.2-stable) date 11.07.2016 23:58:06*
%MOMM*%
G01*
G04 APERTURE LIST*
%ADD10C,0.100000*%
%ADD11C,5.000000*%
%ADD12C,1.699260*%
%ADD13R,1.699260X1.699260*%
%ADD14O,2.032000X1.727200*%
%ADD15R,2.032000X1.727200*%
%ADD16O,1.727200X2.032000*%
%ADD17R,1.727200X2.032000*%
%ADD18R,2.032000X2.032000*%
%ADD19O,2.032000X2.032000*%
%ADD20C,1.000000*%
%ADD21C,0.254000*%
G04 APERTURE END LIST*
D10*
D11*
X130479800Y-128422400D03*
D12*
X138632680Y-103837740D03*
D13*
X148792680Y-103837740D03*
D12*
X138658080Y-107571540D03*
D13*
X148818080Y-107571540D03*
D14*
X152421200Y-79855600D03*
X136021200Y-79755600D03*
X152421200Y-119855600D03*
D15*
X136021200Y-119815600D03*
D16*
X135337600Y-126159400D03*
X135337600Y-123559400D03*
X135337600Y-112559400D03*
X135337600Y-115159400D03*
X153837600Y-115159400D03*
D17*
X153797600Y-126159400D03*
D16*
X153837600Y-112559400D03*
D17*
X153797600Y-123559400D03*
D16*
X136291600Y-88071800D03*
X136291600Y-95671800D03*
X153891600Y-98171800D03*
D17*
X153851600Y-85571800D03*
D18*
X131267200Y-117424200D03*
D19*
X131267200Y-119964200D03*
D15*
X131038600Y-86233000D03*
D14*
X131038600Y-88773000D03*
X131038600Y-91313000D03*
X131038600Y-93853000D03*
X131038600Y-96393000D03*
X131038600Y-98933000D03*
D18*
X131191000Y-106451400D03*
D19*
X131191000Y-108991400D03*
D14*
X141449800Y-129490800D03*
X141449800Y-126950800D03*
D15*
X141449800Y-124410800D03*
D14*
X147349800Y-124410800D03*
X147349800Y-126950800D03*
X147349800Y-129490800D03*
D11*
X130454400Y-81432400D03*
D20*
X138632680Y-103837740D02*
X137157460Y-103837740D01*
X129870200Y-119964200D02*
X131267200Y-119964200D01*
X128600200Y-118694200D02*
X129870200Y-119964200D01*
X128600200Y-114884200D02*
X128600200Y-118694200D01*
X134620000Y-108864400D02*
X128600200Y-114884200D01*
X134620000Y-106375200D02*
X134620000Y-108864400D01*
X137157460Y-103837740D02*
X134620000Y-106375200D01*
X141449800Y-126950800D02*
X142695600Y-126950800D01*
X146812000Y-105818420D02*
X148792680Y-103837740D01*
X146812000Y-112166400D02*
X146812000Y-105818420D01*
X143687800Y-115290600D02*
X146812000Y-112166400D01*
X143687800Y-125958600D02*
X143687800Y-115290600D01*
X142695600Y-126950800D02*
X143687800Y-125958600D01*
X147349800Y-126950800D02*
X146762800Y-126950800D01*
X146762800Y-126950800D02*
X145288000Y-125476000D01*
X145288000Y-125476000D02*
X145288000Y-115951000D01*
X145288000Y-115951000D02*
X148818080Y-112420920D01*
X148818080Y-112420920D02*
X148818080Y-107571540D01*
X147349800Y-124410800D02*
X147349800Y-116149800D01*
X151231600Y-88191800D02*
X153851600Y-85571800D01*
X151231600Y-112268000D02*
X151231600Y-88191800D01*
X147349800Y-116149800D02*
X151231600Y-112268000D01*
D21*
G36*
X128680885Y-78773127D02*
X127798226Y-79654247D01*
X127319946Y-80806074D01*
X127318857Y-82053254D01*
X127795127Y-83205915D01*
X128676247Y-84088574D01*
X129828074Y-84566854D01*
X131075254Y-84567943D01*
X132227915Y-84091673D01*
X133110574Y-83210553D01*
X133588854Y-82058726D01*
X133589943Y-80811546D01*
X133113673Y-79658885D01*
X132232553Y-78776226D01*
X131286041Y-78383200D01*
X135244818Y-78383200D01*
X134776785Y-78695930D01*
X134451929Y-79182111D01*
X134337855Y-79755600D01*
X134451929Y-80329089D01*
X134776785Y-80815270D01*
X135262966Y-81140126D01*
X135836455Y-81254200D01*
X136205945Y-81254200D01*
X136779434Y-81140126D01*
X137265615Y-80815270D01*
X137590471Y-80329089D01*
X137613239Y-80214626D01*
X150813842Y-80214626D01*
X150816491Y-80230391D01*
X151070468Y-80757636D01*
X151506880Y-81147554D01*
X152059287Y-81340784D01*
X152294200Y-81196524D01*
X152294200Y-79982600D01*
X152548200Y-79982600D01*
X152548200Y-81196524D01*
X152783113Y-81340784D01*
X153335520Y-81147554D01*
X153771932Y-80757636D01*
X154025909Y-80230391D01*
X154028558Y-80214626D01*
X153907417Y-79982600D01*
X152548200Y-79982600D01*
X152294200Y-79982600D01*
X150934983Y-79982600D01*
X150813842Y-80214626D01*
X137613239Y-80214626D01*
X137704545Y-79755600D01*
X137590471Y-79182111D01*
X137265615Y-78695930D01*
X136797582Y-78383200D01*
X152022740Y-78383200D01*
X151506880Y-78563646D01*
X151070468Y-78953564D01*
X150816491Y-79480809D01*
X150813842Y-79496574D01*
X150934983Y-79728600D01*
X152294200Y-79728600D01*
X152294200Y-79708600D01*
X152548200Y-79708600D01*
X152548200Y-79728600D01*
X153907417Y-79728600D01*
X154028558Y-79496574D01*
X154025909Y-79480809D01*
X153771932Y-78953564D01*
X153335520Y-78563646D01*
X152819660Y-78383200D01*
X155652400Y-78383200D01*
X155652400Y-131954200D01*
X127100400Y-131954200D01*
X127100400Y-129043254D01*
X127344257Y-129043254D01*
X127820527Y-130195915D01*
X128701647Y-131078574D01*
X129853474Y-131556854D01*
X131100654Y-131557943D01*
X132253315Y-131081673D01*
X133135974Y-130200553D01*
X133614254Y-129048726D01*
X133615343Y-127801546D01*
X133139073Y-126648885D01*
X132257953Y-125766226D01*
X131106126Y-125287946D01*
X129858946Y-125286857D01*
X128706285Y-125763127D01*
X127823626Y-126644247D01*
X127345346Y-127796074D01*
X127344257Y-129043254D01*
X127100400Y-129043254D01*
X127100400Y-123374655D01*
X133839000Y-123374655D01*
X133839000Y-123744145D01*
X133953074Y-124317634D01*
X134277930Y-124803815D01*
X134361119Y-124859400D01*
X134277930Y-124914985D01*
X133953074Y-125401166D01*
X133839000Y-125974655D01*
X133839000Y-126344145D01*
X133953074Y-126917634D01*
X134277930Y-127403815D01*
X134764111Y-127728671D01*
X135337600Y-127842745D01*
X135911089Y-127728671D01*
X136397270Y-127403815D01*
X136699965Y-126950800D01*
X139766455Y-126950800D01*
X139880529Y-127524289D01*
X140205385Y-128010470D01*
X140520166Y-128220800D01*
X140205385Y-128431130D01*
X139880529Y-128917311D01*
X139766455Y-129490800D01*
X139880529Y-130064289D01*
X140205385Y-130550470D01*
X140691566Y-130875326D01*
X141265055Y-130989400D01*
X141634545Y-130989400D01*
X142208034Y-130875326D01*
X142694215Y-130550470D01*
X143019071Y-130064289D01*
X143133145Y-129490800D01*
X143019071Y-128917311D01*
X142694215Y-128431130D01*
X142379434Y-128220800D01*
X142581476Y-128085800D01*
X142695600Y-128085800D01*
X143129946Y-127999403D01*
X143498166Y-127753366D01*
X144490366Y-126761166D01*
X144681693Y-126474825D01*
X145879948Y-127673080D01*
X146105385Y-128010470D01*
X146420166Y-128220800D01*
X146105385Y-128431130D01*
X145780529Y-128917311D01*
X145666455Y-129490800D01*
X145780529Y-130064289D01*
X146105385Y-130550470D01*
X146591566Y-130875326D01*
X147165055Y-130989400D01*
X147534545Y-130989400D01*
X148108034Y-130875326D01*
X148594215Y-130550470D01*
X148919071Y-130064289D01*
X149033145Y-129490800D01*
X148919071Y-128917311D01*
X148594215Y-128431130D01*
X148279434Y-128220800D01*
X148594215Y-128010470D01*
X148919071Y-127524289D01*
X149033145Y-126950800D01*
X148919071Y-126377311D01*
X148594215Y-125891130D01*
X148279434Y-125680800D01*
X148594215Y-125470470D01*
X148919071Y-124984289D01*
X149033145Y-124410800D01*
X148919071Y-123837311D01*
X148594215Y-123351130D01*
X148484800Y-123278021D01*
X148484800Y-122543400D01*
X152286560Y-122543400D01*
X152286560Y-124575400D01*
X152330838Y-124810717D01*
X152360877Y-124857398D01*
X152337569Y-124891510D01*
X152286560Y-125143400D01*
X152286560Y-127175400D01*
X152330838Y-127410717D01*
X152469910Y-127626841D01*
X152682110Y-127771831D01*
X152934000Y-127822840D01*
X154661200Y-127822840D01*
X154896517Y-127778562D01*
X155112641Y-127639490D01*
X155257631Y-127427290D01*
X155308640Y-127175400D01*
X155308640Y-125143400D01*
X155264362Y-124908083D01*
X155234323Y-124861402D01*
X155257631Y-124827290D01*
X155308640Y-124575400D01*
X155308640Y-122543400D01*
X155264362Y-122308083D01*
X155125290Y-122091959D01*
X154913090Y-121946969D01*
X154661200Y-121895960D01*
X152934000Y-121895960D01*
X152698683Y-121940238D01*
X152482559Y-122079310D01*
X152337569Y-122291510D01*
X152286560Y-122543400D01*
X148484800Y-122543400D01*
X148484800Y-119855600D01*
X150737855Y-119855600D01*
X150851929Y-120429089D01*
X151176785Y-120915270D01*
X151662966Y-121240126D01*
X152236455Y-121354200D01*
X152605945Y-121354200D01*
X153179434Y-121240126D01*
X153665615Y-120915270D01*
X153990471Y-120429089D01*
X154104545Y-119855600D01*
X153990471Y-119282111D01*
X153665615Y-118795930D01*
X153179434Y-118471074D01*
X152605945Y-118357000D01*
X152236455Y-118357000D01*
X151662966Y-118471074D01*
X151176785Y-118795930D01*
X150851929Y-119282111D01*
X150737855Y-119855600D01*
X148484800Y-119855600D01*
X148484800Y-116619932D01*
X152034166Y-113070566D01*
X152178025Y-112855266D01*
X152280203Y-112702346D01*
X152339000Y-112406754D01*
X152339000Y-112744145D01*
X152453074Y-113317634D01*
X152777930Y-113803815D01*
X152861119Y-113859400D01*
X152777930Y-113914985D01*
X152453074Y-114401166D01*
X152339000Y-114974655D01*
X152339000Y-115344145D01*
X152453074Y-115917634D01*
X152777930Y-116403815D01*
X153264111Y-116728671D01*
X153837600Y-116842745D01*
X154411089Y-116728671D01*
X154897270Y-116403815D01*
X155222126Y-115917634D01*
X155336200Y-115344145D01*
X155336200Y-114974655D01*
X155222126Y-114401166D01*
X154897270Y-113914985D01*
X154814081Y-113859400D01*
X154897270Y-113803815D01*
X155222126Y-113317634D01*
X155336200Y-112744145D01*
X155336200Y-112374655D01*
X155222126Y-111801166D01*
X154897270Y-111314985D01*
X154411089Y-110990129D01*
X153837600Y-110876055D01*
X153264111Y-110990129D01*
X152777930Y-111314985D01*
X152453074Y-111801166D01*
X152366600Y-112235900D01*
X152366600Y-97987055D01*
X152393000Y-97987055D01*
X152393000Y-98356545D01*
X152507074Y-98930034D01*
X152831930Y-99416215D01*
X153318111Y-99741071D01*
X153891600Y-99855145D01*
X154465089Y-99741071D01*
X154951270Y-99416215D01*
X155276126Y-98930034D01*
X155390200Y-98356545D01*
X155390200Y-97987055D01*
X155276126Y-97413566D01*
X154951270Y-96927385D01*
X154465089Y-96602529D01*
X153891600Y-96488455D01*
X153318111Y-96602529D01*
X152831930Y-96927385D01*
X152507074Y-97413566D01*
X152393000Y-97987055D01*
X152366600Y-97987055D01*
X152366600Y-88661932D01*
X153793293Y-87235240D01*
X154715200Y-87235240D01*
X154950517Y-87190962D01*
X155166641Y-87051890D01*
X155311631Y-86839690D01*
X155362640Y-86587800D01*
X155362640Y-84555800D01*
X155318362Y-84320483D01*
X155179290Y-84104359D01*
X154967090Y-83959369D01*
X154715200Y-83908360D01*
X152988000Y-83908360D01*
X152752683Y-83952638D01*
X152536559Y-84091710D01*
X152391569Y-84303910D01*
X152340560Y-84555800D01*
X152340560Y-85477707D01*
X150429034Y-87389234D01*
X150182997Y-87757454D01*
X150096600Y-88191800D01*
X150096600Y-102529973D01*
X149894200Y-102391679D01*
X149642310Y-102340670D01*
X147943050Y-102340670D01*
X147707733Y-102384948D01*
X147491609Y-102524020D01*
X147346619Y-102736220D01*
X147295610Y-102988110D01*
X147295610Y-103729677D01*
X146009434Y-105015854D01*
X145763397Y-105384074D01*
X145677000Y-105818420D01*
X145677000Y-111696268D01*
X142885234Y-114488034D01*
X142639197Y-114856254D01*
X142552800Y-115290600D01*
X142552800Y-122917378D01*
X142465800Y-122899760D01*
X140433800Y-122899760D01*
X140198483Y-122944038D01*
X139982359Y-123083110D01*
X139837369Y-123295310D01*
X139786360Y-123547200D01*
X139786360Y-125274400D01*
X139830638Y-125509717D01*
X139969710Y-125725841D01*
X140181910Y-125870831D01*
X140223239Y-125879200D01*
X140205385Y-125891130D01*
X139880529Y-126377311D01*
X139766455Y-126950800D01*
X136699965Y-126950800D01*
X136722126Y-126917634D01*
X136836200Y-126344145D01*
X136836200Y-125974655D01*
X136722126Y-125401166D01*
X136397270Y-124914985D01*
X136314081Y-124859400D01*
X136397270Y-124803815D01*
X136722126Y-124317634D01*
X136836200Y-123744145D01*
X136836200Y-123374655D01*
X136722126Y-122801166D01*
X136397270Y-122314985D01*
X135911089Y-121990129D01*
X135337600Y-121876055D01*
X134764111Y-121990129D01*
X134277930Y-122314985D01*
X133953074Y-122801166D01*
X133839000Y-123374655D01*
X127100400Y-123374655D01*
X127100400Y-114884200D01*
X127465200Y-114884200D01*
X127465200Y-118694200D01*
X127551597Y-119128546D01*
X127797634Y-119496766D01*
X129067634Y-120766766D01*
X129435854Y-121012803D01*
X129870200Y-121099200D01*
X130045751Y-121099200D01*
X130067422Y-121131633D01*
X130603045Y-121489525D01*
X131234855Y-121615200D01*
X131299545Y-121615200D01*
X131931355Y-121489525D01*
X132466978Y-121131633D01*
X132824870Y-120596010D01*
X132950545Y-119964200D01*
X132824870Y-119332390D01*
X132597701Y-118992408D01*
X132660497Y-118952000D01*
X134357760Y-118952000D01*
X134357760Y-120679200D01*
X134402038Y-120914517D01*
X134541110Y-121130641D01*
X134753310Y-121275631D01*
X135005200Y-121326640D01*
X137037200Y-121326640D01*
X137272517Y-121282362D01*
X137488641Y-121143290D01*
X137633631Y-120931090D01*
X137684640Y-120679200D01*
X137684640Y-118952000D01*
X137640362Y-118716683D01*
X137501290Y-118500559D01*
X137289090Y-118355569D01*
X137037200Y-118304560D01*
X135005200Y-118304560D01*
X134769883Y-118348838D01*
X134553759Y-118487910D01*
X134408769Y-118700110D01*
X134357760Y-118952000D01*
X132660497Y-118952000D01*
X132734641Y-118904290D01*
X132879631Y-118692090D01*
X132930640Y-118440200D01*
X132930640Y-116408200D01*
X132886362Y-116172883D01*
X132747290Y-115956759D01*
X132535090Y-115811769D01*
X132283200Y-115760760D01*
X130251200Y-115760760D01*
X130015883Y-115805038D01*
X129799759Y-115944110D01*
X129735200Y-116038595D01*
X129735200Y-115521313D01*
X133852416Y-115521313D01*
X134045646Y-116073720D01*
X134435564Y-116510132D01*
X134962809Y-116764109D01*
X134978574Y-116766758D01*
X135210600Y-116645617D01*
X135210600Y-115286400D01*
X135464600Y-115286400D01*
X135464600Y-116645617D01*
X135696626Y-116766758D01*
X135712391Y-116764109D01*
X136239636Y-116510132D01*
X136629554Y-116073720D01*
X136822784Y-115521313D01*
X136678524Y-115286400D01*
X135464600Y-115286400D01*
X135210600Y-115286400D01*
X133996676Y-115286400D01*
X133852416Y-115521313D01*
X129735200Y-115521313D01*
X129735200Y-115354332D01*
X132168219Y-112921313D01*
X133852416Y-112921313D01*
X134045646Y-113473720D01*
X134390237Y-113859400D01*
X134045646Y-114245080D01*
X133852416Y-114797487D01*
X133996676Y-115032400D01*
X135210600Y-115032400D01*
X135210600Y-112686400D01*
X135464600Y-112686400D01*
X135464600Y-115032400D01*
X136678524Y-115032400D01*
X136822784Y-114797487D01*
X136629554Y-114245080D01*
X136284963Y-113859400D01*
X136629554Y-113473720D01*
X136822784Y-112921313D01*
X136678524Y-112686400D01*
X135464600Y-112686400D01*
X135210600Y-112686400D01*
X133996676Y-112686400D01*
X133852416Y-112921313D01*
X132168219Y-112921313D01*
X132892045Y-112197487D01*
X133852416Y-112197487D01*
X133996676Y-112432400D01*
X135210600Y-112432400D01*
X135210600Y-111073183D01*
X135464600Y-111073183D01*
X135464600Y-112432400D01*
X136678524Y-112432400D01*
X136822784Y-112197487D01*
X136629554Y-111645080D01*
X136239636Y-111208668D01*
X135712391Y-110954691D01*
X135696626Y-110952042D01*
X135464600Y-111073183D01*
X135210600Y-111073183D01*
X134978574Y-110952042D01*
X134962809Y-110954691D01*
X134435564Y-111208668D01*
X134045646Y-111645080D01*
X133852416Y-112197487D01*
X132892045Y-112197487D01*
X135422566Y-109666966D01*
X135451803Y-109623210D01*
X135668603Y-109298746D01*
X135755000Y-108864400D01*
X135755000Y-107865556D01*
X137173192Y-107865556D01*
X137398738Y-108411417D01*
X137816006Y-108829414D01*
X138361473Y-109055912D01*
X138952096Y-109056428D01*
X139497957Y-108830882D01*
X139915954Y-108413614D01*
X140142452Y-107868147D01*
X140142968Y-107277524D01*
X139917422Y-106731663D01*
X139500154Y-106313666D01*
X138954687Y-106087168D01*
X138364064Y-106086652D01*
X137818203Y-106312198D01*
X137400206Y-106729466D01*
X137173708Y-107274933D01*
X137173192Y-107865556D01*
X135755000Y-107865556D01*
X135755000Y-106845332D01*
X137627592Y-104972740D01*
X137667946Y-104972740D01*
X137790606Y-105095614D01*
X138336073Y-105322112D01*
X138926696Y-105322628D01*
X139472557Y-105097082D01*
X139890554Y-104679814D01*
X140117052Y-104134347D01*
X140117568Y-103543724D01*
X139892022Y-102997863D01*
X139474754Y-102579866D01*
X138929287Y-102353368D01*
X138338664Y-102352852D01*
X137792803Y-102578398D01*
X137668244Y-102702740D01*
X137157460Y-102702740D01*
X136723119Y-102789136D01*
X136723114Y-102789137D01*
X136354894Y-103035174D01*
X133817434Y-105572634D01*
X133571397Y-105940854D01*
X133485000Y-106375200D01*
X133485000Y-108394268D01*
X132870987Y-109008281D01*
X132874345Y-108991400D01*
X132748670Y-108359590D01*
X132521501Y-108019608D01*
X132658441Y-107931490D01*
X132803431Y-107719290D01*
X132854440Y-107467400D01*
X132854440Y-105435400D01*
X132810162Y-105200083D01*
X132671090Y-104983959D01*
X132458890Y-104838969D01*
X132207000Y-104787960D01*
X130175000Y-104787960D01*
X129939683Y-104832238D01*
X129723559Y-104971310D01*
X129578569Y-105183510D01*
X129527560Y-105435400D01*
X129527560Y-107467400D01*
X129571838Y-107702717D01*
X129710910Y-107918841D01*
X129859837Y-108020598D01*
X129633330Y-108359590D01*
X129507655Y-108991400D01*
X129633330Y-109623210D01*
X129991222Y-110158833D01*
X130526845Y-110516725D01*
X131158655Y-110642400D01*
X131223345Y-110642400D01*
X131240226Y-110639042D01*
X127797634Y-114081634D01*
X127551597Y-114449854D01*
X127465200Y-114884200D01*
X127100400Y-114884200D01*
X127100400Y-98933000D01*
X129355255Y-98933000D01*
X129469329Y-99506489D01*
X129794185Y-99992670D01*
X130280366Y-100317526D01*
X130853855Y-100431600D01*
X131223345Y-100431600D01*
X131796834Y-100317526D01*
X132283015Y-99992670D01*
X132607871Y-99506489D01*
X132721945Y-98933000D01*
X132607871Y-98359511D01*
X132283015Y-97873330D01*
X131973531Y-97666539D01*
X132389332Y-97295036D01*
X132643309Y-96767791D01*
X132645958Y-96752026D01*
X132524817Y-96520000D01*
X131165600Y-96520000D01*
X131165600Y-96540000D01*
X130911600Y-96540000D01*
X130911600Y-96520000D01*
X129552383Y-96520000D01*
X129431242Y-96752026D01*
X129433891Y-96767791D01*
X129687868Y-97295036D01*
X130103669Y-97666539D01*
X129794185Y-97873330D01*
X129469329Y-98359511D01*
X129355255Y-98933000D01*
X127100400Y-98933000D01*
X127100400Y-93853000D01*
X129355255Y-93853000D01*
X129469329Y-94426489D01*
X129794185Y-94912670D01*
X130103669Y-95119461D01*
X129687868Y-95490964D01*
X129433891Y-96018209D01*
X129431242Y-96033974D01*
X129552383Y-96266000D01*
X130911600Y-96266000D01*
X130911600Y-96246000D01*
X131165600Y-96246000D01*
X131165600Y-96266000D01*
X132524817Y-96266000D01*
X132645958Y-96033974D01*
X132643309Y-96018209D01*
X132389332Y-95490964D01*
X132384957Y-95487055D01*
X134793000Y-95487055D01*
X134793000Y-95856545D01*
X134907074Y-96430034D01*
X135231930Y-96916215D01*
X135718111Y-97241071D01*
X136291600Y-97355145D01*
X136865089Y-97241071D01*
X137351270Y-96916215D01*
X137676126Y-96430034D01*
X137790200Y-95856545D01*
X137790200Y-95487055D01*
X137676126Y-94913566D01*
X137351270Y-94427385D01*
X136865089Y-94102529D01*
X136291600Y-93988455D01*
X135718111Y-94102529D01*
X135231930Y-94427385D01*
X134907074Y-94913566D01*
X134793000Y-95487055D01*
X132384957Y-95487055D01*
X131973531Y-95119461D01*
X132283015Y-94912670D01*
X132607871Y-94426489D01*
X132721945Y-93853000D01*
X132607871Y-93279511D01*
X132283015Y-92793330D01*
X131973531Y-92586539D01*
X132389332Y-92215036D01*
X132643309Y-91687791D01*
X132645958Y-91672026D01*
X132524817Y-91440000D01*
X131165600Y-91440000D01*
X131165600Y-91460000D01*
X130911600Y-91460000D01*
X130911600Y-91440000D01*
X129552383Y-91440000D01*
X129431242Y-91672026D01*
X129433891Y-91687791D01*
X129687868Y-92215036D01*
X130103669Y-92586539D01*
X129794185Y-92793330D01*
X129469329Y-93279511D01*
X129355255Y-93853000D01*
X127100400Y-93853000D01*
X127100400Y-88773000D01*
X129355255Y-88773000D01*
X129469329Y-89346489D01*
X129794185Y-89832670D01*
X130103669Y-90039461D01*
X129687868Y-90410964D01*
X129433891Y-90938209D01*
X129431242Y-90953974D01*
X129552383Y-91186000D01*
X130911600Y-91186000D01*
X130911600Y-91166000D01*
X131165600Y-91166000D01*
X131165600Y-91186000D01*
X132524817Y-91186000D01*
X132645958Y-90953974D01*
X132643309Y-90938209D01*
X132389332Y-90410964D01*
X131973531Y-90039461D01*
X132283015Y-89832670D01*
X132607871Y-89346489D01*
X132721945Y-88773000D01*
X132654457Y-88433713D01*
X134806416Y-88433713D01*
X134999646Y-88986120D01*
X135389564Y-89422532D01*
X135916809Y-89676509D01*
X135932574Y-89679158D01*
X136164600Y-89558017D01*
X136164600Y-88198800D01*
X136418600Y-88198800D01*
X136418600Y-89558017D01*
X136650626Y-89679158D01*
X136666391Y-89676509D01*
X137193636Y-89422532D01*
X137583554Y-88986120D01*
X137776784Y-88433713D01*
X137632524Y-88198800D01*
X136418600Y-88198800D01*
X136164600Y-88198800D01*
X134950676Y-88198800D01*
X134806416Y-88433713D01*
X132654457Y-88433713D01*
X132607871Y-88199511D01*
X132283015Y-87713330D01*
X132277863Y-87709887D01*
X134806416Y-87709887D01*
X134950676Y-87944800D01*
X136164600Y-87944800D01*
X136164600Y-86585583D01*
X136418600Y-86585583D01*
X136418600Y-87944800D01*
X137632524Y-87944800D01*
X137776784Y-87709887D01*
X137583554Y-87157480D01*
X137193636Y-86721068D01*
X136666391Y-86467091D01*
X136650626Y-86464442D01*
X136418600Y-86585583D01*
X136164600Y-86585583D01*
X135932574Y-86464442D01*
X135916809Y-86467091D01*
X135389564Y-86721068D01*
X134999646Y-87157480D01*
X134806416Y-87709887D01*
X132277863Y-87709887D01*
X132260820Y-87698500D01*
X132414298Y-87634927D01*
X132592927Y-87456299D01*
X132689600Y-87222910D01*
X132689600Y-86518750D01*
X132530850Y-86360000D01*
X131165600Y-86360000D01*
X131165600Y-86380000D01*
X130911600Y-86380000D01*
X130911600Y-86360000D01*
X129546350Y-86360000D01*
X129387600Y-86518750D01*
X129387600Y-87222910D01*
X129484273Y-87456299D01*
X129662902Y-87634927D01*
X129816380Y-87698500D01*
X129794185Y-87713330D01*
X129469329Y-88199511D01*
X129355255Y-88773000D01*
X127100400Y-88773000D01*
X127100400Y-85243090D01*
X129387600Y-85243090D01*
X129387600Y-85947250D01*
X129546350Y-86106000D01*
X130911600Y-86106000D01*
X130911600Y-84893150D01*
X131165600Y-84893150D01*
X131165600Y-86106000D01*
X132530850Y-86106000D01*
X132689600Y-85947250D01*
X132689600Y-85243090D01*
X132592927Y-85009701D01*
X132414298Y-84831073D01*
X132180909Y-84734400D01*
X131324350Y-84734400D01*
X131165600Y-84893150D01*
X130911600Y-84893150D01*
X130752850Y-84734400D01*
X129896291Y-84734400D01*
X129662902Y-84831073D01*
X129484273Y-85009701D01*
X129387600Y-85243090D01*
X127100400Y-85243090D01*
X127100400Y-78383200D01*
X129624580Y-78383200D01*
X128680885Y-78773127D01*
X128680885Y-78773127D01*
G37*
X128680885Y-78773127D02*
X127798226Y-79654247D01*
X127319946Y-80806074D01*
X127318857Y-82053254D01*
X127795127Y-83205915D01*
X128676247Y-84088574D01*
X129828074Y-84566854D01*
X131075254Y-84567943D01*
X132227915Y-84091673D01*
X133110574Y-83210553D01*
X133588854Y-82058726D01*
X133589943Y-80811546D01*
X133113673Y-79658885D01*
X132232553Y-78776226D01*
X131286041Y-78383200D01*
X135244818Y-78383200D01*
X134776785Y-78695930D01*
X134451929Y-79182111D01*
X134337855Y-79755600D01*
X134451929Y-80329089D01*
X134776785Y-80815270D01*
X135262966Y-81140126D01*
X135836455Y-81254200D01*
X136205945Y-81254200D01*
X136779434Y-81140126D01*
X137265615Y-80815270D01*
X137590471Y-80329089D01*
X137613239Y-80214626D01*
X150813842Y-80214626D01*
X150816491Y-80230391D01*
X151070468Y-80757636D01*
X151506880Y-81147554D01*
X152059287Y-81340784D01*
X152294200Y-81196524D01*
X152294200Y-79982600D01*
X152548200Y-79982600D01*
X152548200Y-81196524D01*
X152783113Y-81340784D01*
X153335520Y-81147554D01*
X153771932Y-80757636D01*
X154025909Y-80230391D01*
X154028558Y-80214626D01*
X153907417Y-79982600D01*
X152548200Y-79982600D01*
X152294200Y-79982600D01*
X150934983Y-79982600D01*
X150813842Y-80214626D01*
X137613239Y-80214626D01*
X137704545Y-79755600D01*
X137590471Y-79182111D01*
X137265615Y-78695930D01*
X136797582Y-78383200D01*
X152022740Y-78383200D01*
X151506880Y-78563646D01*
X151070468Y-78953564D01*
X150816491Y-79480809D01*
X150813842Y-79496574D01*
X150934983Y-79728600D01*
X152294200Y-79728600D01*
X152294200Y-79708600D01*
X152548200Y-79708600D01*
X152548200Y-79728600D01*
X153907417Y-79728600D01*
X154028558Y-79496574D01*
X154025909Y-79480809D01*
X153771932Y-78953564D01*
X153335520Y-78563646D01*
X152819660Y-78383200D01*
X155652400Y-78383200D01*
X155652400Y-131954200D01*
X127100400Y-131954200D01*
X127100400Y-129043254D01*
X127344257Y-129043254D01*
X127820527Y-130195915D01*
X128701647Y-131078574D01*
X129853474Y-131556854D01*
X131100654Y-131557943D01*
X132253315Y-131081673D01*
X133135974Y-130200553D01*
X133614254Y-129048726D01*
X133615343Y-127801546D01*
X133139073Y-126648885D01*
X132257953Y-125766226D01*
X131106126Y-125287946D01*
X129858946Y-125286857D01*
X128706285Y-125763127D01*
X127823626Y-126644247D01*
X127345346Y-127796074D01*
X127344257Y-129043254D01*
X127100400Y-129043254D01*
X127100400Y-123374655D01*
X133839000Y-123374655D01*
X133839000Y-123744145D01*
X133953074Y-124317634D01*
X134277930Y-124803815D01*
X134361119Y-124859400D01*
X134277930Y-124914985D01*
X133953074Y-125401166D01*
X133839000Y-125974655D01*
X133839000Y-126344145D01*
X133953074Y-126917634D01*
X134277930Y-127403815D01*
X134764111Y-127728671D01*
X135337600Y-127842745D01*
X135911089Y-127728671D01*
X136397270Y-127403815D01*
X136699965Y-126950800D01*
X139766455Y-126950800D01*
X139880529Y-127524289D01*
X140205385Y-128010470D01*
X140520166Y-128220800D01*
X140205385Y-128431130D01*
X139880529Y-128917311D01*
X139766455Y-129490800D01*
X139880529Y-130064289D01*
X140205385Y-130550470D01*
X140691566Y-130875326D01*
X141265055Y-130989400D01*
X141634545Y-130989400D01*
X142208034Y-130875326D01*
X142694215Y-130550470D01*
X143019071Y-130064289D01*
X143133145Y-129490800D01*
X143019071Y-128917311D01*
X142694215Y-128431130D01*
X142379434Y-128220800D01*
X142581476Y-128085800D01*
X142695600Y-128085800D01*
X143129946Y-127999403D01*
X143498166Y-127753366D01*
X144490366Y-126761166D01*
X144681693Y-126474825D01*
X145879948Y-127673080D01*
X146105385Y-128010470D01*
X146420166Y-128220800D01*
X146105385Y-128431130D01*
X145780529Y-128917311D01*
X145666455Y-129490800D01*
X145780529Y-130064289D01*
X146105385Y-130550470D01*
X146591566Y-130875326D01*
X147165055Y-130989400D01*
X147534545Y-130989400D01*
X148108034Y-130875326D01*
X148594215Y-130550470D01*
X148919071Y-130064289D01*
X149033145Y-129490800D01*
X148919071Y-128917311D01*
X148594215Y-128431130D01*
X148279434Y-128220800D01*
X148594215Y-128010470D01*
X148919071Y-127524289D01*
X149033145Y-126950800D01*
X148919071Y-126377311D01*
X148594215Y-125891130D01*
X148279434Y-125680800D01*
X148594215Y-125470470D01*
X148919071Y-124984289D01*
X149033145Y-124410800D01*
X148919071Y-123837311D01*
X148594215Y-123351130D01*
X148484800Y-123278021D01*
X148484800Y-122543400D01*
X152286560Y-122543400D01*
X152286560Y-124575400D01*
X152330838Y-124810717D01*
X152360877Y-124857398D01*
X152337569Y-124891510D01*
X152286560Y-125143400D01*
X152286560Y-127175400D01*
X152330838Y-127410717D01*
X152469910Y-127626841D01*
X152682110Y-127771831D01*
X152934000Y-127822840D01*
X154661200Y-127822840D01*
X154896517Y-127778562D01*
X155112641Y-127639490D01*
X155257631Y-127427290D01*
X155308640Y-127175400D01*
X155308640Y-125143400D01*
X155264362Y-124908083D01*
X155234323Y-124861402D01*
X155257631Y-124827290D01*
X155308640Y-124575400D01*
X155308640Y-122543400D01*
X155264362Y-122308083D01*
X155125290Y-122091959D01*
X154913090Y-121946969D01*
X154661200Y-121895960D01*
X152934000Y-121895960D01*
X152698683Y-121940238D01*
X152482559Y-122079310D01*
X152337569Y-122291510D01*
X152286560Y-122543400D01*
X148484800Y-122543400D01*
X148484800Y-119855600D01*
X150737855Y-119855600D01*
X150851929Y-120429089D01*
X151176785Y-120915270D01*
X151662966Y-121240126D01*
X152236455Y-121354200D01*
X152605945Y-121354200D01*
X153179434Y-121240126D01*
X153665615Y-120915270D01*
X153990471Y-120429089D01*
X154104545Y-119855600D01*
X153990471Y-119282111D01*
X153665615Y-118795930D01*
X153179434Y-118471074D01*
X152605945Y-118357000D01*
X152236455Y-118357000D01*
X151662966Y-118471074D01*
X151176785Y-118795930D01*
X150851929Y-119282111D01*
X150737855Y-119855600D01*
X148484800Y-119855600D01*
X148484800Y-116619932D01*
X152034166Y-113070566D01*
X152178025Y-112855266D01*
X152280203Y-112702346D01*
X152339000Y-112406754D01*
X152339000Y-112744145D01*
X152453074Y-113317634D01*
X152777930Y-113803815D01*
X152861119Y-113859400D01*
X152777930Y-113914985D01*
X152453074Y-114401166D01*
X152339000Y-114974655D01*
X152339000Y-115344145D01*
X152453074Y-115917634D01*
X152777930Y-116403815D01*
X153264111Y-116728671D01*
X153837600Y-116842745D01*
X154411089Y-116728671D01*
X154897270Y-116403815D01*
X155222126Y-115917634D01*
X155336200Y-115344145D01*
X155336200Y-114974655D01*
X155222126Y-114401166D01*
X154897270Y-113914985D01*
X154814081Y-113859400D01*
X154897270Y-113803815D01*
X155222126Y-113317634D01*
X155336200Y-112744145D01*
X155336200Y-112374655D01*
X155222126Y-111801166D01*
X154897270Y-111314985D01*
X154411089Y-110990129D01*
X153837600Y-110876055D01*
X153264111Y-110990129D01*
X152777930Y-111314985D01*
X152453074Y-111801166D01*
X152366600Y-112235900D01*
X152366600Y-97987055D01*
X152393000Y-97987055D01*
X152393000Y-98356545D01*
X152507074Y-98930034D01*
X152831930Y-99416215D01*
X153318111Y-99741071D01*
X153891600Y-99855145D01*
X154465089Y-99741071D01*
X154951270Y-99416215D01*
X155276126Y-98930034D01*
X155390200Y-98356545D01*
X155390200Y-97987055D01*
X155276126Y-97413566D01*
X154951270Y-96927385D01*
X154465089Y-96602529D01*
X153891600Y-96488455D01*
X153318111Y-96602529D01*
X152831930Y-96927385D01*
X152507074Y-97413566D01*
X152393000Y-97987055D01*
X152366600Y-97987055D01*
X152366600Y-88661932D01*
X153793293Y-87235240D01*
X154715200Y-87235240D01*
X154950517Y-87190962D01*
X155166641Y-87051890D01*
X155311631Y-86839690D01*
X155362640Y-86587800D01*
X155362640Y-84555800D01*
X155318362Y-84320483D01*
X155179290Y-84104359D01*
X154967090Y-83959369D01*
X154715200Y-83908360D01*
X152988000Y-83908360D01*
X152752683Y-83952638D01*
X152536559Y-84091710D01*
X152391569Y-84303910D01*
X152340560Y-84555800D01*
X152340560Y-85477707D01*
X150429034Y-87389234D01*
X150182997Y-87757454D01*
X150096600Y-88191800D01*
X150096600Y-102529973D01*
X149894200Y-102391679D01*
X149642310Y-102340670D01*
X147943050Y-102340670D01*
X147707733Y-102384948D01*
X147491609Y-102524020D01*
X147346619Y-102736220D01*
X147295610Y-102988110D01*
X147295610Y-103729677D01*
X146009434Y-105015854D01*
X145763397Y-105384074D01*
X145677000Y-105818420D01*
X145677000Y-111696268D01*
X142885234Y-114488034D01*
X142639197Y-114856254D01*
X142552800Y-115290600D01*
X142552800Y-122917378D01*
X142465800Y-122899760D01*
X140433800Y-122899760D01*
X140198483Y-122944038D01*
X139982359Y-123083110D01*
X139837369Y-123295310D01*
X139786360Y-123547200D01*
X139786360Y-125274400D01*
X139830638Y-125509717D01*
X139969710Y-125725841D01*
X140181910Y-125870831D01*
X140223239Y-125879200D01*
X140205385Y-125891130D01*
X139880529Y-126377311D01*
X139766455Y-126950800D01*
X136699965Y-126950800D01*
X136722126Y-126917634D01*
X136836200Y-126344145D01*
X136836200Y-125974655D01*
X136722126Y-125401166D01*
X136397270Y-124914985D01*
X136314081Y-124859400D01*
X136397270Y-124803815D01*
X136722126Y-124317634D01*
X136836200Y-123744145D01*
X136836200Y-123374655D01*
X136722126Y-122801166D01*
X136397270Y-122314985D01*
X135911089Y-121990129D01*
X135337600Y-121876055D01*
X134764111Y-121990129D01*
X134277930Y-122314985D01*
X133953074Y-122801166D01*
X133839000Y-123374655D01*
X127100400Y-123374655D01*
X127100400Y-114884200D01*
X127465200Y-114884200D01*
X127465200Y-118694200D01*
X127551597Y-119128546D01*
X127797634Y-119496766D01*
X129067634Y-120766766D01*
X129435854Y-121012803D01*
X129870200Y-121099200D01*
X130045751Y-121099200D01*
X130067422Y-121131633D01*
X130603045Y-121489525D01*
X131234855Y-121615200D01*
X131299545Y-121615200D01*
X131931355Y-121489525D01*
X132466978Y-121131633D01*
X132824870Y-120596010D01*
X132950545Y-119964200D01*
X132824870Y-119332390D01*
X132597701Y-118992408D01*
X132660497Y-118952000D01*
X134357760Y-118952000D01*
X134357760Y-120679200D01*
X134402038Y-120914517D01*
X134541110Y-121130641D01*
X134753310Y-121275631D01*
X135005200Y-121326640D01*
X137037200Y-121326640D01*
X137272517Y-121282362D01*
X137488641Y-121143290D01*
X137633631Y-120931090D01*
X137684640Y-120679200D01*
X137684640Y-118952000D01*
X137640362Y-118716683D01*
X137501290Y-118500559D01*
X137289090Y-118355569D01*
X137037200Y-118304560D01*
X135005200Y-118304560D01*
X134769883Y-118348838D01*
X134553759Y-118487910D01*
X134408769Y-118700110D01*
X134357760Y-118952000D01*
X132660497Y-118952000D01*
X132734641Y-118904290D01*
X132879631Y-118692090D01*
X132930640Y-118440200D01*
X132930640Y-116408200D01*
X132886362Y-116172883D01*
X132747290Y-115956759D01*
X132535090Y-115811769D01*
X132283200Y-115760760D01*
X130251200Y-115760760D01*
X130015883Y-115805038D01*
X129799759Y-115944110D01*
X129735200Y-116038595D01*
X129735200Y-115521313D01*
X133852416Y-115521313D01*
X134045646Y-116073720D01*
X134435564Y-116510132D01*
X134962809Y-116764109D01*
X134978574Y-116766758D01*
X135210600Y-116645617D01*
X135210600Y-115286400D01*
X135464600Y-115286400D01*
X135464600Y-116645617D01*
X135696626Y-116766758D01*
X135712391Y-116764109D01*
X136239636Y-116510132D01*
X136629554Y-116073720D01*
X136822784Y-115521313D01*
X136678524Y-115286400D01*
X135464600Y-115286400D01*
X135210600Y-115286400D01*
X133996676Y-115286400D01*
X133852416Y-115521313D01*
X129735200Y-115521313D01*
X129735200Y-115354332D01*
X132168219Y-112921313D01*
X133852416Y-112921313D01*
X134045646Y-113473720D01*
X134390237Y-113859400D01*
X134045646Y-114245080D01*
X133852416Y-114797487D01*
X133996676Y-115032400D01*
X135210600Y-115032400D01*
X135210600Y-112686400D01*
X135464600Y-112686400D01*
X135464600Y-115032400D01*
X136678524Y-115032400D01*
X136822784Y-114797487D01*
X136629554Y-114245080D01*
X136284963Y-113859400D01*
X136629554Y-113473720D01*
X136822784Y-112921313D01*
X136678524Y-112686400D01*
X135464600Y-112686400D01*
X135210600Y-112686400D01*
X133996676Y-112686400D01*
X133852416Y-112921313D01*
X132168219Y-112921313D01*
X132892045Y-112197487D01*
X133852416Y-112197487D01*
X133996676Y-112432400D01*
X135210600Y-112432400D01*
X135210600Y-111073183D01*
X135464600Y-111073183D01*
X135464600Y-112432400D01*
X136678524Y-112432400D01*
X136822784Y-112197487D01*
X136629554Y-111645080D01*
X136239636Y-111208668D01*
X135712391Y-110954691D01*
X135696626Y-110952042D01*
X135464600Y-111073183D01*
X135210600Y-111073183D01*
X134978574Y-110952042D01*
X134962809Y-110954691D01*
X134435564Y-111208668D01*
X134045646Y-111645080D01*
X133852416Y-112197487D01*
X132892045Y-112197487D01*
X135422566Y-109666966D01*
X135451803Y-109623210D01*
X135668603Y-109298746D01*
X135755000Y-108864400D01*
X135755000Y-107865556D01*
X137173192Y-107865556D01*
X137398738Y-108411417D01*
X137816006Y-108829414D01*
X138361473Y-109055912D01*
X138952096Y-109056428D01*
X139497957Y-108830882D01*
X139915954Y-108413614D01*
X140142452Y-107868147D01*
X140142968Y-107277524D01*
X139917422Y-106731663D01*
X139500154Y-106313666D01*
X138954687Y-106087168D01*
X138364064Y-106086652D01*
X137818203Y-106312198D01*
X137400206Y-106729466D01*
X137173708Y-107274933D01*
X137173192Y-107865556D01*
X135755000Y-107865556D01*
X135755000Y-106845332D01*
X137627592Y-104972740D01*
X137667946Y-104972740D01*
X137790606Y-105095614D01*
X138336073Y-105322112D01*
X138926696Y-105322628D01*
X139472557Y-105097082D01*
X139890554Y-104679814D01*
X140117052Y-104134347D01*
X140117568Y-103543724D01*
X139892022Y-102997863D01*
X139474754Y-102579866D01*
X138929287Y-102353368D01*
X138338664Y-102352852D01*
X137792803Y-102578398D01*
X137668244Y-102702740D01*
X137157460Y-102702740D01*
X136723119Y-102789136D01*
X136723114Y-102789137D01*
X136354894Y-103035174D01*
X133817434Y-105572634D01*
X133571397Y-105940854D01*
X133485000Y-106375200D01*
X133485000Y-108394268D01*
X132870987Y-109008281D01*
X132874345Y-108991400D01*
X132748670Y-108359590D01*
X132521501Y-108019608D01*
X132658441Y-107931490D01*
X132803431Y-107719290D01*
X132854440Y-107467400D01*
X132854440Y-105435400D01*
X132810162Y-105200083D01*
X132671090Y-104983959D01*
X132458890Y-104838969D01*
X132207000Y-104787960D01*
X130175000Y-104787960D01*
X129939683Y-104832238D01*
X129723559Y-104971310D01*
X129578569Y-105183510D01*
X129527560Y-105435400D01*
X129527560Y-107467400D01*
X129571838Y-107702717D01*
X129710910Y-107918841D01*
X129859837Y-108020598D01*
X129633330Y-108359590D01*
X129507655Y-108991400D01*
X129633330Y-109623210D01*
X129991222Y-110158833D01*
X130526845Y-110516725D01*
X131158655Y-110642400D01*
X131223345Y-110642400D01*
X131240226Y-110639042D01*
X127797634Y-114081634D01*
X127551597Y-114449854D01*
X127465200Y-114884200D01*
X127100400Y-114884200D01*
X127100400Y-98933000D01*
X129355255Y-98933000D01*
X129469329Y-99506489D01*
X129794185Y-99992670D01*
X130280366Y-100317526D01*
X130853855Y-100431600D01*
X131223345Y-100431600D01*
X131796834Y-100317526D01*
X132283015Y-99992670D01*
X132607871Y-99506489D01*
X132721945Y-98933000D01*
X132607871Y-98359511D01*
X132283015Y-97873330D01*
X131973531Y-97666539D01*
X132389332Y-97295036D01*
X132643309Y-96767791D01*
X132645958Y-96752026D01*
X132524817Y-96520000D01*
X131165600Y-96520000D01*
X131165600Y-96540000D01*
X130911600Y-96540000D01*
X130911600Y-96520000D01*
X129552383Y-96520000D01*
X129431242Y-96752026D01*
X129433891Y-96767791D01*
X129687868Y-97295036D01*
X130103669Y-97666539D01*
X129794185Y-97873330D01*
X129469329Y-98359511D01*
X129355255Y-98933000D01*
X127100400Y-98933000D01*
X127100400Y-93853000D01*
X129355255Y-93853000D01*
X129469329Y-94426489D01*
X129794185Y-94912670D01*
X130103669Y-95119461D01*
X129687868Y-95490964D01*
X129433891Y-96018209D01*
X129431242Y-96033974D01*
X129552383Y-96266000D01*
X130911600Y-96266000D01*
X130911600Y-96246000D01*
X131165600Y-96246000D01*
X131165600Y-96266000D01*
X132524817Y-96266000D01*
X132645958Y-96033974D01*
X132643309Y-96018209D01*
X132389332Y-95490964D01*
X132384957Y-95487055D01*
X134793000Y-95487055D01*
X134793000Y-95856545D01*
X134907074Y-96430034D01*
X135231930Y-96916215D01*
X135718111Y-97241071D01*
X136291600Y-97355145D01*
X136865089Y-97241071D01*
X137351270Y-96916215D01*
X137676126Y-96430034D01*
X137790200Y-95856545D01*
X137790200Y-95487055D01*
X137676126Y-94913566D01*
X137351270Y-94427385D01*
X136865089Y-94102529D01*
X136291600Y-93988455D01*
X135718111Y-94102529D01*
X135231930Y-94427385D01*
X134907074Y-94913566D01*
X134793000Y-95487055D01*
X132384957Y-95487055D01*
X131973531Y-95119461D01*
X132283015Y-94912670D01*
X132607871Y-94426489D01*
X132721945Y-93853000D01*
X132607871Y-93279511D01*
X132283015Y-92793330D01*
X131973531Y-92586539D01*
X132389332Y-92215036D01*
X132643309Y-91687791D01*
X132645958Y-91672026D01*
X132524817Y-91440000D01*
X131165600Y-91440000D01*
X131165600Y-91460000D01*
X130911600Y-91460000D01*
X130911600Y-91440000D01*
X129552383Y-91440000D01*
X129431242Y-91672026D01*
X129433891Y-91687791D01*
X129687868Y-92215036D01*
X130103669Y-92586539D01*
X129794185Y-92793330D01*
X129469329Y-93279511D01*
X129355255Y-93853000D01*
X127100400Y-93853000D01*
X127100400Y-88773000D01*
X129355255Y-88773000D01*
X129469329Y-89346489D01*
X129794185Y-89832670D01*
X130103669Y-90039461D01*
X129687868Y-90410964D01*
X129433891Y-90938209D01*
X129431242Y-90953974D01*
X129552383Y-91186000D01*
X130911600Y-91186000D01*
X130911600Y-91166000D01*
X131165600Y-91166000D01*
X131165600Y-91186000D01*
X132524817Y-91186000D01*
X132645958Y-90953974D01*
X132643309Y-90938209D01*
X132389332Y-90410964D01*
X131973531Y-90039461D01*
X132283015Y-89832670D01*
X132607871Y-89346489D01*
X132721945Y-88773000D01*
X132654457Y-88433713D01*
X134806416Y-88433713D01*
X134999646Y-88986120D01*
X135389564Y-89422532D01*
X135916809Y-89676509D01*
X135932574Y-89679158D01*
X136164600Y-89558017D01*
X136164600Y-88198800D01*
X136418600Y-88198800D01*
X136418600Y-89558017D01*
X136650626Y-89679158D01*
X136666391Y-89676509D01*
X137193636Y-89422532D01*
X137583554Y-88986120D01*
X137776784Y-88433713D01*
X137632524Y-88198800D01*
X136418600Y-88198800D01*
X136164600Y-88198800D01*
X134950676Y-88198800D01*
X134806416Y-88433713D01*
X132654457Y-88433713D01*
X132607871Y-88199511D01*
X132283015Y-87713330D01*
X132277863Y-87709887D01*
X134806416Y-87709887D01*
X134950676Y-87944800D01*
X136164600Y-87944800D01*
X136164600Y-86585583D01*
X136418600Y-86585583D01*
X136418600Y-87944800D01*
X137632524Y-87944800D01*
X137776784Y-87709887D01*
X137583554Y-87157480D01*
X137193636Y-86721068D01*
X136666391Y-86467091D01*
X136650626Y-86464442D01*
X136418600Y-86585583D01*
X136164600Y-86585583D01*
X135932574Y-86464442D01*
X135916809Y-86467091D01*
X135389564Y-86721068D01*
X134999646Y-87157480D01*
X134806416Y-87709887D01*
X132277863Y-87709887D01*
X132260820Y-87698500D01*
X132414298Y-87634927D01*
X132592927Y-87456299D01*
X132689600Y-87222910D01*
X132689600Y-86518750D01*
X132530850Y-86360000D01*
X131165600Y-86360000D01*
X131165600Y-86380000D01*
X130911600Y-86380000D01*
X130911600Y-86360000D01*
X129546350Y-86360000D01*
X129387600Y-86518750D01*
X129387600Y-87222910D01*
X129484273Y-87456299D01*
X129662902Y-87634927D01*
X129816380Y-87698500D01*
X129794185Y-87713330D01*
X129469329Y-88199511D01*
X129355255Y-88773000D01*
X127100400Y-88773000D01*
X127100400Y-85243090D01*
X129387600Y-85243090D01*
X129387600Y-85947250D01*
X129546350Y-86106000D01*
X130911600Y-86106000D01*
X130911600Y-84893150D01*
X131165600Y-84893150D01*
X131165600Y-86106000D01*
X132530850Y-86106000D01*
X132689600Y-85947250D01*
X132689600Y-85243090D01*
X132592927Y-85009701D01*
X132414298Y-84831073D01*
X132180909Y-84734400D01*
X131324350Y-84734400D01*
X131165600Y-84893150D01*
X130911600Y-84893150D01*
X130752850Y-84734400D01*
X129896291Y-84734400D01*
X129662902Y-84831073D01*
X129484273Y-85009701D01*
X129387600Y-85243090D01*
X127100400Y-85243090D01*
X127100400Y-78383200D01*
X129624580Y-78383200D01*
X128680885Y-78773127D01*
M02*
