G04 #@! TF.FileFunction,Copper,L1,Top,Signal*
%FSLAX46Y46*%
G04 Gerber Fmt 4.6, Leading zero omitted, Abs format (unit mm)*
G04 Created by KiCad (PCBNEW 4.0.2-stable) date 11.07.2016 23:58:06*
%MOMM*%
G01*
G04 APERTURE LIST*
%ADD10C,0.100000*%
%ADD11C,5.000000*%
%ADD12C,1.699260*%
%ADD13R,1.699260X1.699260*%
%ADD14O,2.032000X1.727200*%
%ADD15R,2.032000X1.727200*%
%ADD16O,1.727200X2.032000*%
%ADD17R,1.727200X2.032000*%
%ADD18R,2.032000X2.032000*%
%ADD19O,2.032000X2.032000*%
%ADD20C,1.000000*%
G04 APERTURE END LIST*
D10*
D11*
X130479800Y-128422400D03*
D12*
X138632680Y-103837740D03*
D13*
X148792680Y-103837740D03*
D12*
X138658080Y-107571540D03*
D13*
X148818080Y-107571540D03*
D14*
X152421200Y-79855600D03*
X136021200Y-79755600D03*
X152421200Y-119855600D03*
D15*
X136021200Y-119815600D03*
D16*
X135337600Y-126159400D03*
X135337600Y-123559400D03*
X135337600Y-112559400D03*
X135337600Y-115159400D03*
X153837600Y-115159400D03*
D17*
X153797600Y-126159400D03*
D16*
X153837600Y-112559400D03*
D17*
X153797600Y-123559400D03*
D16*
X136291600Y-88071800D03*
X136291600Y-95671800D03*
X153891600Y-98171800D03*
D17*
X153851600Y-85571800D03*
D18*
X131267200Y-117424200D03*
D19*
X131267200Y-119964200D03*
D15*
X131038600Y-86233000D03*
D14*
X131038600Y-88773000D03*
X131038600Y-91313000D03*
X131038600Y-93853000D03*
X131038600Y-96393000D03*
X131038600Y-98933000D03*
D18*
X131191000Y-106451400D03*
D19*
X131191000Y-108991400D03*
D14*
X141449800Y-129490800D03*
X141449800Y-126950800D03*
D15*
X141449800Y-124410800D03*
D14*
X147349800Y-124410800D03*
X147349800Y-126950800D03*
X147349800Y-129490800D03*
D11*
X130454400Y-81432400D03*
D20*
X131191000Y-108991400D02*
X137238220Y-108991400D01*
X137238220Y-108991400D02*
X138658080Y-107571540D01*
X131038600Y-88773000D02*
X132359400Y-88773000D01*
X136021200Y-81885400D02*
X136021200Y-79755600D01*
X134213600Y-83693000D02*
X136021200Y-81885400D01*
X134213600Y-86918800D02*
X134213600Y-83693000D01*
X132359400Y-88773000D02*
X134213600Y-86918800D01*
X136021200Y-119815600D02*
X136021200Y-120120800D01*
X136021200Y-120120800D02*
X138023600Y-122123200D01*
X138023600Y-122123200D02*
X138023600Y-127736600D01*
X138023600Y-127736600D02*
X139777800Y-129490800D01*
X139777800Y-129490800D02*
X141449800Y-129490800D01*
X153797600Y-126159400D02*
X153797600Y-123559400D01*
X141449800Y-129490800D02*
X141449800Y-129689600D01*
X141449800Y-129689600D02*
X143256000Y-131495800D01*
X143256000Y-131495800D02*
X151028400Y-131495800D01*
X151028400Y-131495800D02*
X153797600Y-128726600D01*
X153797600Y-128726600D02*
X153797600Y-126159400D01*
X135337600Y-123559400D02*
X131433400Y-123559400D01*
X131064000Y-123190000D02*
X131064000Y-123139200D01*
X131433400Y-123559400D02*
X131064000Y-123190000D01*
X135337600Y-126159400D02*
X134084200Y-126159400D01*
X129616200Y-93853000D02*
X131038600Y-93853000D01*
X127558800Y-95910400D02*
X129616200Y-93853000D01*
X127558800Y-119634000D02*
X127558800Y-95910400D01*
X134084200Y-126159400D02*
X131064000Y-123139200D01*
X131064000Y-123139200D02*
X127558800Y-119634000D01*
X131038600Y-98933000D02*
X133030400Y-98933000D01*
X133030400Y-98933000D02*
X136291600Y-95671800D01*
X152421200Y-119855600D02*
X151404200Y-119855600D01*
X151404200Y-119855600D02*
X148972800Y-117424200D01*
X153837600Y-115159400D02*
X151237600Y-115159400D01*
X151180800Y-115163600D02*
X151180800Y-115216200D01*
X151233400Y-115163600D02*
X151180800Y-115163600D01*
X151237600Y-115159400D02*
X151233400Y-115163600D01*
X131267200Y-117424200D02*
X148972800Y-117424200D01*
X148972800Y-117424200D02*
X151180800Y-115216200D01*
X151180800Y-115216200D02*
X153837600Y-112559400D01*
X131191000Y-106451400D02*
X131419600Y-106451400D01*
X131419600Y-106451400D02*
X139699200Y-98171800D01*
X139699200Y-98171800D02*
X153891600Y-98171800D01*
M02*
