M48
METRIC,TZ
T1C0.701
T2C1.016
T3C3.200
%
G90
G05
T1
X138633Y-103838
X138658Y-107572
X148793Y-103838
X148818Y-107572
T2
X131039Y-86233
X131039Y-88773
X131039Y-91313
X131039Y-93853
X131039Y-96393
X131039Y-98933
X131191Y-106451
X131191Y-108991
X131267Y-117424
X131267Y-119964
X135338Y-112559
X135338Y-115159
X135338Y-123559
X135338Y-126159
X136021Y-79756
X136021Y-119816
X136292Y-88072
X136292Y-95672
X141450Y-124411
X141450Y-126951
X141450Y-129491
X147350Y-124411
X147350Y-126951
X147350Y-129491
X152421Y-79856
X152421Y-119856
X153798Y-123559
X153798Y-126159
X153838Y-112559
X153838Y-115159
X153852Y-85572
X153892Y-98172
T3
X130454Y-81432
X130480Y-128422
T0
M30
