G04 #@! TF.FileFunction,Copper,L2,Bot,Signal*
%FSLAX46Y46*%
G04 Gerber Fmt 4.6, Leading zero omitted, Abs format (unit mm)*
G04 Created by KiCad (PCBNEW 4.0.4-stable) date 10/09/16 23:20:07*
%MOMM*%
%LPD*%
G01*
G04 APERTURE LIST*
%ADD10C,0.100000*%
%ADD11C,4.064000*%
%ADD12R,2.000000X1.600000*%
%ADD13R,1.600000X2.000000*%
%ADD14C,1.300000*%
%ADD15R,1.300000X1.300000*%
%ADD16C,1.699260*%
%ADD17R,1.699260X1.699260*%
%ADD18O,2.032000X1.727200*%
%ADD19R,2.032000X1.727200*%
%ADD20O,1.727200X2.032000*%
%ADD21R,1.727200X2.032000*%
%ADD22R,1.500000X0.600000*%
%ADD23R,1.727200X1.727200*%
%ADD24O,1.727200X1.727200*%
%ADD25C,4.000000*%
%ADD26R,2.032000X2.032000*%
%ADD27O,2.032000X2.032000*%
%ADD28R,2.286000X1.574800*%
%ADD29O,2.286000X1.574800*%
%ADD30C,0.600000*%
%ADD31C,0.500000*%
%ADD32C,0.250000*%
%ADD33C,0.254000*%
G04 APERTURE END LIST*
D10*
D11*
X152095200Y-103047800D03*
X152069800Y-53086000D03*
X72059800Y-53086000D03*
X72059800Y-103047800D03*
D12*
X80943200Y-73939400D03*
X76943200Y-73939400D03*
D13*
X101574600Y-83965800D03*
X101574600Y-79965800D03*
D12*
X93389700Y-60998100D03*
X97389700Y-60998100D03*
D14*
X137555600Y-77343000D03*
D15*
X140055600Y-77343000D03*
D14*
X145709000Y-77571600D03*
D15*
X148209000Y-77571600D03*
D12*
X91814400Y-101219000D03*
X87814400Y-101219000D03*
D13*
X75692000Y-93910400D03*
X75692000Y-97910400D03*
D16*
X153621740Y-89560920D03*
D17*
X153621740Y-79400920D03*
D16*
X153743660Y-65912480D03*
D17*
X153743660Y-76072480D03*
D18*
X145106000Y-52017200D03*
X128706000Y-51917200D03*
X145106000Y-92017200D03*
D19*
X128706000Y-91977200D03*
D20*
X128835200Y-99311600D03*
X128835200Y-96711600D03*
X128835200Y-85711600D03*
X128835200Y-88311600D03*
X147335200Y-88311600D03*
D21*
X147295200Y-99311600D03*
D20*
X147335200Y-85711600D03*
D21*
X147295200Y-96711600D03*
D20*
X129179600Y-59039600D03*
X129179600Y-66639600D03*
X146779600Y-69139600D03*
D21*
X146739600Y-56539600D03*
D22*
X92016600Y-83972400D03*
X92016600Y-82702400D03*
X92016600Y-81432400D03*
X92016600Y-80162400D03*
X92016600Y-78892400D03*
X92016600Y-77622400D03*
X92016600Y-76352400D03*
X92016600Y-75082400D03*
X97416600Y-75082400D03*
X97416600Y-76352400D03*
X97416600Y-77622400D03*
X97416600Y-78892400D03*
X97416600Y-80162400D03*
X97416600Y-81432400D03*
X97416600Y-82702400D03*
X97416600Y-83972400D03*
X82608400Y-79273400D03*
X82608400Y-80543400D03*
X82608400Y-81813400D03*
X82608400Y-83083400D03*
X82608400Y-84353400D03*
X82608400Y-85623400D03*
X82608400Y-86893400D03*
X82608400Y-88163400D03*
X77208400Y-88163400D03*
X77208400Y-86893400D03*
X77208400Y-85623400D03*
X77208400Y-84353400D03*
X77208400Y-83083400D03*
X77208400Y-81813400D03*
X77208400Y-80543400D03*
X77208400Y-79273400D03*
D23*
X81076800Y-70891400D03*
D24*
X78536800Y-70891400D03*
X81076800Y-68351400D03*
X78536800Y-68351400D03*
X81076800Y-65811400D03*
X78536800Y-65811400D03*
X81076800Y-63271400D03*
X78536800Y-63271400D03*
X81076800Y-60731400D03*
X78536800Y-60731400D03*
X81076800Y-58191400D03*
X78536800Y-58191400D03*
X81076800Y-55651400D03*
X78536800Y-55651400D03*
X81076800Y-53111400D03*
X78536800Y-53111400D03*
X81076800Y-50571400D03*
X78536800Y-50571400D03*
D21*
X106451400Y-105029000D03*
D20*
X103911400Y-105029000D03*
X101371400Y-105029000D03*
D21*
X94576900Y-105105200D03*
D20*
X92036900Y-105105200D03*
X89496900Y-105105200D03*
D25*
X98415800Y-68985800D03*
D21*
X113715800Y-51485800D03*
D20*
X111175800Y-51485800D03*
X108635800Y-51485800D03*
X106095800Y-51485800D03*
X103555800Y-51485800D03*
X101015800Y-51485800D03*
D25*
X116415800Y-68985800D03*
D26*
X153797000Y-94234000D03*
D27*
X153797000Y-96774000D03*
D21*
X117449600Y-105003600D03*
D20*
X114909600Y-105003600D03*
X112369600Y-105003600D03*
D26*
X153720800Y-59842400D03*
D27*
X153720800Y-62382400D03*
D22*
X96995000Y-99237800D03*
X96995000Y-97967800D03*
X96995000Y-96697800D03*
X96995000Y-95427800D03*
X96995000Y-94157800D03*
X96995000Y-92887800D03*
X96995000Y-91617800D03*
X96995000Y-90347800D03*
X102395000Y-90347800D03*
X102395000Y-91617800D03*
X102395000Y-92887800D03*
X102395000Y-94157800D03*
X102395000Y-95427800D03*
X102395000Y-96697800D03*
X102395000Y-97967800D03*
X102395000Y-99237800D03*
D18*
X134591800Y-103405000D03*
X134591800Y-100865000D03*
D19*
X134591800Y-98325000D03*
D18*
X140491800Y-98325000D03*
X140491800Y-100865000D03*
X140491800Y-103405000D03*
D23*
X81051400Y-98882200D03*
D24*
X78511400Y-98882200D03*
X81051400Y-96342200D03*
X78511400Y-96342200D03*
X81051400Y-93802200D03*
X78511400Y-93802200D03*
X81051400Y-91262200D03*
X78511400Y-91262200D03*
D28*
X72136000Y-95250000D03*
D29*
X72136000Y-92710000D03*
X72136000Y-90170000D03*
X72136000Y-87630000D03*
X72136000Y-85090000D03*
X72136000Y-82550000D03*
X72136000Y-80010000D03*
X72136000Y-77470000D03*
X72136000Y-74930000D03*
X72136000Y-72390000D03*
X72136000Y-69850000D03*
X72136000Y-67310000D03*
X72136000Y-64770000D03*
X72136000Y-62230000D03*
X72136000Y-59690000D03*
X87376000Y-59690000D03*
X87376000Y-62230000D03*
X87376000Y-64770000D03*
X87376000Y-67310000D03*
X87376000Y-69850000D03*
X87376000Y-72390000D03*
X87376000Y-74930000D03*
X87376000Y-77470000D03*
X87376000Y-80010000D03*
X87376000Y-82550000D03*
X87376000Y-85090000D03*
X87376000Y-87630000D03*
X87376000Y-90170000D03*
X87376000Y-92710000D03*
X87376000Y-95250000D03*
D28*
X107162600Y-96393000D03*
D29*
X107162600Y-93853000D03*
X107162600Y-91313000D03*
X107162600Y-88773000D03*
X107162600Y-86233000D03*
X107162600Y-83693000D03*
X107162600Y-81153000D03*
X107162600Y-78613000D03*
X107162600Y-76073000D03*
X107162600Y-73533000D03*
X107162600Y-70993000D03*
X107162600Y-68453000D03*
X107162600Y-65913000D03*
X107162600Y-63373000D03*
X107162600Y-60833000D03*
X122402600Y-60833000D03*
X122402600Y-63373000D03*
X122402600Y-65913000D03*
X122402600Y-68453000D03*
X122402600Y-70993000D03*
X122402600Y-73533000D03*
X122402600Y-76073000D03*
X122402600Y-78613000D03*
X122402600Y-81153000D03*
X122402600Y-83693000D03*
X122402600Y-86233000D03*
X122402600Y-88773000D03*
X122402600Y-91313000D03*
X122402600Y-93853000D03*
X122402600Y-96393000D03*
D12*
X88678000Y-50673000D03*
X92678000Y-50673000D03*
X88716100Y-54254400D03*
X92716100Y-54254400D03*
D14*
X129402200Y-77343000D03*
D15*
X131902200Y-77343000D03*
D30*
X103860600Y-79311500D03*
X94234000Y-96926400D03*
X106241600Y-100990400D03*
X104952800Y-81495900D03*
X115836700Y-80746600D03*
X102395000Y-91617800D03*
X90893900Y-85864700D03*
X95605600Y-90068400D03*
X85166200Y-99187000D03*
X83883500Y-95034100D03*
X89204800Y-86334600D03*
X75323700Y-98044000D03*
X75996800Y-91135200D03*
X116604800Y-87934800D03*
X116503200Y-93268800D03*
X101841300Y-73698100D03*
X97269300Y-73761600D03*
X102031800Y-62865000D03*
X76530200Y-52082700D03*
X76415900Y-58369200D03*
X76441300Y-66522600D03*
X91814400Y-101219000D03*
X89242900Y-96799400D03*
X90614500Y-91732100D03*
X102235000Y-88017600D03*
X111048800Y-87960200D03*
X93389700Y-60998100D03*
X99136200Y-86017100D03*
X102241600Y-100990400D03*
X148742400Y-94107000D03*
X90551000Y-81026000D03*
X97294700Y-87795100D03*
X97155000Y-86995000D03*
X97066100Y-86144100D03*
X97129600Y-85293200D03*
X98793300Y-81622900D03*
X117906800Y-86309200D03*
X98679000Y-82702400D03*
X100558600Y-99263200D03*
X95250000Y-95351600D03*
X95224600Y-94183200D03*
X95732600Y-93548200D03*
X95300800Y-92837000D03*
X105613200Y-79857600D03*
X105473500Y-94869000D03*
X90614500Y-92951300D03*
X81229200Y-85750400D03*
X84023200Y-87096600D03*
X77152500Y-86893400D03*
X77139800Y-84302600D03*
X100850700Y-98386900D03*
X83045300Y-78790800D03*
X88678000Y-50673000D03*
X88480900Y-54254400D03*
X83235800Y-65189100D03*
X81432400Y-75920600D03*
X74091800Y-83794600D03*
X84963000Y-80200500D03*
X74955400Y-81407000D03*
X79121000Y-84531200D03*
X78968600Y-86385400D03*
D31*
X101574600Y-79965800D02*
X103206300Y-79965800D01*
X103206300Y-79965800D02*
X103860600Y-79311500D01*
D32*
X90278200Y-98755200D02*
X87814400Y-101219000D01*
X92405200Y-98755200D02*
X90278200Y-98755200D01*
X94234000Y-96926400D02*
X92405200Y-98755200D01*
D31*
X106451400Y-101200200D02*
X106451400Y-105029000D01*
X106241600Y-100990400D02*
X106451400Y-101200200D01*
D32*
X103479600Y-80022700D02*
X101631500Y-80022700D01*
X104952800Y-81495900D02*
X103479600Y-80022700D01*
X101631500Y-80022700D02*
X101574600Y-79965800D01*
D31*
X121005600Y-68453000D02*
X122402600Y-68453000D01*
X118224300Y-71234300D02*
X121005600Y-68453000D01*
X118224300Y-78359000D02*
X118224300Y-71234300D01*
X115836700Y-80746600D02*
X118224300Y-78359000D01*
X92016600Y-84742000D02*
X92016600Y-83972400D01*
X90893900Y-85864700D02*
X92016600Y-84742000D01*
X95885000Y-90347800D02*
X96995000Y-90347800D01*
X95605600Y-90068400D02*
X95885000Y-90347800D01*
X82608400Y-88163400D02*
X82608400Y-88602800D01*
X85166200Y-99187000D02*
X87198200Y-101219000D01*
X83883500Y-89877900D02*
X83883500Y-95034100D01*
X82608400Y-88602800D02*
X83883500Y-89877900D01*
X87198200Y-101219000D02*
X87814400Y-101219000D01*
X90962500Y-85026500D02*
X92016600Y-83972400D01*
X90512900Y-85026500D02*
X90962500Y-85026500D01*
X89204800Y-86334600D02*
X90512900Y-85026500D01*
X78511400Y-91262200D02*
X76123800Y-91262200D01*
X75323700Y-98044000D02*
X75457300Y-97910400D01*
X76123800Y-91262200D02*
X75996800Y-91135200D01*
X75457300Y-97910400D02*
X75692000Y-97910400D01*
X87814400Y-101219000D02*
X87814400Y-101644700D01*
X101841300Y-73698100D02*
X101777800Y-73761600D01*
X101777800Y-73761600D02*
X97269300Y-73761600D01*
X97416600Y-73908900D02*
X97416600Y-75082400D01*
X97269300Y-73761600D02*
X97416600Y-73908900D01*
X101422200Y-60998100D02*
X97389700Y-60998100D01*
X101993700Y-61569600D02*
X101422200Y-60998100D01*
X101993700Y-62826900D02*
X101993700Y-61569600D01*
X102031800Y-62865000D02*
X101993700Y-62826900D01*
X72136000Y-62230000D02*
X72555100Y-62230000D01*
X72555100Y-62230000D02*
X76415900Y-58369200D01*
X76530200Y-52082700D02*
X78041500Y-50571400D01*
X78041500Y-50571400D02*
X78536800Y-50571400D01*
X78536800Y-70891400D02*
X76949300Y-70891400D01*
X76441300Y-70383400D02*
X76441300Y-66522600D01*
X76949300Y-70891400D02*
X76441300Y-70383400D01*
D32*
X76943200Y-73939400D02*
X76943200Y-72485000D01*
X76943200Y-72485000D02*
X78536800Y-70891400D01*
X78010000Y-71418200D02*
X78536800Y-70891400D01*
X89242900Y-93103700D02*
X89242900Y-96799400D01*
X90614500Y-91732100D02*
X89242900Y-93103700D01*
D31*
X129179600Y-66639600D02*
X129179600Y-70048400D01*
X131902200Y-72771000D02*
X131902200Y-77343000D01*
X129179600Y-70048400D02*
X131902200Y-72771000D01*
X110566200Y-87477600D02*
X111048800Y-87960200D01*
X102775000Y-87477600D02*
X110566200Y-87477600D01*
X102235000Y-88017600D02*
X102775000Y-87477600D01*
X99085400Y-83972400D02*
X99085400Y-85966300D01*
X99085400Y-85966300D02*
X99136200Y-86017100D01*
X97416600Y-83972400D02*
X99085400Y-83972400D01*
X99085400Y-83972400D02*
X101568000Y-83972400D01*
X101568000Y-83972400D02*
X101574600Y-83965800D01*
D32*
X101574600Y-83965800D02*
X97423200Y-83965800D01*
X97423200Y-83965800D02*
X97416600Y-83972400D01*
X102395000Y-99237800D02*
X102395000Y-100837000D01*
X102395000Y-100837000D02*
X102241600Y-100990400D01*
D31*
X137555600Y-77343000D02*
X137555600Y-76604500D01*
X147335200Y-83936800D02*
X147335200Y-85711600D01*
X143217900Y-79819500D02*
X147335200Y-83936800D01*
X143217900Y-76809600D02*
X143217900Y-79819500D01*
X141617700Y-75209400D02*
X143217900Y-76809600D01*
X138950700Y-75209400D02*
X141617700Y-75209400D01*
X137555600Y-76604500D02*
X138950700Y-75209400D01*
X140055600Y-77343000D02*
X140055600Y-80627600D01*
X140055600Y-80627600D02*
X128706000Y-91977200D01*
X148742400Y-94107000D02*
X150393400Y-92456000D01*
X150393400Y-92456000D02*
X150393400Y-86791800D01*
X150393400Y-86791800D02*
X153621740Y-83563460D01*
X153621740Y-83563460D02*
X153621740Y-79400920D01*
X140491800Y-100865000D02*
X144451400Y-100865000D01*
X155676600Y-78005420D02*
X153743660Y-76072480D01*
X155676600Y-83362800D02*
X155676600Y-78005420D01*
X151384000Y-87655400D02*
X155676600Y-83362800D01*
X151384000Y-98780600D02*
X151384000Y-87655400D01*
X148844000Y-101320600D02*
X151384000Y-98780600D01*
X144907000Y-101320600D02*
X148844000Y-101320600D01*
X144451400Y-100865000D02*
X144907000Y-101320600D01*
X114909600Y-105003600D02*
X114909600Y-103746300D01*
X125543500Y-102603300D02*
X128835200Y-99311600D01*
X116052600Y-102603300D02*
X125543500Y-102603300D01*
X114909600Y-103746300D02*
X116052600Y-102603300D01*
X128835200Y-99311600D02*
X128835200Y-96711600D01*
X112369600Y-105003600D02*
X112369600Y-104952800D01*
X112369600Y-104952800D02*
X115747800Y-101574600D01*
X115747800Y-101574600D02*
X124968000Y-101574600D01*
X124968000Y-101574600D02*
X126873000Y-99669600D01*
X126873000Y-99669600D02*
X126873000Y-90273800D01*
X126873000Y-90273800D02*
X128835200Y-88311600D01*
X128835200Y-88311600D02*
X128835200Y-85711600D01*
D32*
X92016600Y-81432400D02*
X90957400Y-81432400D01*
X90957400Y-81432400D02*
X90551000Y-81026000D01*
X99187000Y-89674700D02*
X99187000Y-89433400D01*
X99187000Y-94183200D02*
X99187000Y-90855800D01*
X99187000Y-90855800D02*
X99187000Y-89674700D01*
X97548700Y-87795100D02*
X97294700Y-87795100D01*
X99187000Y-89433400D02*
X97548700Y-87795100D01*
X102395000Y-96697800D02*
X101701600Y-96697800D01*
X101701600Y-96697800D02*
X99187000Y-94183200D01*
X99187000Y-94183200D02*
X99161600Y-94157800D01*
X97396300Y-86982300D02*
X97167700Y-86982300D01*
X97167700Y-86982300D02*
X97155000Y-86995000D01*
X99771200Y-90474800D02*
X99771200Y-93700600D01*
X101498400Y-95427800D02*
X99771200Y-93700600D01*
X101498400Y-95427800D02*
X102395000Y-95427800D01*
X99771200Y-89357200D02*
X99771200Y-90474800D01*
X97383600Y-86969600D02*
X97396300Y-86982300D01*
X97396300Y-86982300D02*
X99771200Y-89357200D01*
X97231200Y-86156800D02*
X97078800Y-86156800D01*
X97078800Y-86156800D02*
X97066100Y-86144100D01*
X97205800Y-86131400D02*
X97231200Y-86156800D01*
X97231200Y-86156800D02*
X100253800Y-89179400D01*
X100253800Y-89179400D02*
X100253800Y-90043000D01*
X101447600Y-94157800D02*
X100253800Y-92964000D01*
X102395000Y-94157800D02*
X101447600Y-94157800D01*
X100253800Y-90043000D02*
X100253800Y-92964000D01*
X97129600Y-85293200D02*
X100736400Y-88900000D01*
X100736400Y-88900000D02*
X100736400Y-89306400D01*
X101396800Y-92887800D02*
X100736400Y-92227400D01*
X102395000Y-92887800D02*
X101396800Y-92887800D01*
X100736400Y-89306400D02*
X100736400Y-92227400D01*
X99098100Y-81635600D02*
X98806000Y-81635600D01*
X121119900Y-91313000D02*
X119532400Y-89725500D01*
X119532400Y-89725500D02*
X119532400Y-86931500D01*
X119532400Y-86931500D02*
X115023900Y-82423000D01*
X115023900Y-82423000D02*
X104013000Y-82423000D01*
X104013000Y-82423000D02*
X103225600Y-81635600D01*
X103225600Y-81635600D02*
X99098100Y-81635600D01*
X122402600Y-91313000D02*
X121119900Y-91313000D01*
X98806000Y-81635600D02*
X98793300Y-81622900D01*
X105905300Y-84848700D02*
X105740200Y-84848700D01*
X116446300Y-84848700D02*
X117906800Y-86309200D01*
X105905300Y-84848700D02*
X116446300Y-84848700D01*
X105740200Y-84848700D02*
X102997000Y-82105500D01*
X98679000Y-82702400D02*
X99294102Y-82702400D01*
X99294102Y-82702400D02*
X99891002Y-82105500D01*
X99891002Y-82105500D02*
X102997000Y-82105500D01*
X102997000Y-82105500D02*
X103009700Y-82105500D01*
X97416600Y-82702400D02*
X98679000Y-82702400D01*
X96995000Y-99237800D02*
X100533200Y-99237800D01*
X100533200Y-99237800D02*
X100558600Y-99263200D01*
X92016600Y-80162400D02*
X92710000Y-80162400D01*
X92710000Y-80162400D02*
X93370400Y-80822800D01*
X93446600Y-95351600D02*
X95250000Y-95351600D01*
X91846400Y-93751400D02*
X93446600Y-95351600D01*
X91846400Y-86258400D02*
X91846400Y-93751400D01*
X93370400Y-84734400D02*
X91846400Y-86258400D01*
X93370400Y-80822800D02*
X93370400Y-84734400D01*
X92118200Y-80060800D02*
X92016600Y-80162400D01*
X92016600Y-78892400D02*
X92989400Y-78892400D01*
X93395800Y-94183200D02*
X95224600Y-94183200D01*
X92304299Y-93091699D02*
X93395800Y-94183200D01*
X92304299Y-86511701D02*
X92304299Y-93091699D01*
X93903800Y-84912200D02*
X92304299Y-86511701D01*
X93903800Y-79806800D02*
X93903800Y-84912200D01*
X92989400Y-78892400D02*
X93903800Y-79806800D01*
X92016600Y-77622400D02*
X92887800Y-77622400D01*
X93649800Y-93548200D02*
X95732600Y-93548200D01*
X92786200Y-92684600D02*
X93649800Y-93548200D01*
X92786200Y-86709101D02*
X92786200Y-92684600D01*
X94361000Y-85134301D02*
X92786200Y-86709101D01*
X94361000Y-79095600D02*
X94361000Y-85134301D01*
X92887800Y-77622400D02*
X94361000Y-79095600D01*
X92016600Y-76352400D02*
X92633800Y-76352400D01*
X92633800Y-76352400D02*
X94843600Y-78562200D01*
X94843600Y-78562200D02*
X94843600Y-85369400D01*
X94843600Y-85369400D02*
X93243400Y-86969600D01*
X93243400Y-86969600D02*
X93243400Y-92125800D01*
X93243400Y-92125800D02*
X93954600Y-92837000D01*
X93954600Y-92837000D02*
X95300800Y-92837000D01*
X93776800Y-87223600D02*
X93776800Y-87147400D01*
X96621600Y-76352400D02*
X97416600Y-76352400D01*
X95758000Y-77216000D02*
X96621600Y-76352400D01*
X95300800Y-77673200D02*
X95758000Y-77216000D01*
X95300800Y-85623400D02*
X95300800Y-77673200D01*
X93776800Y-87147400D02*
X95300800Y-85623400D01*
X96995000Y-92887800D02*
X96316800Y-92887800D01*
X96316800Y-92887800D02*
X95605600Y-92176600D01*
X95605600Y-92176600D02*
X94157800Y-92176600D01*
X94157800Y-92176600D02*
X93776800Y-91795600D01*
X93776800Y-91795600D02*
X93776800Y-87223600D01*
X93776800Y-87223600D02*
X93776800Y-87198200D01*
X96995000Y-94157800D02*
X97777300Y-94157800D01*
X95834200Y-88303100D02*
X95834200Y-85725000D01*
X96812100Y-89281000D02*
X95834200Y-88303100D01*
X97612200Y-89281000D02*
X96812100Y-89281000D01*
X98145600Y-89814400D02*
X97612200Y-89281000D01*
X98145600Y-93789500D02*
X98145600Y-89814400D01*
X97777300Y-94157800D02*
X98145600Y-93789500D01*
X95834200Y-85725000D02*
X95834200Y-85750400D01*
X97416600Y-77622400D02*
X96520000Y-77622400D01*
X95834200Y-78308200D02*
X95834200Y-85725000D01*
X96520000Y-77622400D02*
X95834200Y-78308200D01*
X96995000Y-95427800D02*
X97853500Y-95427800D01*
X96608900Y-78892400D02*
X97416600Y-78892400D01*
X96304100Y-79197200D02*
X96608900Y-78892400D01*
X96304100Y-88049100D02*
X96304100Y-79197200D01*
X97053400Y-88798400D02*
X96304100Y-88049100D01*
X97815400Y-88798400D02*
X97053400Y-88798400D01*
X98640900Y-89623900D02*
X97815400Y-88798400D01*
X98640900Y-94640400D02*
X98640900Y-89623900D01*
X97853500Y-95427800D02*
X98640900Y-94640400D01*
X96995000Y-96697800D02*
X100190300Y-96697800D01*
X98513900Y-80162400D02*
X97416600Y-80162400D01*
X100609400Y-78066900D02*
X98513900Y-80162400D01*
X103822500Y-78066900D02*
X100609400Y-78066900D01*
X105613200Y-79857600D02*
X103822500Y-78066900D01*
X105473500Y-95923100D02*
X105473500Y-94869000D01*
X104063800Y-97332800D02*
X105473500Y-95923100D01*
X100825300Y-97332800D02*
X104063800Y-97332800D01*
X100190300Y-96697800D02*
X100825300Y-97332800D01*
X82608400Y-80543400D02*
X81521300Y-80543400D01*
X77495400Y-63271400D02*
X78536800Y-63271400D01*
X74993500Y-65773300D02*
X77495400Y-63271400D01*
X74993500Y-75615800D02*
X74993500Y-65773300D01*
X76631800Y-77254100D02*
X74993500Y-75615800D01*
X78232000Y-77254100D02*
X76631800Y-77254100D01*
X81521300Y-80543400D02*
X78232000Y-77254100D01*
X80492600Y-84251800D02*
X80492600Y-88163400D01*
X80492600Y-84251800D02*
X81661000Y-83083400D01*
X82608400Y-83083400D02*
X81661000Y-83083400D01*
X82905600Y-92633800D02*
X81737200Y-93802200D01*
X82905600Y-90576400D02*
X82905600Y-92633800D01*
X80492600Y-88163400D02*
X82905600Y-90576400D01*
X81737200Y-93802200D02*
X81051400Y-93802200D01*
X81051400Y-93802200D02*
X81051400Y-93573600D01*
X81965800Y-83083400D02*
X82608400Y-83083400D01*
X88493600Y-97663000D02*
X90081100Y-97663000D01*
X90614500Y-97129600D02*
X90614500Y-92951300D01*
X90081100Y-97663000D02*
X90614500Y-97129600D01*
X82608400Y-84353400D02*
X83591400Y-84353400D01*
X85242400Y-94830900D02*
X82410300Y-97663000D01*
X85242400Y-86004400D02*
X85242400Y-94830900D01*
X83591400Y-84353400D02*
X85242400Y-86004400D01*
X82804000Y-97663000D02*
X88493600Y-97663000D01*
X88493600Y-97663000D02*
X88519000Y-97663000D01*
X72136000Y-95250000D02*
X75361800Y-95250000D01*
X77774800Y-97663000D02*
X82410300Y-97663000D01*
X82410300Y-97663000D02*
X82804000Y-97663000D01*
X75361800Y-95250000D02*
X77774800Y-97663000D01*
X82804000Y-97663000D02*
X82829400Y-97663000D01*
X81229200Y-85750400D02*
X81356200Y-85623400D01*
X81356200Y-85623400D02*
X82608400Y-85623400D01*
X83820000Y-86893400D02*
X82608400Y-86893400D01*
X84023200Y-87096600D02*
X83820000Y-86893400D01*
X77152500Y-86893400D02*
X77208400Y-86893400D01*
X77139800Y-84302600D02*
X77190600Y-84353400D01*
X77190600Y-84353400D02*
X77208400Y-84353400D01*
X81051400Y-96342200D02*
X81051400Y-96113600D01*
X81051400Y-96113600D02*
X79781400Y-94843600D01*
X78587600Y-80543400D02*
X77208400Y-80543400D01*
X79984600Y-81940400D02*
X78587600Y-80543400D01*
X79984600Y-88315800D02*
X79984600Y-81940400D01*
X82447701Y-90778901D02*
X79984600Y-88315800D01*
X82447701Y-91669299D02*
X82447701Y-90778901D01*
X81610200Y-92506800D02*
X82447701Y-91669299D01*
X80492600Y-92506800D02*
X81610200Y-92506800D01*
X79781400Y-93218000D02*
X80492600Y-92506800D01*
X79781400Y-94843600D02*
X79781400Y-93218000D01*
X82842100Y-59474100D02*
X83134200Y-59474100D01*
X83731100Y-77139800D02*
X86601300Y-80010000D01*
X83731100Y-73482200D02*
X83731100Y-77139800D01*
X84467700Y-72745600D02*
X83731100Y-73482200D01*
X84467700Y-60807600D02*
X84467700Y-72745600D01*
X83134200Y-59474100D02*
X84467700Y-60807600D01*
X86601300Y-80010000D02*
X87376000Y-80010000D01*
X87376000Y-80010000D02*
X87210900Y-80010000D01*
X82931000Y-59474100D02*
X82842100Y-59474100D01*
X82842100Y-59474100D02*
X79794100Y-59474100D01*
X79794100Y-59474100D02*
X78536800Y-60731400D01*
X78536800Y-60731400D02*
X78943200Y-60731400D01*
X81076800Y-58191400D02*
X82765900Y-58191400D01*
X84759800Y-77470000D02*
X87376000Y-77470000D01*
X84201000Y-76911200D02*
X84759800Y-77470000D01*
X84201000Y-73703602D02*
X84201000Y-76911200D01*
X84975700Y-72928902D02*
X84201000Y-73703602D01*
X84975700Y-60401200D02*
X84975700Y-72928902D01*
X82765900Y-58191400D02*
X84975700Y-60401200D01*
X87363300Y-77457300D02*
X87376000Y-77470000D01*
X87376000Y-77470000D02*
X87376000Y-77177900D01*
X81076800Y-58191400D02*
X81686400Y-58191400D01*
X87376000Y-74930000D02*
X86741000Y-74930000D01*
X86741000Y-74930000D02*
X85610700Y-73799700D01*
X80556100Y-56908700D02*
X79273400Y-58191400D01*
X82664300Y-56908700D02*
X80556100Y-56908700D01*
X85610700Y-59855100D02*
X82664300Y-56908700D01*
X85610700Y-73799700D02*
X85610700Y-59855100D01*
X79273400Y-58191400D02*
X78536800Y-58191400D01*
X78536800Y-58191400D02*
X79222600Y-58191400D01*
X86385400Y-74930000D02*
X87376000Y-74930000D01*
X72136000Y-80010000D02*
X71450200Y-80010000D01*
X71450200Y-80010000D02*
X70358000Y-78917800D01*
X70358000Y-78917800D02*
X70358000Y-59207400D01*
X70358000Y-59207400D02*
X71297800Y-58267600D01*
X71297800Y-58267600D02*
X74752200Y-58267600D01*
X74752200Y-58267600D02*
X76174600Y-56845200D01*
X76174600Y-56845200D02*
X79883000Y-56845200D01*
X79883000Y-56845200D02*
X81076800Y-55651400D01*
X72136000Y-82550000D02*
X71501000Y-82550000D01*
X71501000Y-82550000D02*
X69900800Y-80949800D01*
X69900800Y-80949800D02*
X69900800Y-58953400D01*
X69900800Y-58953400D02*
X71145400Y-57708800D01*
X71145400Y-57708800D02*
X74549000Y-57708800D01*
X74549000Y-57708800D02*
X76606400Y-55651400D01*
X76606400Y-55651400D02*
X78536800Y-55651400D01*
X72136000Y-85090000D02*
X71526400Y-85090000D01*
X71526400Y-85090000D02*
X69418200Y-82981800D01*
X69418200Y-82981800D02*
X69418200Y-58724800D01*
X69418200Y-58724800D02*
X70967600Y-57175400D01*
X70967600Y-57175400D02*
X74396600Y-57175400D01*
X74396600Y-57175400D02*
X77216000Y-54356000D01*
X77216000Y-54356000D02*
X79832200Y-54356000D01*
X79832200Y-54356000D02*
X81076800Y-53111400D01*
X72136000Y-87630000D02*
X71374000Y-87630000D01*
X71374000Y-87630000D02*
X68935600Y-85191600D01*
X68935600Y-85191600D02*
X68935600Y-58496200D01*
X68935600Y-58496200D02*
X70789800Y-56642000D01*
X70789800Y-56642000D02*
X74218800Y-56642000D01*
X74218800Y-56642000D02*
X77749400Y-53111400D01*
X77749400Y-53111400D02*
X78536800Y-53111400D01*
X113715800Y-51485800D02*
X117348000Y-51485800D01*
X123875800Y-81153000D02*
X122402600Y-81153000D01*
X125425200Y-79603600D02*
X123875800Y-81153000D01*
X125425200Y-59563000D02*
X125425200Y-79603600D01*
X117348000Y-51485800D02*
X125425200Y-59563000D01*
X111175800Y-51485800D02*
X111175800Y-52349400D01*
X111175800Y-52349400D02*
X113461800Y-54635400D01*
X113461800Y-54635400D02*
X119253000Y-54635400D01*
X119253000Y-54635400D02*
X124663200Y-60045600D01*
X124663200Y-60045600D02*
X124663200Y-77470000D01*
X124663200Y-77470000D02*
X123520200Y-78613000D01*
X123520200Y-78613000D02*
X122402600Y-78613000D01*
X100850700Y-98386900D02*
X100431600Y-97967800D01*
X100431600Y-97967800D02*
X96995000Y-97967800D01*
X102395000Y-90347800D02*
X103200200Y-90347800D01*
X112598200Y-96393000D02*
X122402600Y-96393000D01*
X108826300Y-92621100D02*
X112598200Y-96393000D01*
X105473500Y-92621100D02*
X108826300Y-92621100D01*
X103200200Y-90347800D02*
X105473500Y-92621100D01*
X102395000Y-97967800D02*
X123240800Y-97967800D01*
X123571000Y-88773000D02*
X122402600Y-88773000D01*
X124307600Y-89509600D02*
X123571000Y-88773000D01*
X124307600Y-96901000D02*
X124307600Y-89509600D01*
X123240800Y-97967800D02*
X124307600Y-96901000D01*
X88214200Y-82550000D02*
X87376000Y-82550000D01*
D31*
X82608400Y-79273400D02*
X82608400Y-79227700D01*
X82608400Y-79227700D02*
X83045300Y-78790800D01*
X88678000Y-54057300D02*
X88678000Y-50673000D01*
X80943200Y-73939400D02*
X80943200Y-71025000D01*
X80943200Y-71025000D02*
X81076800Y-70891400D01*
X80943200Y-73939400D02*
X81394300Y-73939400D01*
X81394300Y-73939400D02*
X83235800Y-72097900D01*
X88480900Y-54254400D02*
X88678000Y-54057300D01*
X83235800Y-72097900D02*
X83235800Y-65189100D01*
X80943200Y-75431400D02*
X80943200Y-73939400D01*
X81432400Y-75920600D02*
X80943200Y-75431400D01*
X72136000Y-92710000D02*
X72720200Y-92710000D01*
X72720200Y-92710000D02*
X74091800Y-91338400D01*
X74091800Y-91338400D02*
X74091800Y-83794600D01*
X72136000Y-92710000D02*
X73177400Y-92710000D01*
X75692000Y-93910400D02*
X78403200Y-93910400D01*
X78403200Y-93910400D02*
X78511400Y-93802200D01*
X78511400Y-93802200D02*
X78511400Y-93472000D01*
X78511400Y-93472000D02*
X80721200Y-91262200D01*
X80721200Y-91262200D02*
X81051400Y-91262200D01*
X72136000Y-92710000D02*
X73025000Y-92710000D01*
X73025000Y-92710000D02*
X74225400Y-93910400D01*
X74225400Y-93910400D02*
X75692000Y-93910400D01*
D32*
X80943200Y-71025000D02*
X81076800Y-70891400D01*
X82608400Y-79196200D02*
X82608400Y-79273400D01*
X71780400Y-77470000D02*
X72136000Y-77470000D01*
X82608400Y-81813400D02*
X83350100Y-81813400D01*
X83350100Y-81813400D02*
X84963000Y-80200500D01*
X75361800Y-81813400D02*
X77208400Y-81813400D01*
X74955400Y-81407000D02*
X75361800Y-81813400D01*
X77208400Y-85623400D02*
X78028800Y-85623400D01*
X79121000Y-84531200D02*
X78028800Y-85623400D01*
X78968600Y-86385400D02*
X78892400Y-86461600D01*
X78892400Y-86461600D02*
X78892400Y-87579200D01*
X78892400Y-87579200D02*
X78308200Y-88163400D01*
X78308200Y-88163400D02*
X77208400Y-88163400D01*
X82905600Y-63271400D02*
X83185000Y-63271400D01*
X81076800Y-63271400D02*
X82905600Y-63271400D01*
X83235800Y-77508100D02*
X85725000Y-79997300D01*
X83235800Y-73329800D02*
X83235800Y-77508100D01*
X83947000Y-72618600D02*
X83235800Y-73329800D01*
X83947000Y-64033400D02*
X83947000Y-72618600D01*
X83185000Y-63271400D02*
X83947000Y-64033400D01*
X85725000Y-79997300D02*
X85725000Y-94665800D01*
X86309200Y-95250000D02*
X85725000Y-94665800D01*
X86309200Y-95250000D02*
X87376000Y-95250000D01*
X81076800Y-63271400D02*
X81102200Y-63271400D01*
D31*
X145709000Y-77571600D02*
X145709000Y-72899900D01*
X146779600Y-71829300D02*
X146779600Y-69139600D01*
X145709000Y-72899900D02*
X146779600Y-71829300D01*
X148209000Y-77571600D02*
X148209000Y-81610200D01*
X141933600Y-98325000D02*
X140491800Y-98325000D01*
X149199600Y-91059000D02*
X141933600Y-98325000D01*
X149199600Y-82600800D02*
X149199600Y-91059000D01*
X148209000Y-81610200D02*
X149199600Y-82600800D01*
X148209000Y-77571600D02*
X148209000Y-72694800D01*
X149656800Y-59456800D02*
X146739600Y-56539600D01*
X149656800Y-71247000D02*
X149656800Y-59456800D01*
X148209000Y-72694800D02*
X149656800Y-71247000D01*
D33*
G36*
X156389000Y-77509252D02*
X156302390Y-77379630D01*
X156302387Y-77379628D01*
X155240730Y-76317970D01*
X155240730Y-75222850D01*
X155196452Y-74987533D01*
X155057380Y-74771409D01*
X154845180Y-74626419D01*
X154593290Y-74575410D01*
X152894030Y-74575410D01*
X152658713Y-74619688D01*
X152442589Y-74758760D01*
X152297599Y-74970960D01*
X152246590Y-75222850D01*
X152246590Y-76922110D01*
X152290868Y-77157427D01*
X152429940Y-77373551D01*
X152642140Y-77518541D01*
X152894030Y-77569550D01*
X153989150Y-77569550D01*
X154323451Y-77903850D01*
X152772110Y-77903850D01*
X152536793Y-77948128D01*
X152320669Y-78087200D01*
X152175679Y-78299400D01*
X152124670Y-78551290D01*
X152124670Y-80250550D01*
X152168948Y-80485867D01*
X152308020Y-80701991D01*
X152520220Y-80846981D01*
X152736740Y-80890827D01*
X152736740Y-83196881D01*
X150084600Y-85849020D01*
X150084600Y-82600805D01*
X150084601Y-82600800D01*
X150017233Y-82262126D01*
X150017233Y-82262125D01*
X149825390Y-81975010D01*
X149825387Y-81975008D01*
X149094000Y-81243620D01*
X149094000Y-78824822D01*
X149094317Y-78824762D01*
X149310441Y-78685690D01*
X149455431Y-78473490D01*
X149506440Y-78221600D01*
X149506440Y-76921600D01*
X149462162Y-76686283D01*
X149323090Y-76470159D01*
X149110890Y-76325169D01*
X149094000Y-76321749D01*
X149094000Y-73061380D01*
X150282587Y-71872792D01*
X150282590Y-71872790D01*
X150474433Y-71585675D01*
X150541800Y-71247000D01*
X150541800Y-66206496D01*
X152258772Y-66206496D01*
X152484318Y-66752357D01*
X152901586Y-67170354D01*
X153447053Y-67396852D01*
X154037676Y-67397368D01*
X154583537Y-67171822D01*
X155001534Y-66754554D01*
X155228032Y-66209087D01*
X155228548Y-65618464D01*
X155003002Y-65072603D01*
X154585734Y-64654606D01*
X154040267Y-64428108D01*
X153449644Y-64427592D01*
X152903783Y-64653138D01*
X152485786Y-65070406D01*
X152259288Y-65615873D01*
X152258772Y-66206496D01*
X150541800Y-66206496D01*
X150541800Y-62382400D01*
X152037455Y-62382400D01*
X152163130Y-63014210D01*
X152521022Y-63549833D01*
X153056645Y-63907725D01*
X153688455Y-64033400D01*
X153753145Y-64033400D01*
X154384955Y-63907725D01*
X154920578Y-63549833D01*
X155278470Y-63014210D01*
X155404145Y-62382400D01*
X155278470Y-61750590D01*
X155051301Y-61410608D01*
X155188241Y-61322490D01*
X155333231Y-61110290D01*
X155384240Y-60858400D01*
X155384240Y-58826400D01*
X155339962Y-58591083D01*
X155200890Y-58374959D01*
X154988690Y-58229969D01*
X154736800Y-58178960D01*
X152704800Y-58178960D01*
X152469483Y-58223238D01*
X152253359Y-58362310D01*
X152108369Y-58574510D01*
X152057360Y-58826400D01*
X152057360Y-60858400D01*
X152101638Y-61093717D01*
X152240710Y-61309841D01*
X152389637Y-61411598D01*
X152163130Y-61750590D01*
X152037455Y-62382400D01*
X150541800Y-62382400D01*
X150541800Y-59456805D01*
X150541801Y-59456800D01*
X150484075Y-59166600D01*
X150474433Y-59118125D01*
X150282590Y-58831010D01*
X150282587Y-58831008D01*
X148250640Y-56799060D01*
X148250640Y-55523600D01*
X148206362Y-55288283D01*
X148067290Y-55072159D01*
X147855090Y-54927169D01*
X147603200Y-54876160D01*
X145876000Y-54876160D01*
X145640683Y-54920438D01*
X145424559Y-55059510D01*
X145279569Y-55271710D01*
X145228560Y-55523600D01*
X145228560Y-57555600D01*
X145272838Y-57790917D01*
X145411910Y-58007041D01*
X145624110Y-58152031D01*
X145876000Y-58203040D01*
X147151460Y-58203040D01*
X148771800Y-59823379D01*
X148771800Y-70880421D01*
X147625289Y-72026931D01*
X147664601Y-71829300D01*
X147664600Y-71829295D01*
X147664600Y-70500726D01*
X147839270Y-70384015D01*
X148164126Y-69897834D01*
X148278200Y-69324345D01*
X148278200Y-68954855D01*
X148164126Y-68381366D01*
X147839270Y-67895185D01*
X147353089Y-67570329D01*
X146779600Y-67456255D01*
X146206111Y-67570329D01*
X145719930Y-67895185D01*
X145395074Y-68381366D01*
X145281000Y-68954855D01*
X145281000Y-69324345D01*
X145395074Y-69897834D01*
X145719930Y-70384015D01*
X145894600Y-70500726D01*
X145894600Y-71462721D01*
X145083210Y-72274110D01*
X144891367Y-72561225D01*
X144891367Y-72561226D01*
X144823999Y-72899900D01*
X144824000Y-72899905D01*
X144824000Y-76639376D01*
X144620265Y-76842755D01*
X144424223Y-77314876D01*
X144423777Y-77826081D01*
X144618995Y-78298543D01*
X144980155Y-78660335D01*
X145452276Y-78856377D01*
X145963481Y-78856823D01*
X146435943Y-78661605D01*
X146797735Y-78300445D01*
X146911560Y-78026324D01*
X146911560Y-78221600D01*
X146955838Y-78456917D01*
X147094910Y-78673041D01*
X147307110Y-78818031D01*
X147324000Y-78821451D01*
X147324000Y-81610195D01*
X147323999Y-81610200D01*
X147361602Y-81799238D01*
X147391367Y-81948875D01*
X147554084Y-82192400D01*
X147583210Y-82235990D01*
X148314600Y-82967379D01*
X148314600Y-84413550D01*
X148220200Y-84350474D01*
X148220200Y-83936805D01*
X148220201Y-83936800D01*
X148152834Y-83598126D01*
X148058516Y-83456969D01*
X147960990Y-83311010D01*
X147960987Y-83311008D01*
X144102900Y-79452920D01*
X144102900Y-76809605D01*
X144102901Y-76809600D01*
X144035534Y-76470926D01*
X143956338Y-76352400D01*
X143843690Y-76183810D01*
X143843687Y-76183808D01*
X142243490Y-74583610D01*
X142176410Y-74538789D01*
X141956375Y-74391767D01*
X141900184Y-74380590D01*
X141617700Y-74324399D01*
X141617695Y-74324400D01*
X138950700Y-74324400D01*
X138612025Y-74391767D01*
X138324910Y-74583610D01*
X138324908Y-74583613D01*
X136929810Y-75978710D01*
X136737967Y-76265825D01*
X136737967Y-76265826D01*
X136718682Y-76362778D01*
X136466865Y-76614155D01*
X136270823Y-77086276D01*
X136270377Y-77597481D01*
X136465595Y-78069943D01*
X136826755Y-78431735D01*
X137298876Y-78627777D01*
X137810081Y-78628223D01*
X138282543Y-78433005D01*
X138644335Y-78071845D01*
X138758160Y-77797724D01*
X138758160Y-77993000D01*
X138802438Y-78228317D01*
X138941510Y-78444441D01*
X139153710Y-78589431D01*
X139170600Y-78592851D01*
X139170600Y-80261021D01*
X129933663Y-89497957D01*
X130219726Y-89069834D01*
X130333800Y-88496345D01*
X130333800Y-88126855D01*
X130219726Y-87553366D01*
X129894870Y-87067185D01*
X129811681Y-87011600D01*
X129894870Y-86956015D01*
X130219726Y-86469834D01*
X130333800Y-85896345D01*
X130333800Y-85526855D01*
X130219726Y-84953366D01*
X129894870Y-84467185D01*
X129408689Y-84142329D01*
X128835200Y-84028255D01*
X128261711Y-84142329D01*
X127775530Y-84467185D01*
X127450674Y-84953366D01*
X127336600Y-85526855D01*
X127336600Y-85896345D01*
X127450674Y-86469834D01*
X127775530Y-86956015D01*
X127858719Y-87011600D01*
X127775530Y-87067185D01*
X127450674Y-87553366D01*
X127336600Y-88126855D01*
X127336600Y-88496345D01*
X127346932Y-88548288D01*
X126247210Y-89648010D01*
X126055367Y-89935125D01*
X126055367Y-89935126D01*
X125987999Y-90273800D01*
X125988000Y-90273805D01*
X125988000Y-99303021D01*
X124601420Y-100689600D01*
X115747805Y-100689600D01*
X115747800Y-100689599D01*
X115409125Y-100756967D01*
X115122010Y-100948810D01*
X115122008Y-100948813D01*
X112687359Y-103383461D01*
X112369600Y-103320255D01*
X111796111Y-103434329D01*
X111309930Y-103759185D01*
X110985074Y-104245366D01*
X110871000Y-104818855D01*
X110871000Y-105188345D01*
X110985074Y-105761834D01*
X111309930Y-106248015D01*
X111796111Y-106572871D01*
X112369600Y-106686945D01*
X112943089Y-106572871D01*
X113429270Y-106248015D01*
X113639600Y-105933234D01*
X113849930Y-106248015D01*
X114336111Y-106572871D01*
X114909600Y-106686945D01*
X115483089Y-106572871D01*
X115969270Y-106248015D01*
X115978843Y-106233687D01*
X115982838Y-106254917D01*
X116121910Y-106471041D01*
X116334110Y-106616031D01*
X116586000Y-106667040D01*
X118313200Y-106667040D01*
X118548517Y-106622762D01*
X118764641Y-106483690D01*
X118909631Y-106271490D01*
X118960640Y-106019600D01*
X118960640Y-103987600D01*
X118916362Y-103752283D01*
X118777290Y-103536159D01*
X118707246Y-103488300D01*
X125543495Y-103488300D01*
X125543500Y-103488301D01*
X125825984Y-103432110D01*
X125882175Y-103420933D01*
X126169290Y-103229090D01*
X128475069Y-100923310D01*
X128835200Y-100994945D01*
X129408689Y-100880871D01*
X129432441Y-100865000D01*
X132908455Y-100865000D01*
X133022529Y-101438489D01*
X133347385Y-101924670D01*
X133662166Y-102135000D01*
X133347385Y-102345330D01*
X133022529Y-102831511D01*
X132908455Y-103405000D01*
X133022529Y-103978489D01*
X133347385Y-104464670D01*
X133833566Y-104789526D01*
X134407055Y-104903600D01*
X134776545Y-104903600D01*
X135350034Y-104789526D01*
X135836215Y-104464670D01*
X136161071Y-103978489D01*
X136275145Y-103405000D01*
X136161071Y-102831511D01*
X135836215Y-102345330D01*
X135521434Y-102135000D01*
X135836215Y-101924670D01*
X136161071Y-101438489D01*
X136275145Y-100865000D01*
X136161071Y-100291511D01*
X135836215Y-99805330D01*
X135821887Y-99795757D01*
X135843117Y-99791762D01*
X136059241Y-99652690D01*
X136204231Y-99440490D01*
X136255240Y-99188600D01*
X136255240Y-97461400D01*
X136210962Y-97226083D01*
X136071890Y-97009959D01*
X135859690Y-96864969D01*
X135607800Y-96813960D01*
X133575800Y-96813960D01*
X133340483Y-96858238D01*
X133124359Y-96997310D01*
X132979369Y-97209510D01*
X132928360Y-97461400D01*
X132928360Y-99188600D01*
X132972638Y-99423917D01*
X133111710Y-99640041D01*
X133323910Y-99785031D01*
X133365239Y-99793400D01*
X133347385Y-99805330D01*
X133022529Y-100291511D01*
X132908455Y-100865000D01*
X129432441Y-100865000D01*
X129894870Y-100556015D01*
X130219726Y-100069834D01*
X130333800Y-99496345D01*
X130333800Y-99126855D01*
X130219726Y-98553366D01*
X129894870Y-98067185D01*
X129811681Y-98011600D01*
X129894870Y-97956015D01*
X130219726Y-97469834D01*
X130333800Y-96896345D01*
X130333800Y-96526855D01*
X130219726Y-95953366D01*
X129894870Y-95467185D01*
X129408689Y-95142329D01*
X128835200Y-95028255D01*
X128261711Y-95142329D01*
X127775530Y-95467185D01*
X127758000Y-95493420D01*
X127758000Y-93488240D01*
X129722000Y-93488240D01*
X129957317Y-93443962D01*
X130173441Y-93304890D01*
X130318431Y-93092690D01*
X130369440Y-92840800D01*
X130369440Y-91565340D01*
X140681387Y-81253392D01*
X140681390Y-81253390D01*
X140873233Y-80966275D01*
X140891056Y-80876673D01*
X140940601Y-80627600D01*
X140940600Y-80627595D01*
X140940600Y-78596222D01*
X140940917Y-78596162D01*
X141157041Y-78457090D01*
X141302031Y-78244890D01*
X141353040Y-77993000D01*
X141353040Y-76693000D01*
X141308762Y-76457683D01*
X141169690Y-76241559D01*
X140957490Y-76096569D01*
X140946779Y-76094400D01*
X141251120Y-76094400D01*
X142332900Y-77176179D01*
X142332900Y-79819495D01*
X142332899Y-79819500D01*
X142386873Y-80090838D01*
X142400267Y-80158175D01*
X142557171Y-80393000D01*
X142592110Y-80445290D01*
X146450200Y-84303379D01*
X146450200Y-84350474D01*
X146275530Y-84467185D01*
X145950674Y-84953366D01*
X145836600Y-85526855D01*
X145836600Y-85896345D01*
X145950674Y-86469834D01*
X146275530Y-86956015D01*
X146358719Y-87011600D01*
X146275530Y-87067185D01*
X145950674Y-87553366D01*
X145836600Y-88126855D01*
X145836600Y-88496345D01*
X145950674Y-89069834D01*
X146275530Y-89556015D01*
X146761711Y-89880871D01*
X147335200Y-89994945D01*
X147908689Y-89880871D01*
X148314600Y-89609650D01*
X148314600Y-90692421D01*
X146739566Y-92267454D01*
X146789345Y-92017200D01*
X146675271Y-91443711D01*
X146350415Y-90957530D01*
X145864234Y-90632674D01*
X145290745Y-90518600D01*
X144921255Y-90518600D01*
X144347766Y-90632674D01*
X143861585Y-90957530D01*
X143536729Y-91443711D01*
X143422655Y-92017200D01*
X143536729Y-92590689D01*
X143861585Y-93076870D01*
X144347766Y-93401726D01*
X144921255Y-93515800D01*
X145290745Y-93515800D01*
X145540999Y-93466021D01*
X141738408Y-97268612D01*
X141736215Y-97265330D01*
X141250034Y-96940474D01*
X140676545Y-96826400D01*
X140307055Y-96826400D01*
X139733566Y-96940474D01*
X139247385Y-97265330D01*
X138922529Y-97751511D01*
X138808455Y-98325000D01*
X138922529Y-98898489D01*
X139247385Y-99384670D01*
X139562166Y-99595000D01*
X139247385Y-99805330D01*
X138922529Y-100291511D01*
X138808455Y-100865000D01*
X138922529Y-101438489D01*
X139247385Y-101924670D01*
X139562166Y-102135000D01*
X139247385Y-102345330D01*
X138922529Y-102831511D01*
X138808455Y-103405000D01*
X138922529Y-103978489D01*
X139247385Y-104464670D01*
X139733566Y-104789526D01*
X140307055Y-104903600D01*
X140676545Y-104903600D01*
X141250034Y-104789526D01*
X141736215Y-104464670D01*
X142061071Y-103978489D01*
X142175145Y-103405000D01*
X142061071Y-102831511D01*
X141736215Y-102345330D01*
X141421434Y-102135000D01*
X141736215Y-101924670D01*
X141852926Y-101750000D01*
X144084821Y-101750000D01*
X144281208Y-101946387D01*
X144281210Y-101946390D01*
X144568325Y-102138233D01*
X144624516Y-102149410D01*
X144907000Y-102205601D01*
X144907005Y-102205600D01*
X148843995Y-102205600D01*
X148844000Y-102205601D01*
X149126484Y-102149410D01*
X149182675Y-102138233D01*
X149469790Y-101946390D01*
X149803206Y-101612974D01*
X149428664Y-102514973D01*
X149427738Y-103575972D01*
X149832909Y-104556561D01*
X150582493Y-105307455D01*
X151562373Y-105714336D01*
X152623372Y-105715262D01*
X153603961Y-105310091D01*
X154354855Y-104560507D01*
X154761736Y-103580627D01*
X154762662Y-102519628D01*
X154357491Y-101539039D01*
X153607907Y-100788145D01*
X152628027Y-100381264D01*
X151567028Y-100380338D01*
X150661815Y-100754364D01*
X152009787Y-99406392D01*
X152009790Y-99406390D01*
X152201633Y-99119275D01*
X152269000Y-98780600D01*
X152269000Y-97450214D01*
X152597222Y-97941433D01*
X153132845Y-98299325D01*
X153764655Y-98425000D01*
X153829345Y-98425000D01*
X154461155Y-98299325D01*
X154996778Y-97941433D01*
X155354670Y-97405810D01*
X155480345Y-96774000D01*
X155354670Y-96142190D01*
X155127501Y-95802208D01*
X155264441Y-95714090D01*
X155409431Y-95501890D01*
X155460440Y-95250000D01*
X155460440Y-93218000D01*
X155416162Y-92982683D01*
X155277090Y-92766559D01*
X155064890Y-92621569D01*
X154813000Y-92570560D01*
X152781000Y-92570560D01*
X152545683Y-92614838D01*
X152329559Y-92753910D01*
X152269000Y-92842541D01*
X152269000Y-90174757D01*
X152362398Y-90400797D01*
X152779666Y-90818794D01*
X153325133Y-91045292D01*
X153915756Y-91045808D01*
X154461617Y-90820262D01*
X154879614Y-90402994D01*
X155106112Y-89857527D01*
X155106628Y-89266904D01*
X154881082Y-88721043D01*
X154463814Y-88303046D01*
X153918347Y-88076548D01*
X153327724Y-88076032D01*
X152781863Y-88301578D01*
X152363866Y-88718846D01*
X152269000Y-88947308D01*
X152269000Y-88021980D01*
X156302387Y-83988592D01*
X156302390Y-83988590D01*
X156389000Y-83858968D01*
X156389000Y-107367000D01*
X67766000Y-107367000D01*
X67766000Y-103575972D01*
X69392338Y-103575972D01*
X69797509Y-104556561D01*
X70547093Y-105307455D01*
X71526973Y-105714336D01*
X72587972Y-105715262D01*
X73568561Y-105310091D01*
X73958877Y-104920455D01*
X87998300Y-104920455D01*
X87998300Y-105289945D01*
X88112374Y-105863434D01*
X88437230Y-106349615D01*
X88923411Y-106674471D01*
X89496900Y-106788545D01*
X90070389Y-106674471D01*
X90556570Y-106349615D01*
X90766900Y-106034834D01*
X90977230Y-106349615D01*
X91463411Y-106674471D01*
X92036900Y-106788545D01*
X92610389Y-106674471D01*
X93096570Y-106349615D01*
X93111400Y-106327420D01*
X93174973Y-106480898D01*
X93353601Y-106659527D01*
X93586990Y-106756200D01*
X94291150Y-106756200D01*
X94449900Y-106597450D01*
X94449900Y-105232200D01*
X94703900Y-105232200D01*
X94703900Y-106597450D01*
X94862650Y-106756200D01*
X95566810Y-106756200D01*
X95800199Y-106659527D01*
X95978827Y-106480898D01*
X96075500Y-106247509D01*
X96075500Y-105390950D01*
X95916750Y-105232200D01*
X94703900Y-105232200D01*
X94449900Y-105232200D01*
X94429900Y-105232200D01*
X94429900Y-104978200D01*
X94449900Y-104978200D01*
X94449900Y-103612950D01*
X94703900Y-103612950D01*
X94703900Y-104978200D01*
X95916750Y-104978200D01*
X96050695Y-104844255D01*
X99872800Y-104844255D01*
X99872800Y-105213745D01*
X99986874Y-105787234D01*
X100311730Y-106273415D01*
X100797911Y-106598271D01*
X101371400Y-106712345D01*
X101944889Y-106598271D01*
X102431070Y-106273415D01*
X102641400Y-105958634D01*
X102851730Y-106273415D01*
X103337911Y-106598271D01*
X103911400Y-106712345D01*
X104484889Y-106598271D01*
X104971070Y-106273415D01*
X104985900Y-106251220D01*
X105049473Y-106404698D01*
X105228101Y-106583327D01*
X105461490Y-106680000D01*
X106165650Y-106680000D01*
X106324400Y-106521250D01*
X106324400Y-105156000D01*
X106578400Y-105156000D01*
X106578400Y-106521250D01*
X106737150Y-106680000D01*
X107441310Y-106680000D01*
X107674699Y-106583327D01*
X107853327Y-106404698D01*
X107950000Y-106171309D01*
X107950000Y-105314750D01*
X107791250Y-105156000D01*
X106578400Y-105156000D01*
X106324400Y-105156000D01*
X106304400Y-105156000D01*
X106304400Y-104902000D01*
X106324400Y-104902000D01*
X106324400Y-103536750D01*
X106578400Y-103536750D01*
X106578400Y-104902000D01*
X107791250Y-104902000D01*
X107950000Y-104743250D01*
X107950000Y-103886691D01*
X107853327Y-103653302D01*
X107674699Y-103474673D01*
X107441310Y-103378000D01*
X106737150Y-103378000D01*
X106578400Y-103536750D01*
X106324400Y-103536750D01*
X106165650Y-103378000D01*
X105461490Y-103378000D01*
X105228101Y-103474673D01*
X105049473Y-103653302D01*
X104985900Y-103806780D01*
X104971070Y-103784585D01*
X104484889Y-103459729D01*
X103911400Y-103345655D01*
X103337911Y-103459729D01*
X102851730Y-103784585D01*
X102641400Y-104099366D01*
X102431070Y-103784585D01*
X101944889Y-103459729D01*
X101371400Y-103345655D01*
X100797911Y-103459729D01*
X100311730Y-103784585D01*
X99986874Y-104270766D01*
X99872800Y-104844255D01*
X96050695Y-104844255D01*
X96075500Y-104819450D01*
X96075500Y-103962891D01*
X95978827Y-103729502D01*
X95800199Y-103550873D01*
X95566810Y-103454200D01*
X94862650Y-103454200D01*
X94703900Y-103612950D01*
X94449900Y-103612950D01*
X94291150Y-103454200D01*
X93586990Y-103454200D01*
X93353601Y-103550873D01*
X93174973Y-103729502D01*
X93111400Y-103882980D01*
X93096570Y-103860785D01*
X92610389Y-103535929D01*
X92036900Y-103421855D01*
X91463411Y-103535929D01*
X90977230Y-103860785D01*
X90766900Y-104175566D01*
X90556570Y-103860785D01*
X90070389Y-103535929D01*
X89496900Y-103421855D01*
X88923411Y-103535929D01*
X88437230Y-103860785D01*
X88112374Y-104346966D01*
X87998300Y-104920455D01*
X73958877Y-104920455D01*
X74319455Y-104560507D01*
X74726336Y-103580627D01*
X74727262Y-102519628D01*
X74322091Y-101539039D01*
X74287862Y-101504750D01*
X86179400Y-101504750D01*
X86179400Y-102145310D01*
X86276073Y-102378699D01*
X86454702Y-102557327D01*
X86688091Y-102654000D01*
X87528650Y-102654000D01*
X87687400Y-102495250D01*
X87687400Y-101346000D01*
X87941400Y-101346000D01*
X87941400Y-102495250D01*
X88100150Y-102654000D01*
X88940709Y-102654000D01*
X89174098Y-102557327D01*
X89352727Y-102378699D01*
X89449400Y-102145310D01*
X89449400Y-101504750D01*
X89290650Y-101346000D01*
X87941400Y-101346000D01*
X87687400Y-101346000D01*
X86338150Y-101346000D01*
X86179400Y-101504750D01*
X74287862Y-101504750D01*
X73572507Y-100788145D01*
X72592627Y-100381264D01*
X71531628Y-100380338D01*
X70551039Y-100785509D01*
X69800145Y-101535093D01*
X69393264Y-102514973D01*
X69392338Y-103575972D01*
X67766000Y-103575972D01*
X67766000Y-98196150D01*
X74257000Y-98196150D01*
X74257000Y-99036709D01*
X74353673Y-99270098D01*
X74532301Y-99448727D01*
X74765690Y-99545400D01*
X75406250Y-99545400D01*
X75565000Y-99386650D01*
X75565000Y-98037400D01*
X74415750Y-98037400D01*
X74257000Y-98196150D01*
X67766000Y-98196150D01*
X67766000Y-58496200D01*
X68175600Y-58496200D01*
X68175600Y-85191600D01*
X68233452Y-85482439D01*
X68398199Y-85729001D01*
X70329119Y-87659921D01*
X70431441Y-88174329D01*
X70739778Y-88635789D01*
X71135199Y-88900000D01*
X70739778Y-89164211D01*
X70431441Y-89625671D01*
X70323167Y-90170000D01*
X70431441Y-90714329D01*
X70739778Y-91175789D01*
X71135199Y-91440000D01*
X70739778Y-91704211D01*
X70431441Y-92165671D01*
X70323167Y-92710000D01*
X70431441Y-93254329D01*
X70739778Y-93715789D01*
X70911460Y-93830503D01*
X70757683Y-93859438D01*
X70541559Y-93998510D01*
X70396569Y-94210710D01*
X70345560Y-94462600D01*
X70345560Y-96037400D01*
X70389838Y-96272717D01*
X70528910Y-96488841D01*
X70741110Y-96633831D01*
X70993000Y-96684840D01*
X73279000Y-96684840D01*
X73514317Y-96640562D01*
X73730441Y-96501490D01*
X73875431Y-96289290D01*
X73926440Y-96037400D01*
X73926440Y-96010000D01*
X75046998Y-96010000D01*
X75312398Y-96275400D01*
X74765690Y-96275400D01*
X74532301Y-96372073D01*
X74353673Y-96550702D01*
X74257000Y-96784091D01*
X74257000Y-97624650D01*
X74415750Y-97783400D01*
X75565000Y-97783400D01*
X75565000Y-97763400D01*
X75819000Y-97763400D01*
X75819000Y-97783400D01*
X75839000Y-97783400D01*
X75839000Y-98037400D01*
X75819000Y-98037400D01*
X75819000Y-99386650D01*
X75977750Y-99545400D01*
X76618310Y-99545400D01*
X76851699Y-99448727D01*
X77030327Y-99270098D01*
X77050778Y-99220725D01*
X77097515Y-99455689D01*
X77422371Y-99941870D01*
X77908552Y-100266726D01*
X78482041Y-100380800D01*
X78540759Y-100380800D01*
X79114248Y-100266726D01*
X79579842Y-99955626D01*
X79584638Y-99981117D01*
X79723710Y-100197241D01*
X79935910Y-100342231D01*
X80187800Y-100393240D01*
X81915000Y-100393240D01*
X82150317Y-100348962D01*
X82237766Y-100292690D01*
X86179400Y-100292690D01*
X86179400Y-100933250D01*
X86338150Y-101092000D01*
X87687400Y-101092000D01*
X87687400Y-99942750D01*
X87941400Y-99942750D01*
X87941400Y-101092000D01*
X89290650Y-101092000D01*
X89449400Y-100933250D01*
X89449400Y-100419000D01*
X90166960Y-100419000D01*
X90166960Y-102019000D01*
X90211238Y-102254317D01*
X90350310Y-102470441D01*
X90562510Y-102615431D01*
X90814400Y-102666440D01*
X92814400Y-102666440D01*
X93049717Y-102622162D01*
X93265841Y-102483090D01*
X93410831Y-102270890D01*
X93461840Y-102019000D01*
X93461840Y-100419000D01*
X93417562Y-100183683D01*
X93278490Y-99967559D01*
X93066290Y-99822569D01*
X92814400Y-99771560D01*
X90814400Y-99771560D01*
X90579083Y-99815838D01*
X90362959Y-99954910D01*
X90217969Y-100167110D01*
X90166960Y-100419000D01*
X89449400Y-100419000D01*
X89449400Y-100292690D01*
X89352727Y-100059301D01*
X89174098Y-99880673D01*
X88940709Y-99784000D01*
X88100150Y-99784000D01*
X87941400Y-99942750D01*
X87687400Y-99942750D01*
X87528650Y-99784000D01*
X86688091Y-99784000D01*
X86454702Y-99880673D01*
X86276073Y-100059301D01*
X86179400Y-100292690D01*
X82237766Y-100292690D01*
X82366441Y-100209890D01*
X82511431Y-99997690D01*
X82562440Y-99745800D01*
X82562440Y-98423000D01*
X90081100Y-98423000D01*
X90371939Y-98365148D01*
X90618501Y-98200401D01*
X91151901Y-97667001D01*
X91316648Y-97420439D01*
X91374500Y-97129600D01*
X91374500Y-94354302D01*
X92909199Y-95889001D01*
X93155761Y-96053748D01*
X93446600Y-96111600D01*
X94687537Y-96111600D01*
X94719673Y-96143792D01*
X95063201Y-96286438D01*
X95435167Y-96286762D01*
X95636928Y-96203396D01*
X95597560Y-96397800D01*
X95597560Y-96997800D01*
X95641838Y-97233117D01*
X95705678Y-97332328D01*
X95648569Y-97415910D01*
X95597560Y-97667800D01*
X95597560Y-98267800D01*
X95641838Y-98503117D01*
X95705678Y-98602328D01*
X95648569Y-98685910D01*
X95597560Y-98937800D01*
X95597560Y-99537800D01*
X95641838Y-99773117D01*
X95780910Y-99989241D01*
X95993110Y-100134231D01*
X96245000Y-100185240D01*
X97745000Y-100185240D01*
X97980317Y-100140962D01*
X98196441Y-100001890D01*
X98199236Y-99997800D01*
X99970781Y-99997800D01*
X100028273Y-100055392D01*
X100371801Y-100198038D01*
X100743767Y-100198362D01*
X101087543Y-100056317D01*
X101170673Y-99973332D01*
X101180910Y-99989241D01*
X101393110Y-100134231D01*
X101635000Y-100183215D01*
X101635000Y-100274805D01*
X101449408Y-100460073D01*
X101306762Y-100803601D01*
X101306438Y-101175567D01*
X101448483Y-101519343D01*
X101711273Y-101782592D01*
X102054801Y-101925238D01*
X102426767Y-101925562D01*
X102770543Y-101783517D01*
X103033792Y-101520727D01*
X103176438Y-101177199D01*
X103176762Y-100805233D01*
X103155000Y-100752565D01*
X103155000Y-100183358D01*
X103380317Y-100140962D01*
X103596441Y-100001890D01*
X103741431Y-99789690D01*
X103792440Y-99537800D01*
X103792440Y-98937800D01*
X103752926Y-98727800D01*
X123240800Y-98727800D01*
X123531639Y-98669948D01*
X123778201Y-98505201D01*
X124845001Y-97438401D01*
X125009748Y-97191839D01*
X125067600Y-96901000D01*
X125067600Y-89509600D01*
X125009748Y-89218761D01*
X124845001Y-88972199D01*
X124108571Y-88235769D01*
X124107159Y-88228671D01*
X123798822Y-87767211D01*
X123403401Y-87503000D01*
X123798822Y-87238789D01*
X124107159Y-86777329D01*
X124215433Y-86233000D01*
X124107159Y-85688671D01*
X123798822Y-85227211D01*
X123403401Y-84963000D01*
X123798822Y-84698789D01*
X124107159Y-84237329D01*
X124215433Y-83693000D01*
X124107159Y-83148671D01*
X123798822Y-82687211D01*
X123403401Y-82423000D01*
X123798822Y-82158789D01*
X123976427Y-81892984D01*
X124166639Y-81855148D01*
X124413201Y-81690401D01*
X125962601Y-80141002D01*
X126073153Y-79975548D01*
X126127348Y-79894439D01*
X126185200Y-79603600D01*
X126185200Y-78242016D01*
X128682790Y-78242016D01*
X128738471Y-78472611D01*
X129221278Y-78640622D01*
X129731628Y-78611083D01*
X130065929Y-78472611D01*
X130121610Y-78242016D01*
X129402200Y-77522605D01*
X128682790Y-78242016D01*
X126185200Y-78242016D01*
X126185200Y-77162078D01*
X128104578Y-77162078D01*
X128134117Y-77672428D01*
X128272589Y-78006729D01*
X128503184Y-78062410D01*
X129222595Y-77343000D01*
X128503184Y-76623590D01*
X128272589Y-76679271D01*
X128104578Y-77162078D01*
X126185200Y-77162078D01*
X126185200Y-76443984D01*
X128682790Y-76443984D01*
X129402200Y-77163395D01*
X130121610Y-76443984D01*
X130065929Y-76213389D01*
X129583122Y-76045378D01*
X129072772Y-76074917D01*
X128738471Y-76213389D01*
X128682790Y-76443984D01*
X126185200Y-76443984D01*
X126185200Y-66454855D01*
X127681000Y-66454855D01*
X127681000Y-66824345D01*
X127795074Y-67397834D01*
X128119930Y-67884015D01*
X128294600Y-68000726D01*
X128294600Y-70048395D01*
X128294599Y-70048400D01*
X128337806Y-70265610D01*
X128361967Y-70387075D01*
X128424296Y-70480357D01*
X128553810Y-70674190D01*
X131017200Y-73137579D01*
X131017200Y-76089778D01*
X131016883Y-76089838D01*
X130800759Y-76228910D01*
X130655769Y-76441110D01*
X130604760Y-76693000D01*
X130604760Y-76855385D01*
X130531811Y-76679271D01*
X130301216Y-76623590D01*
X129581805Y-77343000D01*
X130301216Y-78062410D01*
X130531811Y-78006729D01*
X130604760Y-77797098D01*
X130604760Y-77993000D01*
X130649038Y-78228317D01*
X130788110Y-78444441D01*
X131000310Y-78589431D01*
X131252200Y-78640440D01*
X132552200Y-78640440D01*
X132787517Y-78596162D01*
X133003641Y-78457090D01*
X133148631Y-78244890D01*
X133199640Y-77993000D01*
X133199640Y-76693000D01*
X133155362Y-76457683D01*
X133016290Y-76241559D01*
X132804090Y-76096569D01*
X132787200Y-76093149D01*
X132787200Y-72771005D01*
X132787201Y-72771000D01*
X132719833Y-72432326D01*
X132719833Y-72432325D01*
X132527990Y-72145210D01*
X132527987Y-72145208D01*
X130064600Y-69681820D01*
X130064600Y-68000726D01*
X130239270Y-67884015D01*
X130564126Y-67397834D01*
X130678200Y-66824345D01*
X130678200Y-66454855D01*
X130564126Y-65881366D01*
X130239270Y-65395185D01*
X129753089Y-65070329D01*
X129179600Y-64956255D01*
X128606111Y-65070329D01*
X128119930Y-65395185D01*
X127795074Y-65881366D01*
X127681000Y-66454855D01*
X126185200Y-66454855D01*
X126185200Y-59563000D01*
X126153078Y-59401513D01*
X127694416Y-59401513D01*
X127887646Y-59953920D01*
X128277564Y-60390332D01*
X128804809Y-60644309D01*
X128820574Y-60646958D01*
X129052600Y-60525817D01*
X129052600Y-59166600D01*
X129306600Y-59166600D01*
X129306600Y-60525817D01*
X129538626Y-60646958D01*
X129554391Y-60644309D01*
X130081636Y-60390332D01*
X130471554Y-59953920D01*
X130664784Y-59401513D01*
X130520524Y-59166600D01*
X129306600Y-59166600D01*
X129052600Y-59166600D01*
X127838676Y-59166600D01*
X127694416Y-59401513D01*
X126153078Y-59401513D01*
X126127348Y-59272161D01*
X125962601Y-59025599D01*
X125614689Y-58677687D01*
X127694416Y-58677687D01*
X127838676Y-58912600D01*
X129052600Y-58912600D01*
X129052600Y-57553383D01*
X129306600Y-57553383D01*
X129306600Y-58912600D01*
X130520524Y-58912600D01*
X130664784Y-58677687D01*
X130471554Y-58125280D01*
X130081636Y-57688868D01*
X129554391Y-57434891D01*
X129538626Y-57432242D01*
X129306600Y-57553383D01*
X129052600Y-57553383D01*
X128820574Y-57432242D01*
X128804809Y-57434891D01*
X128277564Y-57688868D01*
X127887646Y-58125280D01*
X127694416Y-58677687D01*
X125614689Y-58677687D01*
X120551174Y-53614172D01*
X149402338Y-53614172D01*
X149807509Y-54594761D01*
X150557093Y-55345655D01*
X151536973Y-55752536D01*
X152597972Y-55753462D01*
X153578561Y-55348291D01*
X154329455Y-54598707D01*
X154736336Y-53618827D01*
X154737262Y-52557828D01*
X154332091Y-51577239D01*
X153582507Y-50826345D01*
X152602627Y-50419464D01*
X151541628Y-50418538D01*
X150561039Y-50823709D01*
X149810145Y-51573293D01*
X149403264Y-52553173D01*
X149402338Y-53614172D01*
X120551174Y-53614172D01*
X118854202Y-51917200D01*
X127022655Y-51917200D01*
X127136729Y-52490689D01*
X127461585Y-52976870D01*
X127947766Y-53301726D01*
X128521255Y-53415800D01*
X128890745Y-53415800D01*
X129464234Y-53301726D01*
X129950415Y-52976870D01*
X130275271Y-52490689D01*
X130369453Y-52017200D01*
X143422655Y-52017200D01*
X143536729Y-52590689D01*
X143861585Y-53076870D01*
X144347766Y-53401726D01*
X144921255Y-53515800D01*
X145290745Y-53515800D01*
X145864234Y-53401726D01*
X146350415Y-53076870D01*
X146675271Y-52590689D01*
X146789345Y-52017200D01*
X146675271Y-51443711D01*
X146350415Y-50957530D01*
X145864234Y-50632674D01*
X145290745Y-50518600D01*
X144921255Y-50518600D01*
X144347766Y-50632674D01*
X143861585Y-50957530D01*
X143536729Y-51443711D01*
X143422655Y-52017200D01*
X130369453Y-52017200D01*
X130389345Y-51917200D01*
X130275271Y-51343711D01*
X129950415Y-50857530D01*
X129464234Y-50532674D01*
X128890745Y-50418600D01*
X128521255Y-50418600D01*
X127947766Y-50532674D01*
X127461585Y-50857530D01*
X127136729Y-51343711D01*
X127022655Y-51917200D01*
X118854202Y-51917200D01*
X117885401Y-50948399D01*
X117638839Y-50783652D01*
X117348000Y-50725800D01*
X115226840Y-50725800D01*
X115226840Y-50469800D01*
X115182562Y-50234483D01*
X115043490Y-50018359D01*
X114831290Y-49873369D01*
X114579400Y-49822360D01*
X112852200Y-49822360D01*
X112616883Y-49866638D01*
X112400759Y-50005710D01*
X112255769Y-50217910D01*
X112247400Y-50259239D01*
X112235470Y-50241385D01*
X111749289Y-49916529D01*
X111175800Y-49802455D01*
X110602311Y-49916529D01*
X110116130Y-50241385D01*
X109905800Y-50556166D01*
X109695470Y-50241385D01*
X109209289Y-49916529D01*
X108635800Y-49802455D01*
X108062311Y-49916529D01*
X107576130Y-50241385D01*
X107365800Y-50556166D01*
X107155470Y-50241385D01*
X106669289Y-49916529D01*
X106095800Y-49802455D01*
X105522311Y-49916529D01*
X105036130Y-50241385D01*
X104825800Y-50556166D01*
X104615470Y-50241385D01*
X104129289Y-49916529D01*
X103555800Y-49802455D01*
X102982311Y-49916529D01*
X102496130Y-50241385D01*
X102285800Y-50556166D01*
X102075470Y-50241385D01*
X101589289Y-49916529D01*
X101015800Y-49802455D01*
X100442311Y-49916529D01*
X99956130Y-50241385D01*
X99631274Y-50727566D01*
X99517200Y-51301055D01*
X99517200Y-51670545D01*
X99631274Y-52244034D01*
X99956130Y-52730215D01*
X100442311Y-53055071D01*
X101015800Y-53169145D01*
X101589289Y-53055071D01*
X102075470Y-52730215D01*
X102285800Y-52415434D01*
X102496130Y-52730215D01*
X102982311Y-53055071D01*
X103555800Y-53169145D01*
X104129289Y-53055071D01*
X104615470Y-52730215D01*
X104825800Y-52415434D01*
X105036130Y-52730215D01*
X105522311Y-53055071D01*
X106095800Y-53169145D01*
X106669289Y-53055071D01*
X107155470Y-52730215D01*
X107365800Y-52415434D01*
X107576130Y-52730215D01*
X108062311Y-53055071D01*
X108635800Y-53169145D01*
X109209289Y-53055071D01*
X109695470Y-52730215D01*
X109905800Y-52415434D01*
X110116130Y-52730215D01*
X110602311Y-53055071D01*
X110857412Y-53105814D01*
X112924399Y-55172801D01*
X113170960Y-55337548D01*
X113461800Y-55395400D01*
X118938198Y-55395400D01*
X122993217Y-59450419D01*
X122793033Y-59410600D01*
X122012167Y-59410600D01*
X121467838Y-59518874D01*
X121006378Y-59827211D01*
X120698041Y-60288671D01*
X120589767Y-60833000D01*
X120698041Y-61377329D01*
X121006378Y-61838789D01*
X121401799Y-62103000D01*
X121006378Y-62367211D01*
X120698041Y-62828671D01*
X120589767Y-63373000D01*
X120698041Y-63917329D01*
X121006378Y-64378789D01*
X121401799Y-64643000D01*
X121006378Y-64907211D01*
X120698041Y-65368671D01*
X120589767Y-65913000D01*
X120698041Y-66457329D01*
X121006378Y-66918789D01*
X121401430Y-67182754D01*
X121385338Y-67187475D01*
X120951409Y-67537014D01*
X120684273Y-68026004D01*
X120667590Y-68105940D01*
X120789748Y-68326000D01*
X122275600Y-68326000D01*
X122275600Y-68306000D01*
X122529600Y-68306000D01*
X122529600Y-68326000D01*
X122549600Y-68326000D01*
X122549600Y-68580000D01*
X122529600Y-68580000D01*
X122529600Y-68600000D01*
X122275600Y-68600000D01*
X122275600Y-68580000D01*
X120789748Y-68580000D01*
X120667590Y-68800060D01*
X120684273Y-68879996D01*
X120951409Y-69368986D01*
X121385338Y-69718525D01*
X121401430Y-69723246D01*
X121006378Y-69987211D01*
X120698041Y-70448671D01*
X120589767Y-70993000D01*
X120698041Y-71537329D01*
X121006378Y-71998789D01*
X121401799Y-72263000D01*
X121006378Y-72527211D01*
X120698041Y-72988671D01*
X120589767Y-73533000D01*
X120698041Y-74077329D01*
X121006378Y-74538789D01*
X121401799Y-74803000D01*
X121006378Y-75067211D01*
X120698041Y-75528671D01*
X120589767Y-76073000D01*
X120698041Y-76617329D01*
X121006378Y-77078789D01*
X121401799Y-77343000D01*
X121006378Y-77607211D01*
X120698041Y-78068671D01*
X120589767Y-78613000D01*
X120698041Y-79157329D01*
X121006378Y-79618789D01*
X121401799Y-79883000D01*
X121006378Y-80147211D01*
X120698041Y-80608671D01*
X120589767Y-81153000D01*
X120698041Y-81697329D01*
X121006378Y-82158789D01*
X121401799Y-82423000D01*
X121006378Y-82687211D01*
X120698041Y-83148671D01*
X120589767Y-83693000D01*
X120698041Y-84237329D01*
X121006378Y-84698789D01*
X121401799Y-84963000D01*
X121006378Y-85227211D01*
X120698041Y-85688671D01*
X120589767Y-86233000D01*
X120698041Y-86777329D01*
X121006378Y-87238789D01*
X121401799Y-87503000D01*
X121006378Y-87767211D01*
X120698041Y-88228671D01*
X120589767Y-88773000D01*
X120698041Y-89317329D01*
X121006378Y-89778789D01*
X121401799Y-90043000D01*
X121115800Y-90234098D01*
X120292400Y-89410698D01*
X120292400Y-86931500D01*
X120234548Y-86640661D01*
X120069801Y-86394099D01*
X115561301Y-81885599D01*
X115314739Y-81720852D01*
X115023900Y-81663000D01*
X108873987Y-81663000D01*
X108975433Y-81153000D01*
X108867159Y-80608671D01*
X108558822Y-80147211D01*
X108163401Y-79883000D01*
X108558822Y-79618789D01*
X108867159Y-79157329D01*
X108975433Y-78613000D01*
X108867159Y-78068671D01*
X108558822Y-77607211D01*
X108163401Y-77343000D01*
X108558822Y-77078789D01*
X108867159Y-76617329D01*
X108975433Y-76073000D01*
X108867159Y-75528671D01*
X108558822Y-75067211D01*
X108163401Y-74803000D01*
X108558822Y-74538789D01*
X108867159Y-74077329D01*
X108975433Y-73533000D01*
X108867159Y-72988671D01*
X108558822Y-72527211D01*
X108163401Y-72263000D01*
X108558822Y-71998789D01*
X108867159Y-71537329D01*
X108975433Y-70993000D01*
X108867159Y-70448671D01*
X108558822Y-69987211D01*
X108163401Y-69723000D01*
X108485720Y-69507634D01*
X113780343Y-69507634D01*
X114180653Y-70476458D01*
X114921243Y-71218342D01*
X115889367Y-71620342D01*
X116937634Y-71621257D01*
X117906458Y-71220947D01*
X118648342Y-70480357D01*
X119050342Y-69512233D01*
X119051257Y-68463966D01*
X118650947Y-67495142D01*
X117910357Y-66753258D01*
X116942233Y-66351258D01*
X115893966Y-66350343D01*
X114925142Y-66750653D01*
X114183258Y-67491243D01*
X113781258Y-68459367D01*
X113780343Y-69507634D01*
X108485720Y-69507634D01*
X108558822Y-69458789D01*
X108867159Y-68997329D01*
X108975433Y-68453000D01*
X108867159Y-67908671D01*
X108558822Y-67447211D01*
X108163401Y-67183000D01*
X108558822Y-66918789D01*
X108867159Y-66457329D01*
X108975433Y-65913000D01*
X108867159Y-65368671D01*
X108558822Y-64907211D01*
X108163770Y-64643246D01*
X108179862Y-64638525D01*
X108613791Y-64288986D01*
X108880927Y-63799996D01*
X108897610Y-63720060D01*
X108775452Y-63500000D01*
X107289600Y-63500000D01*
X107289600Y-63520000D01*
X107035600Y-63520000D01*
X107035600Y-63500000D01*
X105549748Y-63500000D01*
X105427590Y-63720060D01*
X105444273Y-63799996D01*
X105711409Y-64288986D01*
X106145338Y-64638525D01*
X106161430Y-64643246D01*
X105766378Y-64907211D01*
X105458041Y-65368671D01*
X105349767Y-65913000D01*
X105458041Y-66457329D01*
X105766378Y-66918789D01*
X106161799Y-67183000D01*
X105766378Y-67447211D01*
X105458041Y-67908671D01*
X105349767Y-68453000D01*
X105458041Y-68997329D01*
X105766378Y-69458789D01*
X106161799Y-69723000D01*
X105766378Y-69987211D01*
X105458041Y-70448671D01*
X105349767Y-70993000D01*
X105458041Y-71537329D01*
X105766378Y-71998789D01*
X106161799Y-72263000D01*
X105766378Y-72527211D01*
X105458041Y-72988671D01*
X105349767Y-73533000D01*
X105458041Y-74077329D01*
X105766378Y-74538789D01*
X106161799Y-74803000D01*
X105766378Y-75067211D01*
X105458041Y-75528671D01*
X105349767Y-76073000D01*
X105458041Y-76617329D01*
X105766378Y-77078789D01*
X106161799Y-77343000D01*
X105766378Y-77607211D01*
X105458041Y-78068671D01*
X105365302Y-78534900D01*
X104359901Y-77529499D01*
X104113339Y-77364752D01*
X103822500Y-77306900D01*
X100609400Y-77306900D01*
X100318561Y-77364752D01*
X100071999Y-77529499D01*
X98814040Y-78787458D01*
X98814040Y-78592400D01*
X98769762Y-78357083D01*
X98705922Y-78257872D01*
X98763031Y-78174290D01*
X98814040Y-77922400D01*
X98814040Y-77322400D01*
X98769762Y-77087083D01*
X98705922Y-76987872D01*
X98763031Y-76904290D01*
X98814040Y-76652400D01*
X98814040Y-76052400D01*
X98769762Y-75817083D01*
X98711422Y-75726420D01*
X98801600Y-75508710D01*
X98801600Y-75368150D01*
X98642850Y-75209400D01*
X97543600Y-75209400D01*
X97543600Y-75229400D01*
X97289600Y-75229400D01*
X97289600Y-75209400D01*
X96190350Y-75209400D01*
X96031600Y-75368150D01*
X96031600Y-75508710D01*
X96121406Y-75725522D01*
X96070169Y-75800510D01*
X96062927Y-75836271D01*
X94763399Y-77135799D01*
X94654692Y-77298490D01*
X93414040Y-76057838D01*
X93414040Y-76052400D01*
X93369762Y-75817083D01*
X93311422Y-75726420D01*
X93401600Y-75508710D01*
X93401600Y-75368150D01*
X93242850Y-75209400D01*
X92143600Y-75209400D01*
X92143600Y-75229400D01*
X91889600Y-75229400D01*
X91889600Y-75209400D01*
X90790350Y-75209400D01*
X90631600Y-75368150D01*
X90631600Y-75508710D01*
X90721406Y-75725522D01*
X90670169Y-75800510D01*
X90619160Y-76052400D01*
X90619160Y-76652400D01*
X90663438Y-76887717D01*
X90727278Y-76986928D01*
X90670169Y-77070510D01*
X90619160Y-77322400D01*
X90619160Y-77922400D01*
X90663438Y-78157717D01*
X90727278Y-78256928D01*
X90670169Y-78340510D01*
X90619160Y-78592400D01*
X90619160Y-79192400D01*
X90663438Y-79427717D01*
X90727278Y-79526928D01*
X90670169Y-79610510D01*
X90619160Y-79862400D01*
X90619160Y-80091059D01*
X90365833Y-80090838D01*
X90022057Y-80232883D01*
X89758808Y-80495673D01*
X89616162Y-80839201D01*
X89615838Y-81211167D01*
X89757883Y-81554943D01*
X90020673Y-81818192D01*
X90364201Y-81960838D01*
X90411077Y-81960879D01*
X90419999Y-81969801D01*
X90666560Y-82134548D01*
X90679339Y-82137090D01*
X90670169Y-82150510D01*
X90619160Y-82402400D01*
X90619160Y-83002400D01*
X90663438Y-83237717D01*
X90721778Y-83328380D01*
X90631600Y-83546090D01*
X90631600Y-83686650D01*
X90790350Y-83845400D01*
X91889600Y-83845400D01*
X91889600Y-83825400D01*
X92143600Y-83825400D01*
X92143600Y-83845400D01*
X92163600Y-83845400D01*
X92163600Y-84099400D01*
X92143600Y-84099400D01*
X92143600Y-84748650D01*
X92212474Y-84817524D01*
X91308999Y-85720999D01*
X91144252Y-85967561D01*
X91086400Y-86258400D01*
X91086400Y-90915647D01*
X90801299Y-90797262D01*
X90429333Y-90796938D01*
X90085557Y-90938983D01*
X89822308Y-91201773D01*
X89679662Y-91545301D01*
X89679621Y-91592177D01*
X89084801Y-92186997D01*
X89080559Y-92165671D01*
X88772222Y-91704211D01*
X88376801Y-91440000D01*
X88772222Y-91175789D01*
X89080559Y-90714329D01*
X89188833Y-90170000D01*
X89080559Y-89625671D01*
X88772222Y-89164211D01*
X88376801Y-88900000D01*
X88772222Y-88635789D01*
X89080559Y-88174329D01*
X89188833Y-87630000D01*
X89080559Y-87085671D01*
X88772222Y-86624211D01*
X88376801Y-86360000D01*
X88772222Y-86095789D01*
X89080559Y-85634329D01*
X89188833Y-85090000D01*
X89080559Y-84545671D01*
X88888445Y-84258150D01*
X90631600Y-84258150D01*
X90631600Y-84398710D01*
X90728273Y-84632099D01*
X90906902Y-84810727D01*
X91140291Y-84907400D01*
X91730850Y-84907400D01*
X91889600Y-84748650D01*
X91889600Y-84099400D01*
X90790350Y-84099400D01*
X90631600Y-84258150D01*
X88888445Y-84258150D01*
X88772222Y-84084211D01*
X88376801Y-83820000D01*
X88772222Y-83555789D01*
X89080559Y-83094329D01*
X89188833Y-82550000D01*
X89080559Y-82005671D01*
X88772222Y-81544211D01*
X88376801Y-81280000D01*
X88772222Y-81015789D01*
X89080559Y-80554329D01*
X89188833Y-80010000D01*
X89080559Y-79465671D01*
X88772222Y-79004211D01*
X88376801Y-78740000D01*
X88772222Y-78475789D01*
X89080559Y-78014329D01*
X89188833Y-77470000D01*
X89080559Y-76925671D01*
X88772222Y-76464211D01*
X88376801Y-76200000D01*
X88772222Y-75935789D01*
X89080559Y-75474329D01*
X89188833Y-74930000D01*
X89134349Y-74656090D01*
X90631600Y-74656090D01*
X90631600Y-74796650D01*
X90790350Y-74955400D01*
X91889600Y-74955400D01*
X91889600Y-74306150D01*
X92143600Y-74306150D01*
X92143600Y-74955400D01*
X93242850Y-74955400D01*
X93401600Y-74796650D01*
X93401600Y-74656090D01*
X96031600Y-74656090D01*
X96031600Y-74796650D01*
X96190350Y-74955400D01*
X97289600Y-74955400D01*
X97289600Y-74306150D01*
X97543600Y-74306150D01*
X97543600Y-74955400D01*
X98642850Y-74955400D01*
X98801600Y-74796650D01*
X98801600Y-74656090D01*
X98704927Y-74422701D01*
X98526298Y-74244073D01*
X98292909Y-74147400D01*
X97702350Y-74147400D01*
X97543600Y-74306150D01*
X97289600Y-74306150D01*
X97130850Y-74147400D01*
X96540291Y-74147400D01*
X96306902Y-74244073D01*
X96128273Y-74422701D01*
X96031600Y-74656090D01*
X93401600Y-74656090D01*
X93304927Y-74422701D01*
X93126298Y-74244073D01*
X92892909Y-74147400D01*
X92302350Y-74147400D01*
X92143600Y-74306150D01*
X91889600Y-74306150D01*
X91730850Y-74147400D01*
X91140291Y-74147400D01*
X90906902Y-74244073D01*
X90728273Y-74422701D01*
X90631600Y-74656090D01*
X89134349Y-74656090D01*
X89080559Y-74385671D01*
X88772222Y-73924211D01*
X88376801Y-73660000D01*
X88772222Y-73395789D01*
X89080559Y-72934329D01*
X89188833Y-72390000D01*
X89080559Y-71845671D01*
X88772222Y-71384211D01*
X88376801Y-71120000D01*
X88772222Y-70855789D01*
X89080559Y-70394329D01*
X89188833Y-69850000D01*
X89120733Y-69507634D01*
X95780343Y-69507634D01*
X96180653Y-70476458D01*
X96921243Y-71218342D01*
X97889367Y-71620342D01*
X98937634Y-71621257D01*
X99906458Y-71220947D01*
X100648342Y-70480357D01*
X101050342Y-69512233D01*
X101051257Y-68463966D01*
X100650947Y-67495142D01*
X99910357Y-66753258D01*
X98942233Y-66351258D01*
X97893966Y-66350343D01*
X96925142Y-66750653D01*
X96183258Y-67491243D01*
X95781258Y-68459367D01*
X95780343Y-69507634D01*
X89120733Y-69507634D01*
X89080559Y-69305671D01*
X88772222Y-68844211D01*
X88377170Y-68580246D01*
X88393262Y-68575525D01*
X88827191Y-68225986D01*
X89094327Y-67736996D01*
X89111010Y-67657060D01*
X88988852Y-67437000D01*
X87503000Y-67437000D01*
X87503000Y-67457000D01*
X87249000Y-67457000D01*
X87249000Y-67437000D01*
X87229000Y-67437000D01*
X87229000Y-67183000D01*
X87249000Y-67183000D01*
X87249000Y-67163000D01*
X87503000Y-67163000D01*
X87503000Y-67183000D01*
X88988852Y-67183000D01*
X89111010Y-66962940D01*
X89094327Y-66883004D01*
X88827191Y-66394014D01*
X88393262Y-66044475D01*
X88377170Y-66039754D01*
X88772222Y-65775789D01*
X89080559Y-65314329D01*
X89188833Y-64770000D01*
X89080559Y-64225671D01*
X88772222Y-63764211D01*
X88376801Y-63500000D01*
X88772222Y-63235789D01*
X89080559Y-62774329D01*
X89188833Y-62230000D01*
X89080559Y-61685671D01*
X88772222Y-61224211D01*
X88376801Y-60960000D01*
X88772222Y-60695789D01*
X89080559Y-60234329D01*
X89087765Y-60198100D01*
X91742260Y-60198100D01*
X91742260Y-61798100D01*
X91786538Y-62033417D01*
X91925610Y-62249541D01*
X92137810Y-62394531D01*
X92389700Y-62445540D01*
X94389700Y-62445540D01*
X94625017Y-62401262D01*
X94841141Y-62262190D01*
X94986131Y-62049990D01*
X95037140Y-61798100D01*
X95037140Y-61283850D01*
X95754700Y-61283850D01*
X95754700Y-61924410D01*
X95851373Y-62157799D01*
X96030002Y-62336427D01*
X96263391Y-62433100D01*
X97103950Y-62433100D01*
X97262700Y-62274350D01*
X97262700Y-61125100D01*
X97516700Y-61125100D01*
X97516700Y-62274350D01*
X97675450Y-62433100D01*
X98516009Y-62433100D01*
X98749398Y-62336427D01*
X98928027Y-62157799D01*
X99024700Y-61924410D01*
X99024700Y-61283850D01*
X98865950Y-61125100D01*
X97516700Y-61125100D01*
X97262700Y-61125100D01*
X95913450Y-61125100D01*
X95754700Y-61283850D01*
X95037140Y-61283850D01*
X95037140Y-60198100D01*
X95013374Y-60071790D01*
X95754700Y-60071790D01*
X95754700Y-60712350D01*
X95913450Y-60871100D01*
X97262700Y-60871100D01*
X97262700Y-59721850D01*
X97516700Y-59721850D01*
X97516700Y-60871100D01*
X98865950Y-60871100D01*
X98904050Y-60833000D01*
X105349767Y-60833000D01*
X105458041Y-61377329D01*
X105766378Y-61838789D01*
X106161430Y-62102754D01*
X106145338Y-62107475D01*
X105711409Y-62457014D01*
X105444273Y-62946004D01*
X105427590Y-63025940D01*
X105549748Y-63246000D01*
X107035600Y-63246000D01*
X107035600Y-63226000D01*
X107289600Y-63226000D01*
X107289600Y-63246000D01*
X108775452Y-63246000D01*
X108897610Y-63025940D01*
X108880927Y-62946004D01*
X108613791Y-62457014D01*
X108179862Y-62107475D01*
X108163770Y-62102754D01*
X108558822Y-61838789D01*
X108867159Y-61377329D01*
X108975433Y-60833000D01*
X108867159Y-60288671D01*
X108558822Y-59827211D01*
X108097362Y-59518874D01*
X107553033Y-59410600D01*
X106772167Y-59410600D01*
X106227838Y-59518874D01*
X105766378Y-59827211D01*
X105458041Y-60288671D01*
X105349767Y-60833000D01*
X98904050Y-60833000D01*
X99024700Y-60712350D01*
X99024700Y-60071790D01*
X98928027Y-59838401D01*
X98749398Y-59659773D01*
X98516009Y-59563100D01*
X97675450Y-59563100D01*
X97516700Y-59721850D01*
X97262700Y-59721850D01*
X97103950Y-59563100D01*
X96263391Y-59563100D01*
X96030002Y-59659773D01*
X95851373Y-59838401D01*
X95754700Y-60071790D01*
X95013374Y-60071790D01*
X94992862Y-59962783D01*
X94853790Y-59746659D01*
X94641590Y-59601669D01*
X94389700Y-59550660D01*
X92389700Y-59550660D01*
X92154383Y-59594938D01*
X91938259Y-59734010D01*
X91793269Y-59946210D01*
X91742260Y-60198100D01*
X89087765Y-60198100D01*
X89188833Y-59690000D01*
X89080559Y-59145671D01*
X88772222Y-58684211D01*
X88310762Y-58375874D01*
X87766433Y-58267600D01*
X86985567Y-58267600D01*
X86441238Y-58375874D01*
X85979778Y-58684211D01*
X85793459Y-58963057D01*
X83201701Y-56371299D01*
X82955139Y-56206552D01*
X82664300Y-56148700D01*
X82505840Y-56148700D01*
X82604759Y-55651400D01*
X82490685Y-55077911D01*
X82165829Y-54591730D01*
X81851048Y-54381400D01*
X82165829Y-54171070D01*
X82490685Y-53684889D01*
X82604759Y-53111400D01*
X82490685Y-52537911D01*
X82165829Y-52051730D01*
X81851048Y-51841400D01*
X82165829Y-51631070D01*
X82490685Y-51144889D01*
X82604759Y-50571400D01*
X82490685Y-49997911D01*
X82407223Y-49873000D01*
X87030560Y-49873000D01*
X87030560Y-51473000D01*
X87074838Y-51708317D01*
X87213910Y-51924441D01*
X87426110Y-52069431D01*
X87678000Y-52120440D01*
X87793000Y-52120440D01*
X87793000Y-52806960D01*
X87716100Y-52806960D01*
X87480783Y-52851238D01*
X87264659Y-52990310D01*
X87119669Y-53202510D01*
X87068660Y-53454400D01*
X87068660Y-55054400D01*
X87112938Y-55289717D01*
X87252010Y-55505841D01*
X87464210Y-55650831D01*
X87716100Y-55701840D01*
X89716100Y-55701840D01*
X89951417Y-55657562D01*
X90167541Y-55518490D01*
X90312531Y-55306290D01*
X90363540Y-55054400D01*
X90363540Y-54540150D01*
X91081100Y-54540150D01*
X91081100Y-55180710D01*
X91177773Y-55414099D01*
X91356402Y-55592727D01*
X91589791Y-55689400D01*
X92430350Y-55689400D01*
X92589100Y-55530650D01*
X92589100Y-54381400D01*
X92843100Y-54381400D01*
X92843100Y-55530650D01*
X93001850Y-55689400D01*
X93842409Y-55689400D01*
X94075798Y-55592727D01*
X94254427Y-55414099D01*
X94351100Y-55180710D01*
X94351100Y-54540150D01*
X94192350Y-54381400D01*
X92843100Y-54381400D01*
X92589100Y-54381400D01*
X91239850Y-54381400D01*
X91081100Y-54540150D01*
X90363540Y-54540150D01*
X90363540Y-53454400D01*
X90339774Y-53328090D01*
X91081100Y-53328090D01*
X91081100Y-53968650D01*
X91239850Y-54127400D01*
X92589100Y-54127400D01*
X92589100Y-52978150D01*
X92843100Y-52978150D01*
X92843100Y-54127400D01*
X94192350Y-54127400D01*
X94351100Y-53968650D01*
X94351100Y-53328090D01*
X94254427Y-53094701D01*
X94075798Y-52916073D01*
X93842409Y-52819400D01*
X93001850Y-52819400D01*
X92843100Y-52978150D01*
X92589100Y-52978150D01*
X92430350Y-52819400D01*
X91589791Y-52819400D01*
X91356402Y-52916073D01*
X91177773Y-53094701D01*
X91081100Y-53328090D01*
X90339774Y-53328090D01*
X90319262Y-53219083D01*
X90180190Y-53002959D01*
X89967990Y-52857969D01*
X89716100Y-52806960D01*
X89563000Y-52806960D01*
X89563000Y-52120440D01*
X89678000Y-52120440D01*
X89913317Y-52076162D01*
X90129441Y-51937090D01*
X90274431Y-51724890D01*
X90325440Y-51473000D01*
X90325440Y-50958750D01*
X91043000Y-50958750D01*
X91043000Y-51599310D01*
X91139673Y-51832699D01*
X91318302Y-52011327D01*
X91551691Y-52108000D01*
X92392250Y-52108000D01*
X92551000Y-51949250D01*
X92551000Y-50800000D01*
X92805000Y-50800000D01*
X92805000Y-51949250D01*
X92963750Y-52108000D01*
X93804309Y-52108000D01*
X94037698Y-52011327D01*
X94216327Y-51832699D01*
X94313000Y-51599310D01*
X94313000Y-50958750D01*
X94154250Y-50800000D01*
X92805000Y-50800000D01*
X92551000Y-50800000D01*
X91201750Y-50800000D01*
X91043000Y-50958750D01*
X90325440Y-50958750D01*
X90325440Y-49873000D01*
X90301674Y-49746690D01*
X91043000Y-49746690D01*
X91043000Y-50387250D01*
X91201750Y-50546000D01*
X92551000Y-50546000D01*
X92551000Y-49396750D01*
X92805000Y-49396750D01*
X92805000Y-50546000D01*
X94154250Y-50546000D01*
X94313000Y-50387250D01*
X94313000Y-49746690D01*
X94216327Y-49513301D01*
X94037698Y-49334673D01*
X93804309Y-49238000D01*
X92963750Y-49238000D01*
X92805000Y-49396750D01*
X92551000Y-49396750D01*
X92392250Y-49238000D01*
X91551691Y-49238000D01*
X91318302Y-49334673D01*
X91139673Y-49513301D01*
X91043000Y-49746690D01*
X90301674Y-49746690D01*
X90281162Y-49637683D01*
X90142090Y-49421559D01*
X89929890Y-49276569D01*
X89678000Y-49225560D01*
X87678000Y-49225560D01*
X87442683Y-49269838D01*
X87226559Y-49408910D01*
X87081569Y-49621110D01*
X87030560Y-49873000D01*
X82407223Y-49873000D01*
X82165829Y-49511730D01*
X81679648Y-49186874D01*
X81106159Y-49072800D01*
X81047441Y-49072800D01*
X80473952Y-49186874D01*
X79987771Y-49511730D01*
X79806808Y-49782561D01*
X79425290Y-49364579D01*
X78895827Y-49116432D01*
X78663800Y-49236931D01*
X78663800Y-50444400D01*
X78683800Y-50444400D01*
X78683800Y-50698400D01*
X78663800Y-50698400D01*
X78663800Y-50718400D01*
X78409800Y-50718400D01*
X78409800Y-50698400D01*
X77202983Y-50698400D01*
X77081842Y-50930426D01*
X77254112Y-51346347D01*
X77648310Y-51778221D01*
X77771028Y-51835736D01*
X77447771Y-52051730D01*
X77122915Y-52537911D01*
X77091834Y-52694164D01*
X73903998Y-55882000D01*
X70789800Y-55882000D01*
X70498961Y-55939852D01*
X70252399Y-56104599D01*
X68398199Y-57958799D01*
X68233452Y-58205361D01*
X68175600Y-58496200D01*
X67766000Y-58496200D01*
X67766000Y-53614172D01*
X69392338Y-53614172D01*
X69797509Y-54594761D01*
X70547093Y-55345655D01*
X71526973Y-55752536D01*
X72587972Y-55753462D01*
X73568561Y-55348291D01*
X74319455Y-54598707D01*
X74726336Y-53618827D01*
X74727262Y-52557828D01*
X74322091Y-51577239D01*
X73572507Y-50826345D01*
X72592627Y-50419464D01*
X71531628Y-50418538D01*
X70551039Y-50823709D01*
X69800145Y-51573293D01*
X69393264Y-52553173D01*
X69392338Y-53614172D01*
X67766000Y-53614172D01*
X67766000Y-50212374D01*
X77081842Y-50212374D01*
X77202983Y-50444400D01*
X78409800Y-50444400D01*
X78409800Y-49236931D01*
X78177773Y-49116432D01*
X77648310Y-49364579D01*
X77254112Y-49796453D01*
X77081842Y-50212374D01*
X67766000Y-50212374D01*
X67766000Y-48766800D01*
X156389000Y-48766800D01*
X156389000Y-77509252D01*
X156389000Y-77509252D01*
G37*
X156389000Y-77509252D02*
X156302390Y-77379630D01*
X156302387Y-77379628D01*
X155240730Y-76317970D01*
X155240730Y-75222850D01*
X155196452Y-74987533D01*
X155057380Y-74771409D01*
X154845180Y-74626419D01*
X154593290Y-74575410D01*
X152894030Y-74575410D01*
X152658713Y-74619688D01*
X152442589Y-74758760D01*
X152297599Y-74970960D01*
X152246590Y-75222850D01*
X152246590Y-76922110D01*
X152290868Y-77157427D01*
X152429940Y-77373551D01*
X152642140Y-77518541D01*
X152894030Y-77569550D01*
X153989150Y-77569550D01*
X154323451Y-77903850D01*
X152772110Y-77903850D01*
X152536793Y-77948128D01*
X152320669Y-78087200D01*
X152175679Y-78299400D01*
X152124670Y-78551290D01*
X152124670Y-80250550D01*
X152168948Y-80485867D01*
X152308020Y-80701991D01*
X152520220Y-80846981D01*
X152736740Y-80890827D01*
X152736740Y-83196881D01*
X150084600Y-85849020D01*
X150084600Y-82600805D01*
X150084601Y-82600800D01*
X150017233Y-82262126D01*
X150017233Y-82262125D01*
X149825390Y-81975010D01*
X149825387Y-81975008D01*
X149094000Y-81243620D01*
X149094000Y-78824822D01*
X149094317Y-78824762D01*
X149310441Y-78685690D01*
X149455431Y-78473490D01*
X149506440Y-78221600D01*
X149506440Y-76921600D01*
X149462162Y-76686283D01*
X149323090Y-76470159D01*
X149110890Y-76325169D01*
X149094000Y-76321749D01*
X149094000Y-73061380D01*
X150282587Y-71872792D01*
X150282590Y-71872790D01*
X150474433Y-71585675D01*
X150541800Y-71247000D01*
X150541800Y-66206496D01*
X152258772Y-66206496D01*
X152484318Y-66752357D01*
X152901586Y-67170354D01*
X153447053Y-67396852D01*
X154037676Y-67397368D01*
X154583537Y-67171822D01*
X155001534Y-66754554D01*
X155228032Y-66209087D01*
X155228548Y-65618464D01*
X155003002Y-65072603D01*
X154585734Y-64654606D01*
X154040267Y-64428108D01*
X153449644Y-64427592D01*
X152903783Y-64653138D01*
X152485786Y-65070406D01*
X152259288Y-65615873D01*
X152258772Y-66206496D01*
X150541800Y-66206496D01*
X150541800Y-62382400D01*
X152037455Y-62382400D01*
X152163130Y-63014210D01*
X152521022Y-63549833D01*
X153056645Y-63907725D01*
X153688455Y-64033400D01*
X153753145Y-64033400D01*
X154384955Y-63907725D01*
X154920578Y-63549833D01*
X155278470Y-63014210D01*
X155404145Y-62382400D01*
X155278470Y-61750590D01*
X155051301Y-61410608D01*
X155188241Y-61322490D01*
X155333231Y-61110290D01*
X155384240Y-60858400D01*
X155384240Y-58826400D01*
X155339962Y-58591083D01*
X155200890Y-58374959D01*
X154988690Y-58229969D01*
X154736800Y-58178960D01*
X152704800Y-58178960D01*
X152469483Y-58223238D01*
X152253359Y-58362310D01*
X152108369Y-58574510D01*
X152057360Y-58826400D01*
X152057360Y-60858400D01*
X152101638Y-61093717D01*
X152240710Y-61309841D01*
X152389637Y-61411598D01*
X152163130Y-61750590D01*
X152037455Y-62382400D01*
X150541800Y-62382400D01*
X150541800Y-59456805D01*
X150541801Y-59456800D01*
X150484075Y-59166600D01*
X150474433Y-59118125D01*
X150282590Y-58831010D01*
X150282587Y-58831008D01*
X148250640Y-56799060D01*
X148250640Y-55523600D01*
X148206362Y-55288283D01*
X148067290Y-55072159D01*
X147855090Y-54927169D01*
X147603200Y-54876160D01*
X145876000Y-54876160D01*
X145640683Y-54920438D01*
X145424559Y-55059510D01*
X145279569Y-55271710D01*
X145228560Y-55523600D01*
X145228560Y-57555600D01*
X145272838Y-57790917D01*
X145411910Y-58007041D01*
X145624110Y-58152031D01*
X145876000Y-58203040D01*
X147151460Y-58203040D01*
X148771800Y-59823379D01*
X148771800Y-70880421D01*
X147625289Y-72026931D01*
X147664601Y-71829300D01*
X147664600Y-71829295D01*
X147664600Y-70500726D01*
X147839270Y-70384015D01*
X148164126Y-69897834D01*
X148278200Y-69324345D01*
X148278200Y-68954855D01*
X148164126Y-68381366D01*
X147839270Y-67895185D01*
X147353089Y-67570329D01*
X146779600Y-67456255D01*
X146206111Y-67570329D01*
X145719930Y-67895185D01*
X145395074Y-68381366D01*
X145281000Y-68954855D01*
X145281000Y-69324345D01*
X145395074Y-69897834D01*
X145719930Y-70384015D01*
X145894600Y-70500726D01*
X145894600Y-71462721D01*
X145083210Y-72274110D01*
X144891367Y-72561225D01*
X144891367Y-72561226D01*
X144823999Y-72899900D01*
X144824000Y-72899905D01*
X144824000Y-76639376D01*
X144620265Y-76842755D01*
X144424223Y-77314876D01*
X144423777Y-77826081D01*
X144618995Y-78298543D01*
X144980155Y-78660335D01*
X145452276Y-78856377D01*
X145963481Y-78856823D01*
X146435943Y-78661605D01*
X146797735Y-78300445D01*
X146911560Y-78026324D01*
X146911560Y-78221600D01*
X146955838Y-78456917D01*
X147094910Y-78673041D01*
X147307110Y-78818031D01*
X147324000Y-78821451D01*
X147324000Y-81610195D01*
X147323999Y-81610200D01*
X147361602Y-81799238D01*
X147391367Y-81948875D01*
X147554084Y-82192400D01*
X147583210Y-82235990D01*
X148314600Y-82967379D01*
X148314600Y-84413550D01*
X148220200Y-84350474D01*
X148220200Y-83936805D01*
X148220201Y-83936800D01*
X148152834Y-83598126D01*
X148058516Y-83456969D01*
X147960990Y-83311010D01*
X147960987Y-83311008D01*
X144102900Y-79452920D01*
X144102900Y-76809605D01*
X144102901Y-76809600D01*
X144035534Y-76470926D01*
X143956338Y-76352400D01*
X143843690Y-76183810D01*
X143843687Y-76183808D01*
X142243490Y-74583610D01*
X142176410Y-74538789D01*
X141956375Y-74391767D01*
X141900184Y-74380590D01*
X141617700Y-74324399D01*
X141617695Y-74324400D01*
X138950700Y-74324400D01*
X138612025Y-74391767D01*
X138324910Y-74583610D01*
X138324908Y-74583613D01*
X136929810Y-75978710D01*
X136737967Y-76265825D01*
X136737967Y-76265826D01*
X136718682Y-76362778D01*
X136466865Y-76614155D01*
X136270823Y-77086276D01*
X136270377Y-77597481D01*
X136465595Y-78069943D01*
X136826755Y-78431735D01*
X137298876Y-78627777D01*
X137810081Y-78628223D01*
X138282543Y-78433005D01*
X138644335Y-78071845D01*
X138758160Y-77797724D01*
X138758160Y-77993000D01*
X138802438Y-78228317D01*
X138941510Y-78444441D01*
X139153710Y-78589431D01*
X139170600Y-78592851D01*
X139170600Y-80261021D01*
X129933663Y-89497957D01*
X130219726Y-89069834D01*
X130333800Y-88496345D01*
X130333800Y-88126855D01*
X130219726Y-87553366D01*
X129894870Y-87067185D01*
X129811681Y-87011600D01*
X129894870Y-86956015D01*
X130219726Y-86469834D01*
X130333800Y-85896345D01*
X130333800Y-85526855D01*
X130219726Y-84953366D01*
X129894870Y-84467185D01*
X129408689Y-84142329D01*
X128835200Y-84028255D01*
X128261711Y-84142329D01*
X127775530Y-84467185D01*
X127450674Y-84953366D01*
X127336600Y-85526855D01*
X127336600Y-85896345D01*
X127450674Y-86469834D01*
X127775530Y-86956015D01*
X127858719Y-87011600D01*
X127775530Y-87067185D01*
X127450674Y-87553366D01*
X127336600Y-88126855D01*
X127336600Y-88496345D01*
X127346932Y-88548288D01*
X126247210Y-89648010D01*
X126055367Y-89935125D01*
X126055367Y-89935126D01*
X125987999Y-90273800D01*
X125988000Y-90273805D01*
X125988000Y-99303021D01*
X124601420Y-100689600D01*
X115747805Y-100689600D01*
X115747800Y-100689599D01*
X115409125Y-100756967D01*
X115122010Y-100948810D01*
X115122008Y-100948813D01*
X112687359Y-103383461D01*
X112369600Y-103320255D01*
X111796111Y-103434329D01*
X111309930Y-103759185D01*
X110985074Y-104245366D01*
X110871000Y-104818855D01*
X110871000Y-105188345D01*
X110985074Y-105761834D01*
X111309930Y-106248015D01*
X111796111Y-106572871D01*
X112369600Y-106686945D01*
X112943089Y-106572871D01*
X113429270Y-106248015D01*
X113639600Y-105933234D01*
X113849930Y-106248015D01*
X114336111Y-106572871D01*
X114909600Y-106686945D01*
X115483089Y-106572871D01*
X115969270Y-106248015D01*
X115978843Y-106233687D01*
X115982838Y-106254917D01*
X116121910Y-106471041D01*
X116334110Y-106616031D01*
X116586000Y-106667040D01*
X118313200Y-106667040D01*
X118548517Y-106622762D01*
X118764641Y-106483690D01*
X118909631Y-106271490D01*
X118960640Y-106019600D01*
X118960640Y-103987600D01*
X118916362Y-103752283D01*
X118777290Y-103536159D01*
X118707246Y-103488300D01*
X125543495Y-103488300D01*
X125543500Y-103488301D01*
X125825984Y-103432110D01*
X125882175Y-103420933D01*
X126169290Y-103229090D01*
X128475069Y-100923310D01*
X128835200Y-100994945D01*
X129408689Y-100880871D01*
X129432441Y-100865000D01*
X132908455Y-100865000D01*
X133022529Y-101438489D01*
X133347385Y-101924670D01*
X133662166Y-102135000D01*
X133347385Y-102345330D01*
X133022529Y-102831511D01*
X132908455Y-103405000D01*
X133022529Y-103978489D01*
X133347385Y-104464670D01*
X133833566Y-104789526D01*
X134407055Y-104903600D01*
X134776545Y-104903600D01*
X135350034Y-104789526D01*
X135836215Y-104464670D01*
X136161071Y-103978489D01*
X136275145Y-103405000D01*
X136161071Y-102831511D01*
X135836215Y-102345330D01*
X135521434Y-102135000D01*
X135836215Y-101924670D01*
X136161071Y-101438489D01*
X136275145Y-100865000D01*
X136161071Y-100291511D01*
X135836215Y-99805330D01*
X135821887Y-99795757D01*
X135843117Y-99791762D01*
X136059241Y-99652690D01*
X136204231Y-99440490D01*
X136255240Y-99188600D01*
X136255240Y-97461400D01*
X136210962Y-97226083D01*
X136071890Y-97009959D01*
X135859690Y-96864969D01*
X135607800Y-96813960D01*
X133575800Y-96813960D01*
X133340483Y-96858238D01*
X133124359Y-96997310D01*
X132979369Y-97209510D01*
X132928360Y-97461400D01*
X132928360Y-99188600D01*
X132972638Y-99423917D01*
X133111710Y-99640041D01*
X133323910Y-99785031D01*
X133365239Y-99793400D01*
X133347385Y-99805330D01*
X133022529Y-100291511D01*
X132908455Y-100865000D01*
X129432441Y-100865000D01*
X129894870Y-100556015D01*
X130219726Y-100069834D01*
X130333800Y-99496345D01*
X130333800Y-99126855D01*
X130219726Y-98553366D01*
X129894870Y-98067185D01*
X129811681Y-98011600D01*
X129894870Y-97956015D01*
X130219726Y-97469834D01*
X130333800Y-96896345D01*
X130333800Y-96526855D01*
X130219726Y-95953366D01*
X129894870Y-95467185D01*
X129408689Y-95142329D01*
X128835200Y-95028255D01*
X128261711Y-95142329D01*
X127775530Y-95467185D01*
X127758000Y-95493420D01*
X127758000Y-93488240D01*
X129722000Y-93488240D01*
X129957317Y-93443962D01*
X130173441Y-93304890D01*
X130318431Y-93092690D01*
X130369440Y-92840800D01*
X130369440Y-91565340D01*
X140681387Y-81253392D01*
X140681390Y-81253390D01*
X140873233Y-80966275D01*
X140891056Y-80876673D01*
X140940601Y-80627600D01*
X140940600Y-80627595D01*
X140940600Y-78596222D01*
X140940917Y-78596162D01*
X141157041Y-78457090D01*
X141302031Y-78244890D01*
X141353040Y-77993000D01*
X141353040Y-76693000D01*
X141308762Y-76457683D01*
X141169690Y-76241559D01*
X140957490Y-76096569D01*
X140946779Y-76094400D01*
X141251120Y-76094400D01*
X142332900Y-77176179D01*
X142332900Y-79819495D01*
X142332899Y-79819500D01*
X142386873Y-80090838D01*
X142400267Y-80158175D01*
X142557171Y-80393000D01*
X142592110Y-80445290D01*
X146450200Y-84303379D01*
X146450200Y-84350474D01*
X146275530Y-84467185D01*
X145950674Y-84953366D01*
X145836600Y-85526855D01*
X145836600Y-85896345D01*
X145950674Y-86469834D01*
X146275530Y-86956015D01*
X146358719Y-87011600D01*
X146275530Y-87067185D01*
X145950674Y-87553366D01*
X145836600Y-88126855D01*
X145836600Y-88496345D01*
X145950674Y-89069834D01*
X146275530Y-89556015D01*
X146761711Y-89880871D01*
X147335200Y-89994945D01*
X147908689Y-89880871D01*
X148314600Y-89609650D01*
X148314600Y-90692421D01*
X146739566Y-92267454D01*
X146789345Y-92017200D01*
X146675271Y-91443711D01*
X146350415Y-90957530D01*
X145864234Y-90632674D01*
X145290745Y-90518600D01*
X144921255Y-90518600D01*
X144347766Y-90632674D01*
X143861585Y-90957530D01*
X143536729Y-91443711D01*
X143422655Y-92017200D01*
X143536729Y-92590689D01*
X143861585Y-93076870D01*
X144347766Y-93401726D01*
X144921255Y-93515800D01*
X145290745Y-93515800D01*
X145540999Y-93466021D01*
X141738408Y-97268612D01*
X141736215Y-97265330D01*
X141250034Y-96940474D01*
X140676545Y-96826400D01*
X140307055Y-96826400D01*
X139733566Y-96940474D01*
X139247385Y-97265330D01*
X138922529Y-97751511D01*
X138808455Y-98325000D01*
X138922529Y-98898489D01*
X139247385Y-99384670D01*
X139562166Y-99595000D01*
X139247385Y-99805330D01*
X138922529Y-100291511D01*
X138808455Y-100865000D01*
X138922529Y-101438489D01*
X139247385Y-101924670D01*
X139562166Y-102135000D01*
X139247385Y-102345330D01*
X138922529Y-102831511D01*
X138808455Y-103405000D01*
X138922529Y-103978489D01*
X139247385Y-104464670D01*
X139733566Y-104789526D01*
X140307055Y-104903600D01*
X140676545Y-104903600D01*
X141250034Y-104789526D01*
X141736215Y-104464670D01*
X142061071Y-103978489D01*
X142175145Y-103405000D01*
X142061071Y-102831511D01*
X141736215Y-102345330D01*
X141421434Y-102135000D01*
X141736215Y-101924670D01*
X141852926Y-101750000D01*
X144084821Y-101750000D01*
X144281208Y-101946387D01*
X144281210Y-101946390D01*
X144568325Y-102138233D01*
X144624516Y-102149410D01*
X144907000Y-102205601D01*
X144907005Y-102205600D01*
X148843995Y-102205600D01*
X148844000Y-102205601D01*
X149126484Y-102149410D01*
X149182675Y-102138233D01*
X149469790Y-101946390D01*
X149803206Y-101612974D01*
X149428664Y-102514973D01*
X149427738Y-103575972D01*
X149832909Y-104556561D01*
X150582493Y-105307455D01*
X151562373Y-105714336D01*
X152623372Y-105715262D01*
X153603961Y-105310091D01*
X154354855Y-104560507D01*
X154761736Y-103580627D01*
X154762662Y-102519628D01*
X154357491Y-101539039D01*
X153607907Y-100788145D01*
X152628027Y-100381264D01*
X151567028Y-100380338D01*
X150661815Y-100754364D01*
X152009787Y-99406392D01*
X152009790Y-99406390D01*
X152201633Y-99119275D01*
X152269000Y-98780600D01*
X152269000Y-97450214D01*
X152597222Y-97941433D01*
X153132845Y-98299325D01*
X153764655Y-98425000D01*
X153829345Y-98425000D01*
X154461155Y-98299325D01*
X154996778Y-97941433D01*
X155354670Y-97405810D01*
X155480345Y-96774000D01*
X155354670Y-96142190D01*
X155127501Y-95802208D01*
X155264441Y-95714090D01*
X155409431Y-95501890D01*
X155460440Y-95250000D01*
X155460440Y-93218000D01*
X155416162Y-92982683D01*
X155277090Y-92766559D01*
X155064890Y-92621569D01*
X154813000Y-92570560D01*
X152781000Y-92570560D01*
X152545683Y-92614838D01*
X152329559Y-92753910D01*
X152269000Y-92842541D01*
X152269000Y-90174757D01*
X152362398Y-90400797D01*
X152779666Y-90818794D01*
X153325133Y-91045292D01*
X153915756Y-91045808D01*
X154461617Y-90820262D01*
X154879614Y-90402994D01*
X155106112Y-89857527D01*
X155106628Y-89266904D01*
X154881082Y-88721043D01*
X154463814Y-88303046D01*
X153918347Y-88076548D01*
X153327724Y-88076032D01*
X152781863Y-88301578D01*
X152363866Y-88718846D01*
X152269000Y-88947308D01*
X152269000Y-88021980D01*
X156302387Y-83988592D01*
X156302390Y-83988590D01*
X156389000Y-83858968D01*
X156389000Y-107367000D01*
X67766000Y-107367000D01*
X67766000Y-103575972D01*
X69392338Y-103575972D01*
X69797509Y-104556561D01*
X70547093Y-105307455D01*
X71526973Y-105714336D01*
X72587972Y-105715262D01*
X73568561Y-105310091D01*
X73958877Y-104920455D01*
X87998300Y-104920455D01*
X87998300Y-105289945D01*
X88112374Y-105863434D01*
X88437230Y-106349615D01*
X88923411Y-106674471D01*
X89496900Y-106788545D01*
X90070389Y-106674471D01*
X90556570Y-106349615D01*
X90766900Y-106034834D01*
X90977230Y-106349615D01*
X91463411Y-106674471D01*
X92036900Y-106788545D01*
X92610389Y-106674471D01*
X93096570Y-106349615D01*
X93111400Y-106327420D01*
X93174973Y-106480898D01*
X93353601Y-106659527D01*
X93586990Y-106756200D01*
X94291150Y-106756200D01*
X94449900Y-106597450D01*
X94449900Y-105232200D01*
X94703900Y-105232200D01*
X94703900Y-106597450D01*
X94862650Y-106756200D01*
X95566810Y-106756200D01*
X95800199Y-106659527D01*
X95978827Y-106480898D01*
X96075500Y-106247509D01*
X96075500Y-105390950D01*
X95916750Y-105232200D01*
X94703900Y-105232200D01*
X94449900Y-105232200D01*
X94429900Y-105232200D01*
X94429900Y-104978200D01*
X94449900Y-104978200D01*
X94449900Y-103612950D01*
X94703900Y-103612950D01*
X94703900Y-104978200D01*
X95916750Y-104978200D01*
X96050695Y-104844255D01*
X99872800Y-104844255D01*
X99872800Y-105213745D01*
X99986874Y-105787234D01*
X100311730Y-106273415D01*
X100797911Y-106598271D01*
X101371400Y-106712345D01*
X101944889Y-106598271D01*
X102431070Y-106273415D01*
X102641400Y-105958634D01*
X102851730Y-106273415D01*
X103337911Y-106598271D01*
X103911400Y-106712345D01*
X104484889Y-106598271D01*
X104971070Y-106273415D01*
X104985900Y-106251220D01*
X105049473Y-106404698D01*
X105228101Y-106583327D01*
X105461490Y-106680000D01*
X106165650Y-106680000D01*
X106324400Y-106521250D01*
X106324400Y-105156000D01*
X106578400Y-105156000D01*
X106578400Y-106521250D01*
X106737150Y-106680000D01*
X107441310Y-106680000D01*
X107674699Y-106583327D01*
X107853327Y-106404698D01*
X107950000Y-106171309D01*
X107950000Y-105314750D01*
X107791250Y-105156000D01*
X106578400Y-105156000D01*
X106324400Y-105156000D01*
X106304400Y-105156000D01*
X106304400Y-104902000D01*
X106324400Y-104902000D01*
X106324400Y-103536750D01*
X106578400Y-103536750D01*
X106578400Y-104902000D01*
X107791250Y-104902000D01*
X107950000Y-104743250D01*
X107950000Y-103886691D01*
X107853327Y-103653302D01*
X107674699Y-103474673D01*
X107441310Y-103378000D01*
X106737150Y-103378000D01*
X106578400Y-103536750D01*
X106324400Y-103536750D01*
X106165650Y-103378000D01*
X105461490Y-103378000D01*
X105228101Y-103474673D01*
X105049473Y-103653302D01*
X104985900Y-103806780D01*
X104971070Y-103784585D01*
X104484889Y-103459729D01*
X103911400Y-103345655D01*
X103337911Y-103459729D01*
X102851730Y-103784585D01*
X102641400Y-104099366D01*
X102431070Y-103784585D01*
X101944889Y-103459729D01*
X101371400Y-103345655D01*
X100797911Y-103459729D01*
X100311730Y-103784585D01*
X99986874Y-104270766D01*
X99872800Y-104844255D01*
X96050695Y-104844255D01*
X96075500Y-104819450D01*
X96075500Y-103962891D01*
X95978827Y-103729502D01*
X95800199Y-103550873D01*
X95566810Y-103454200D01*
X94862650Y-103454200D01*
X94703900Y-103612950D01*
X94449900Y-103612950D01*
X94291150Y-103454200D01*
X93586990Y-103454200D01*
X93353601Y-103550873D01*
X93174973Y-103729502D01*
X93111400Y-103882980D01*
X93096570Y-103860785D01*
X92610389Y-103535929D01*
X92036900Y-103421855D01*
X91463411Y-103535929D01*
X90977230Y-103860785D01*
X90766900Y-104175566D01*
X90556570Y-103860785D01*
X90070389Y-103535929D01*
X89496900Y-103421855D01*
X88923411Y-103535929D01*
X88437230Y-103860785D01*
X88112374Y-104346966D01*
X87998300Y-104920455D01*
X73958877Y-104920455D01*
X74319455Y-104560507D01*
X74726336Y-103580627D01*
X74727262Y-102519628D01*
X74322091Y-101539039D01*
X74287862Y-101504750D01*
X86179400Y-101504750D01*
X86179400Y-102145310D01*
X86276073Y-102378699D01*
X86454702Y-102557327D01*
X86688091Y-102654000D01*
X87528650Y-102654000D01*
X87687400Y-102495250D01*
X87687400Y-101346000D01*
X87941400Y-101346000D01*
X87941400Y-102495250D01*
X88100150Y-102654000D01*
X88940709Y-102654000D01*
X89174098Y-102557327D01*
X89352727Y-102378699D01*
X89449400Y-102145310D01*
X89449400Y-101504750D01*
X89290650Y-101346000D01*
X87941400Y-101346000D01*
X87687400Y-101346000D01*
X86338150Y-101346000D01*
X86179400Y-101504750D01*
X74287862Y-101504750D01*
X73572507Y-100788145D01*
X72592627Y-100381264D01*
X71531628Y-100380338D01*
X70551039Y-100785509D01*
X69800145Y-101535093D01*
X69393264Y-102514973D01*
X69392338Y-103575972D01*
X67766000Y-103575972D01*
X67766000Y-98196150D01*
X74257000Y-98196150D01*
X74257000Y-99036709D01*
X74353673Y-99270098D01*
X74532301Y-99448727D01*
X74765690Y-99545400D01*
X75406250Y-99545400D01*
X75565000Y-99386650D01*
X75565000Y-98037400D01*
X74415750Y-98037400D01*
X74257000Y-98196150D01*
X67766000Y-98196150D01*
X67766000Y-58496200D01*
X68175600Y-58496200D01*
X68175600Y-85191600D01*
X68233452Y-85482439D01*
X68398199Y-85729001D01*
X70329119Y-87659921D01*
X70431441Y-88174329D01*
X70739778Y-88635789D01*
X71135199Y-88900000D01*
X70739778Y-89164211D01*
X70431441Y-89625671D01*
X70323167Y-90170000D01*
X70431441Y-90714329D01*
X70739778Y-91175789D01*
X71135199Y-91440000D01*
X70739778Y-91704211D01*
X70431441Y-92165671D01*
X70323167Y-92710000D01*
X70431441Y-93254329D01*
X70739778Y-93715789D01*
X70911460Y-93830503D01*
X70757683Y-93859438D01*
X70541559Y-93998510D01*
X70396569Y-94210710D01*
X70345560Y-94462600D01*
X70345560Y-96037400D01*
X70389838Y-96272717D01*
X70528910Y-96488841D01*
X70741110Y-96633831D01*
X70993000Y-96684840D01*
X73279000Y-96684840D01*
X73514317Y-96640562D01*
X73730441Y-96501490D01*
X73875431Y-96289290D01*
X73926440Y-96037400D01*
X73926440Y-96010000D01*
X75046998Y-96010000D01*
X75312398Y-96275400D01*
X74765690Y-96275400D01*
X74532301Y-96372073D01*
X74353673Y-96550702D01*
X74257000Y-96784091D01*
X74257000Y-97624650D01*
X74415750Y-97783400D01*
X75565000Y-97783400D01*
X75565000Y-97763400D01*
X75819000Y-97763400D01*
X75819000Y-97783400D01*
X75839000Y-97783400D01*
X75839000Y-98037400D01*
X75819000Y-98037400D01*
X75819000Y-99386650D01*
X75977750Y-99545400D01*
X76618310Y-99545400D01*
X76851699Y-99448727D01*
X77030327Y-99270098D01*
X77050778Y-99220725D01*
X77097515Y-99455689D01*
X77422371Y-99941870D01*
X77908552Y-100266726D01*
X78482041Y-100380800D01*
X78540759Y-100380800D01*
X79114248Y-100266726D01*
X79579842Y-99955626D01*
X79584638Y-99981117D01*
X79723710Y-100197241D01*
X79935910Y-100342231D01*
X80187800Y-100393240D01*
X81915000Y-100393240D01*
X82150317Y-100348962D01*
X82237766Y-100292690D01*
X86179400Y-100292690D01*
X86179400Y-100933250D01*
X86338150Y-101092000D01*
X87687400Y-101092000D01*
X87687400Y-99942750D01*
X87941400Y-99942750D01*
X87941400Y-101092000D01*
X89290650Y-101092000D01*
X89449400Y-100933250D01*
X89449400Y-100419000D01*
X90166960Y-100419000D01*
X90166960Y-102019000D01*
X90211238Y-102254317D01*
X90350310Y-102470441D01*
X90562510Y-102615431D01*
X90814400Y-102666440D01*
X92814400Y-102666440D01*
X93049717Y-102622162D01*
X93265841Y-102483090D01*
X93410831Y-102270890D01*
X93461840Y-102019000D01*
X93461840Y-100419000D01*
X93417562Y-100183683D01*
X93278490Y-99967559D01*
X93066290Y-99822569D01*
X92814400Y-99771560D01*
X90814400Y-99771560D01*
X90579083Y-99815838D01*
X90362959Y-99954910D01*
X90217969Y-100167110D01*
X90166960Y-100419000D01*
X89449400Y-100419000D01*
X89449400Y-100292690D01*
X89352727Y-100059301D01*
X89174098Y-99880673D01*
X88940709Y-99784000D01*
X88100150Y-99784000D01*
X87941400Y-99942750D01*
X87687400Y-99942750D01*
X87528650Y-99784000D01*
X86688091Y-99784000D01*
X86454702Y-99880673D01*
X86276073Y-100059301D01*
X86179400Y-100292690D01*
X82237766Y-100292690D01*
X82366441Y-100209890D01*
X82511431Y-99997690D01*
X82562440Y-99745800D01*
X82562440Y-98423000D01*
X90081100Y-98423000D01*
X90371939Y-98365148D01*
X90618501Y-98200401D01*
X91151901Y-97667001D01*
X91316648Y-97420439D01*
X91374500Y-97129600D01*
X91374500Y-94354302D01*
X92909199Y-95889001D01*
X93155761Y-96053748D01*
X93446600Y-96111600D01*
X94687537Y-96111600D01*
X94719673Y-96143792D01*
X95063201Y-96286438D01*
X95435167Y-96286762D01*
X95636928Y-96203396D01*
X95597560Y-96397800D01*
X95597560Y-96997800D01*
X95641838Y-97233117D01*
X95705678Y-97332328D01*
X95648569Y-97415910D01*
X95597560Y-97667800D01*
X95597560Y-98267800D01*
X95641838Y-98503117D01*
X95705678Y-98602328D01*
X95648569Y-98685910D01*
X95597560Y-98937800D01*
X95597560Y-99537800D01*
X95641838Y-99773117D01*
X95780910Y-99989241D01*
X95993110Y-100134231D01*
X96245000Y-100185240D01*
X97745000Y-100185240D01*
X97980317Y-100140962D01*
X98196441Y-100001890D01*
X98199236Y-99997800D01*
X99970781Y-99997800D01*
X100028273Y-100055392D01*
X100371801Y-100198038D01*
X100743767Y-100198362D01*
X101087543Y-100056317D01*
X101170673Y-99973332D01*
X101180910Y-99989241D01*
X101393110Y-100134231D01*
X101635000Y-100183215D01*
X101635000Y-100274805D01*
X101449408Y-100460073D01*
X101306762Y-100803601D01*
X101306438Y-101175567D01*
X101448483Y-101519343D01*
X101711273Y-101782592D01*
X102054801Y-101925238D01*
X102426767Y-101925562D01*
X102770543Y-101783517D01*
X103033792Y-101520727D01*
X103176438Y-101177199D01*
X103176762Y-100805233D01*
X103155000Y-100752565D01*
X103155000Y-100183358D01*
X103380317Y-100140962D01*
X103596441Y-100001890D01*
X103741431Y-99789690D01*
X103792440Y-99537800D01*
X103792440Y-98937800D01*
X103752926Y-98727800D01*
X123240800Y-98727800D01*
X123531639Y-98669948D01*
X123778201Y-98505201D01*
X124845001Y-97438401D01*
X125009748Y-97191839D01*
X125067600Y-96901000D01*
X125067600Y-89509600D01*
X125009748Y-89218761D01*
X124845001Y-88972199D01*
X124108571Y-88235769D01*
X124107159Y-88228671D01*
X123798822Y-87767211D01*
X123403401Y-87503000D01*
X123798822Y-87238789D01*
X124107159Y-86777329D01*
X124215433Y-86233000D01*
X124107159Y-85688671D01*
X123798822Y-85227211D01*
X123403401Y-84963000D01*
X123798822Y-84698789D01*
X124107159Y-84237329D01*
X124215433Y-83693000D01*
X124107159Y-83148671D01*
X123798822Y-82687211D01*
X123403401Y-82423000D01*
X123798822Y-82158789D01*
X123976427Y-81892984D01*
X124166639Y-81855148D01*
X124413201Y-81690401D01*
X125962601Y-80141002D01*
X126073153Y-79975548D01*
X126127348Y-79894439D01*
X126185200Y-79603600D01*
X126185200Y-78242016D01*
X128682790Y-78242016D01*
X128738471Y-78472611D01*
X129221278Y-78640622D01*
X129731628Y-78611083D01*
X130065929Y-78472611D01*
X130121610Y-78242016D01*
X129402200Y-77522605D01*
X128682790Y-78242016D01*
X126185200Y-78242016D01*
X126185200Y-77162078D01*
X128104578Y-77162078D01*
X128134117Y-77672428D01*
X128272589Y-78006729D01*
X128503184Y-78062410D01*
X129222595Y-77343000D01*
X128503184Y-76623590D01*
X128272589Y-76679271D01*
X128104578Y-77162078D01*
X126185200Y-77162078D01*
X126185200Y-76443984D01*
X128682790Y-76443984D01*
X129402200Y-77163395D01*
X130121610Y-76443984D01*
X130065929Y-76213389D01*
X129583122Y-76045378D01*
X129072772Y-76074917D01*
X128738471Y-76213389D01*
X128682790Y-76443984D01*
X126185200Y-76443984D01*
X126185200Y-66454855D01*
X127681000Y-66454855D01*
X127681000Y-66824345D01*
X127795074Y-67397834D01*
X128119930Y-67884015D01*
X128294600Y-68000726D01*
X128294600Y-70048395D01*
X128294599Y-70048400D01*
X128337806Y-70265610D01*
X128361967Y-70387075D01*
X128424296Y-70480357D01*
X128553810Y-70674190D01*
X131017200Y-73137579D01*
X131017200Y-76089778D01*
X131016883Y-76089838D01*
X130800759Y-76228910D01*
X130655769Y-76441110D01*
X130604760Y-76693000D01*
X130604760Y-76855385D01*
X130531811Y-76679271D01*
X130301216Y-76623590D01*
X129581805Y-77343000D01*
X130301216Y-78062410D01*
X130531811Y-78006729D01*
X130604760Y-77797098D01*
X130604760Y-77993000D01*
X130649038Y-78228317D01*
X130788110Y-78444441D01*
X131000310Y-78589431D01*
X131252200Y-78640440D01*
X132552200Y-78640440D01*
X132787517Y-78596162D01*
X133003641Y-78457090D01*
X133148631Y-78244890D01*
X133199640Y-77993000D01*
X133199640Y-76693000D01*
X133155362Y-76457683D01*
X133016290Y-76241559D01*
X132804090Y-76096569D01*
X132787200Y-76093149D01*
X132787200Y-72771005D01*
X132787201Y-72771000D01*
X132719833Y-72432326D01*
X132719833Y-72432325D01*
X132527990Y-72145210D01*
X132527987Y-72145208D01*
X130064600Y-69681820D01*
X130064600Y-68000726D01*
X130239270Y-67884015D01*
X130564126Y-67397834D01*
X130678200Y-66824345D01*
X130678200Y-66454855D01*
X130564126Y-65881366D01*
X130239270Y-65395185D01*
X129753089Y-65070329D01*
X129179600Y-64956255D01*
X128606111Y-65070329D01*
X128119930Y-65395185D01*
X127795074Y-65881366D01*
X127681000Y-66454855D01*
X126185200Y-66454855D01*
X126185200Y-59563000D01*
X126153078Y-59401513D01*
X127694416Y-59401513D01*
X127887646Y-59953920D01*
X128277564Y-60390332D01*
X128804809Y-60644309D01*
X128820574Y-60646958D01*
X129052600Y-60525817D01*
X129052600Y-59166600D01*
X129306600Y-59166600D01*
X129306600Y-60525817D01*
X129538626Y-60646958D01*
X129554391Y-60644309D01*
X130081636Y-60390332D01*
X130471554Y-59953920D01*
X130664784Y-59401513D01*
X130520524Y-59166600D01*
X129306600Y-59166600D01*
X129052600Y-59166600D01*
X127838676Y-59166600D01*
X127694416Y-59401513D01*
X126153078Y-59401513D01*
X126127348Y-59272161D01*
X125962601Y-59025599D01*
X125614689Y-58677687D01*
X127694416Y-58677687D01*
X127838676Y-58912600D01*
X129052600Y-58912600D01*
X129052600Y-57553383D01*
X129306600Y-57553383D01*
X129306600Y-58912600D01*
X130520524Y-58912600D01*
X130664784Y-58677687D01*
X130471554Y-58125280D01*
X130081636Y-57688868D01*
X129554391Y-57434891D01*
X129538626Y-57432242D01*
X129306600Y-57553383D01*
X129052600Y-57553383D01*
X128820574Y-57432242D01*
X128804809Y-57434891D01*
X128277564Y-57688868D01*
X127887646Y-58125280D01*
X127694416Y-58677687D01*
X125614689Y-58677687D01*
X120551174Y-53614172D01*
X149402338Y-53614172D01*
X149807509Y-54594761D01*
X150557093Y-55345655D01*
X151536973Y-55752536D01*
X152597972Y-55753462D01*
X153578561Y-55348291D01*
X154329455Y-54598707D01*
X154736336Y-53618827D01*
X154737262Y-52557828D01*
X154332091Y-51577239D01*
X153582507Y-50826345D01*
X152602627Y-50419464D01*
X151541628Y-50418538D01*
X150561039Y-50823709D01*
X149810145Y-51573293D01*
X149403264Y-52553173D01*
X149402338Y-53614172D01*
X120551174Y-53614172D01*
X118854202Y-51917200D01*
X127022655Y-51917200D01*
X127136729Y-52490689D01*
X127461585Y-52976870D01*
X127947766Y-53301726D01*
X128521255Y-53415800D01*
X128890745Y-53415800D01*
X129464234Y-53301726D01*
X129950415Y-52976870D01*
X130275271Y-52490689D01*
X130369453Y-52017200D01*
X143422655Y-52017200D01*
X143536729Y-52590689D01*
X143861585Y-53076870D01*
X144347766Y-53401726D01*
X144921255Y-53515800D01*
X145290745Y-53515800D01*
X145864234Y-53401726D01*
X146350415Y-53076870D01*
X146675271Y-52590689D01*
X146789345Y-52017200D01*
X146675271Y-51443711D01*
X146350415Y-50957530D01*
X145864234Y-50632674D01*
X145290745Y-50518600D01*
X144921255Y-50518600D01*
X144347766Y-50632674D01*
X143861585Y-50957530D01*
X143536729Y-51443711D01*
X143422655Y-52017200D01*
X130369453Y-52017200D01*
X130389345Y-51917200D01*
X130275271Y-51343711D01*
X129950415Y-50857530D01*
X129464234Y-50532674D01*
X128890745Y-50418600D01*
X128521255Y-50418600D01*
X127947766Y-50532674D01*
X127461585Y-50857530D01*
X127136729Y-51343711D01*
X127022655Y-51917200D01*
X118854202Y-51917200D01*
X117885401Y-50948399D01*
X117638839Y-50783652D01*
X117348000Y-50725800D01*
X115226840Y-50725800D01*
X115226840Y-50469800D01*
X115182562Y-50234483D01*
X115043490Y-50018359D01*
X114831290Y-49873369D01*
X114579400Y-49822360D01*
X112852200Y-49822360D01*
X112616883Y-49866638D01*
X112400759Y-50005710D01*
X112255769Y-50217910D01*
X112247400Y-50259239D01*
X112235470Y-50241385D01*
X111749289Y-49916529D01*
X111175800Y-49802455D01*
X110602311Y-49916529D01*
X110116130Y-50241385D01*
X109905800Y-50556166D01*
X109695470Y-50241385D01*
X109209289Y-49916529D01*
X108635800Y-49802455D01*
X108062311Y-49916529D01*
X107576130Y-50241385D01*
X107365800Y-50556166D01*
X107155470Y-50241385D01*
X106669289Y-49916529D01*
X106095800Y-49802455D01*
X105522311Y-49916529D01*
X105036130Y-50241385D01*
X104825800Y-50556166D01*
X104615470Y-50241385D01*
X104129289Y-49916529D01*
X103555800Y-49802455D01*
X102982311Y-49916529D01*
X102496130Y-50241385D01*
X102285800Y-50556166D01*
X102075470Y-50241385D01*
X101589289Y-49916529D01*
X101015800Y-49802455D01*
X100442311Y-49916529D01*
X99956130Y-50241385D01*
X99631274Y-50727566D01*
X99517200Y-51301055D01*
X99517200Y-51670545D01*
X99631274Y-52244034D01*
X99956130Y-52730215D01*
X100442311Y-53055071D01*
X101015800Y-53169145D01*
X101589289Y-53055071D01*
X102075470Y-52730215D01*
X102285800Y-52415434D01*
X102496130Y-52730215D01*
X102982311Y-53055071D01*
X103555800Y-53169145D01*
X104129289Y-53055071D01*
X104615470Y-52730215D01*
X104825800Y-52415434D01*
X105036130Y-52730215D01*
X105522311Y-53055071D01*
X106095800Y-53169145D01*
X106669289Y-53055071D01*
X107155470Y-52730215D01*
X107365800Y-52415434D01*
X107576130Y-52730215D01*
X108062311Y-53055071D01*
X108635800Y-53169145D01*
X109209289Y-53055071D01*
X109695470Y-52730215D01*
X109905800Y-52415434D01*
X110116130Y-52730215D01*
X110602311Y-53055071D01*
X110857412Y-53105814D01*
X112924399Y-55172801D01*
X113170960Y-55337548D01*
X113461800Y-55395400D01*
X118938198Y-55395400D01*
X122993217Y-59450419D01*
X122793033Y-59410600D01*
X122012167Y-59410600D01*
X121467838Y-59518874D01*
X121006378Y-59827211D01*
X120698041Y-60288671D01*
X120589767Y-60833000D01*
X120698041Y-61377329D01*
X121006378Y-61838789D01*
X121401799Y-62103000D01*
X121006378Y-62367211D01*
X120698041Y-62828671D01*
X120589767Y-63373000D01*
X120698041Y-63917329D01*
X121006378Y-64378789D01*
X121401799Y-64643000D01*
X121006378Y-64907211D01*
X120698041Y-65368671D01*
X120589767Y-65913000D01*
X120698041Y-66457329D01*
X121006378Y-66918789D01*
X121401430Y-67182754D01*
X121385338Y-67187475D01*
X120951409Y-67537014D01*
X120684273Y-68026004D01*
X120667590Y-68105940D01*
X120789748Y-68326000D01*
X122275600Y-68326000D01*
X122275600Y-68306000D01*
X122529600Y-68306000D01*
X122529600Y-68326000D01*
X122549600Y-68326000D01*
X122549600Y-68580000D01*
X122529600Y-68580000D01*
X122529600Y-68600000D01*
X122275600Y-68600000D01*
X122275600Y-68580000D01*
X120789748Y-68580000D01*
X120667590Y-68800060D01*
X120684273Y-68879996D01*
X120951409Y-69368986D01*
X121385338Y-69718525D01*
X121401430Y-69723246D01*
X121006378Y-69987211D01*
X120698041Y-70448671D01*
X120589767Y-70993000D01*
X120698041Y-71537329D01*
X121006378Y-71998789D01*
X121401799Y-72263000D01*
X121006378Y-72527211D01*
X120698041Y-72988671D01*
X120589767Y-73533000D01*
X120698041Y-74077329D01*
X121006378Y-74538789D01*
X121401799Y-74803000D01*
X121006378Y-75067211D01*
X120698041Y-75528671D01*
X120589767Y-76073000D01*
X120698041Y-76617329D01*
X121006378Y-77078789D01*
X121401799Y-77343000D01*
X121006378Y-77607211D01*
X120698041Y-78068671D01*
X120589767Y-78613000D01*
X120698041Y-79157329D01*
X121006378Y-79618789D01*
X121401799Y-79883000D01*
X121006378Y-80147211D01*
X120698041Y-80608671D01*
X120589767Y-81153000D01*
X120698041Y-81697329D01*
X121006378Y-82158789D01*
X121401799Y-82423000D01*
X121006378Y-82687211D01*
X120698041Y-83148671D01*
X120589767Y-83693000D01*
X120698041Y-84237329D01*
X121006378Y-84698789D01*
X121401799Y-84963000D01*
X121006378Y-85227211D01*
X120698041Y-85688671D01*
X120589767Y-86233000D01*
X120698041Y-86777329D01*
X121006378Y-87238789D01*
X121401799Y-87503000D01*
X121006378Y-87767211D01*
X120698041Y-88228671D01*
X120589767Y-88773000D01*
X120698041Y-89317329D01*
X121006378Y-89778789D01*
X121401799Y-90043000D01*
X121115800Y-90234098D01*
X120292400Y-89410698D01*
X120292400Y-86931500D01*
X120234548Y-86640661D01*
X120069801Y-86394099D01*
X115561301Y-81885599D01*
X115314739Y-81720852D01*
X115023900Y-81663000D01*
X108873987Y-81663000D01*
X108975433Y-81153000D01*
X108867159Y-80608671D01*
X108558822Y-80147211D01*
X108163401Y-79883000D01*
X108558822Y-79618789D01*
X108867159Y-79157329D01*
X108975433Y-78613000D01*
X108867159Y-78068671D01*
X108558822Y-77607211D01*
X108163401Y-77343000D01*
X108558822Y-77078789D01*
X108867159Y-76617329D01*
X108975433Y-76073000D01*
X108867159Y-75528671D01*
X108558822Y-75067211D01*
X108163401Y-74803000D01*
X108558822Y-74538789D01*
X108867159Y-74077329D01*
X108975433Y-73533000D01*
X108867159Y-72988671D01*
X108558822Y-72527211D01*
X108163401Y-72263000D01*
X108558822Y-71998789D01*
X108867159Y-71537329D01*
X108975433Y-70993000D01*
X108867159Y-70448671D01*
X108558822Y-69987211D01*
X108163401Y-69723000D01*
X108485720Y-69507634D01*
X113780343Y-69507634D01*
X114180653Y-70476458D01*
X114921243Y-71218342D01*
X115889367Y-71620342D01*
X116937634Y-71621257D01*
X117906458Y-71220947D01*
X118648342Y-70480357D01*
X119050342Y-69512233D01*
X119051257Y-68463966D01*
X118650947Y-67495142D01*
X117910357Y-66753258D01*
X116942233Y-66351258D01*
X115893966Y-66350343D01*
X114925142Y-66750653D01*
X114183258Y-67491243D01*
X113781258Y-68459367D01*
X113780343Y-69507634D01*
X108485720Y-69507634D01*
X108558822Y-69458789D01*
X108867159Y-68997329D01*
X108975433Y-68453000D01*
X108867159Y-67908671D01*
X108558822Y-67447211D01*
X108163401Y-67183000D01*
X108558822Y-66918789D01*
X108867159Y-66457329D01*
X108975433Y-65913000D01*
X108867159Y-65368671D01*
X108558822Y-64907211D01*
X108163770Y-64643246D01*
X108179862Y-64638525D01*
X108613791Y-64288986D01*
X108880927Y-63799996D01*
X108897610Y-63720060D01*
X108775452Y-63500000D01*
X107289600Y-63500000D01*
X107289600Y-63520000D01*
X107035600Y-63520000D01*
X107035600Y-63500000D01*
X105549748Y-63500000D01*
X105427590Y-63720060D01*
X105444273Y-63799996D01*
X105711409Y-64288986D01*
X106145338Y-64638525D01*
X106161430Y-64643246D01*
X105766378Y-64907211D01*
X105458041Y-65368671D01*
X105349767Y-65913000D01*
X105458041Y-66457329D01*
X105766378Y-66918789D01*
X106161799Y-67183000D01*
X105766378Y-67447211D01*
X105458041Y-67908671D01*
X105349767Y-68453000D01*
X105458041Y-68997329D01*
X105766378Y-69458789D01*
X106161799Y-69723000D01*
X105766378Y-69987211D01*
X105458041Y-70448671D01*
X105349767Y-70993000D01*
X105458041Y-71537329D01*
X105766378Y-71998789D01*
X106161799Y-72263000D01*
X105766378Y-72527211D01*
X105458041Y-72988671D01*
X105349767Y-73533000D01*
X105458041Y-74077329D01*
X105766378Y-74538789D01*
X106161799Y-74803000D01*
X105766378Y-75067211D01*
X105458041Y-75528671D01*
X105349767Y-76073000D01*
X105458041Y-76617329D01*
X105766378Y-77078789D01*
X106161799Y-77343000D01*
X105766378Y-77607211D01*
X105458041Y-78068671D01*
X105365302Y-78534900D01*
X104359901Y-77529499D01*
X104113339Y-77364752D01*
X103822500Y-77306900D01*
X100609400Y-77306900D01*
X100318561Y-77364752D01*
X100071999Y-77529499D01*
X98814040Y-78787458D01*
X98814040Y-78592400D01*
X98769762Y-78357083D01*
X98705922Y-78257872D01*
X98763031Y-78174290D01*
X98814040Y-77922400D01*
X98814040Y-77322400D01*
X98769762Y-77087083D01*
X98705922Y-76987872D01*
X98763031Y-76904290D01*
X98814040Y-76652400D01*
X98814040Y-76052400D01*
X98769762Y-75817083D01*
X98711422Y-75726420D01*
X98801600Y-75508710D01*
X98801600Y-75368150D01*
X98642850Y-75209400D01*
X97543600Y-75209400D01*
X97543600Y-75229400D01*
X97289600Y-75229400D01*
X97289600Y-75209400D01*
X96190350Y-75209400D01*
X96031600Y-75368150D01*
X96031600Y-75508710D01*
X96121406Y-75725522D01*
X96070169Y-75800510D01*
X96062927Y-75836271D01*
X94763399Y-77135799D01*
X94654692Y-77298490D01*
X93414040Y-76057838D01*
X93414040Y-76052400D01*
X93369762Y-75817083D01*
X93311422Y-75726420D01*
X93401600Y-75508710D01*
X93401600Y-75368150D01*
X93242850Y-75209400D01*
X92143600Y-75209400D01*
X92143600Y-75229400D01*
X91889600Y-75229400D01*
X91889600Y-75209400D01*
X90790350Y-75209400D01*
X90631600Y-75368150D01*
X90631600Y-75508710D01*
X90721406Y-75725522D01*
X90670169Y-75800510D01*
X90619160Y-76052400D01*
X90619160Y-76652400D01*
X90663438Y-76887717D01*
X90727278Y-76986928D01*
X90670169Y-77070510D01*
X90619160Y-77322400D01*
X90619160Y-77922400D01*
X90663438Y-78157717D01*
X90727278Y-78256928D01*
X90670169Y-78340510D01*
X90619160Y-78592400D01*
X90619160Y-79192400D01*
X90663438Y-79427717D01*
X90727278Y-79526928D01*
X90670169Y-79610510D01*
X90619160Y-79862400D01*
X90619160Y-80091059D01*
X90365833Y-80090838D01*
X90022057Y-80232883D01*
X89758808Y-80495673D01*
X89616162Y-80839201D01*
X89615838Y-81211167D01*
X89757883Y-81554943D01*
X90020673Y-81818192D01*
X90364201Y-81960838D01*
X90411077Y-81960879D01*
X90419999Y-81969801D01*
X90666560Y-82134548D01*
X90679339Y-82137090D01*
X90670169Y-82150510D01*
X90619160Y-82402400D01*
X90619160Y-83002400D01*
X90663438Y-83237717D01*
X90721778Y-83328380D01*
X90631600Y-83546090D01*
X90631600Y-83686650D01*
X90790350Y-83845400D01*
X91889600Y-83845400D01*
X91889600Y-83825400D01*
X92143600Y-83825400D01*
X92143600Y-83845400D01*
X92163600Y-83845400D01*
X92163600Y-84099400D01*
X92143600Y-84099400D01*
X92143600Y-84748650D01*
X92212474Y-84817524D01*
X91308999Y-85720999D01*
X91144252Y-85967561D01*
X91086400Y-86258400D01*
X91086400Y-90915647D01*
X90801299Y-90797262D01*
X90429333Y-90796938D01*
X90085557Y-90938983D01*
X89822308Y-91201773D01*
X89679662Y-91545301D01*
X89679621Y-91592177D01*
X89084801Y-92186997D01*
X89080559Y-92165671D01*
X88772222Y-91704211D01*
X88376801Y-91440000D01*
X88772222Y-91175789D01*
X89080559Y-90714329D01*
X89188833Y-90170000D01*
X89080559Y-89625671D01*
X88772222Y-89164211D01*
X88376801Y-88900000D01*
X88772222Y-88635789D01*
X89080559Y-88174329D01*
X89188833Y-87630000D01*
X89080559Y-87085671D01*
X88772222Y-86624211D01*
X88376801Y-86360000D01*
X88772222Y-86095789D01*
X89080559Y-85634329D01*
X89188833Y-85090000D01*
X89080559Y-84545671D01*
X88888445Y-84258150D01*
X90631600Y-84258150D01*
X90631600Y-84398710D01*
X90728273Y-84632099D01*
X90906902Y-84810727D01*
X91140291Y-84907400D01*
X91730850Y-84907400D01*
X91889600Y-84748650D01*
X91889600Y-84099400D01*
X90790350Y-84099400D01*
X90631600Y-84258150D01*
X88888445Y-84258150D01*
X88772222Y-84084211D01*
X88376801Y-83820000D01*
X88772222Y-83555789D01*
X89080559Y-83094329D01*
X89188833Y-82550000D01*
X89080559Y-82005671D01*
X88772222Y-81544211D01*
X88376801Y-81280000D01*
X88772222Y-81015789D01*
X89080559Y-80554329D01*
X89188833Y-80010000D01*
X89080559Y-79465671D01*
X88772222Y-79004211D01*
X88376801Y-78740000D01*
X88772222Y-78475789D01*
X89080559Y-78014329D01*
X89188833Y-77470000D01*
X89080559Y-76925671D01*
X88772222Y-76464211D01*
X88376801Y-76200000D01*
X88772222Y-75935789D01*
X89080559Y-75474329D01*
X89188833Y-74930000D01*
X89134349Y-74656090D01*
X90631600Y-74656090D01*
X90631600Y-74796650D01*
X90790350Y-74955400D01*
X91889600Y-74955400D01*
X91889600Y-74306150D01*
X92143600Y-74306150D01*
X92143600Y-74955400D01*
X93242850Y-74955400D01*
X93401600Y-74796650D01*
X93401600Y-74656090D01*
X96031600Y-74656090D01*
X96031600Y-74796650D01*
X96190350Y-74955400D01*
X97289600Y-74955400D01*
X97289600Y-74306150D01*
X97543600Y-74306150D01*
X97543600Y-74955400D01*
X98642850Y-74955400D01*
X98801600Y-74796650D01*
X98801600Y-74656090D01*
X98704927Y-74422701D01*
X98526298Y-74244073D01*
X98292909Y-74147400D01*
X97702350Y-74147400D01*
X97543600Y-74306150D01*
X97289600Y-74306150D01*
X97130850Y-74147400D01*
X96540291Y-74147400D01*
X96306902Y-74244073D01*
X96128273Y-74422701D01*
X96031600Y-74656090D01*
X93401600Y-74656090D01*
X93304927Y-74422701D01*
X93126298Y-74244073D01*
X92892909Y-74147400D01*
X92302350Y-74147400D01*
X92143600Y-74306150D01*
X91889600Y-74306150D01*
X91730850Y-74147400D01*
X91140291Y-74147400D01*
X90906902Y-74244073D01*
X90728273Y-74422701D01*
X90631600Y-74656090D01*
X89134349Y-74656090D01*
X89080559Y-74385671D01*
X88772222Y-73924211D01*
X88376801Y-73660000D01*
X88772222Y-73395789D01*
X89080559Y-72934329D01*
X89188833Y-72390000D01*
X89080559Y-71845671D01*
X88772222Y-71384211D01*
X88376801Y-71120000D01*
X88772222Y-70855789D01*
X89080559Y-70394329D01*
X89188833Y-69850000D01*
X89120733Y-69507634D01*
X95780343Y-69507634D01*
X96180653Y-70476458D01*
X96921243Y-71218342D01*
X97889367Y-71620342D01*
X98937634Y-71621257D01*
X99906458Y-71220947D01*
X100648342Y-70480357D01*
X101050342Y-69512233D01*
X101051257Y-68463966D01*
X100650947Y-67495142D01*
X99910357Y-66753258D01*
X98942233Y-66351258D01*
X97893966Y-66350343D01*
X96925142Y-66750653D01*
X96183258Y-67491243D01*
X95781258Y-68459367D01*
X95780343Y-69507634D01*
X89120733Y-69507634D01*
X89080559Y-69305671D01*
X88772222Y-68844211D01*
X88377170Y-68580246D01*
X88393262Y-68575525D01*
X88827191Y-68225986D01*
X89094327Y-67736996D01*
X89111010Y-67657060D01*
X88988852Y-67437000D01*
X87503000Y-67437000D01*
X87503000Y-67457000D01*
X87249000Y-67457000D01*
X87249000Y-67437000D01*
X87229000Y-67437000D01*
X87229000Y-67183000D01*
X87249000Y-67183000D01*
X87249000Y-67163000D01*
X87503000Y-67163000D01*
X87503000Y-67183000D01*
X88988852Y-67183000D01*
X89111010Y-66962940D01*
X89094327Y-66883004D01*
X88827191Y-66394014D01*
X88393262Y-66044475D01*
X88377170Y-66039754D01*
X88772222Y-65775789D01*
X89080559Y-65314329D01*
X89188833Y-64770000D01*
X89080559Y-64225671D01*
X88772222Y-63764211D01*
X88376801Y-63500000D01*
X88772222Y-63235789D01*
X89080559Y-62774329D01*
X89188833Y-62230000D01*
X89080559Y-61685671D01*
X88772222Y-61224211D01*
X88376801Y-60960000D01*
X88772222Y-60695789D01*
X89080559Y-60234329D01*
X89087765Y-60198100D01*
X91742260Y-60198100D01*
X91742260Y-61798100D01*
X91786538Y-62033417D01*
X91925610Y-62249541D01*
X92137810Y-62394531D01*
X92389700Y-62445540D01*
X94389700Y-62445540D01*
X94625017Y-62401262D01*
X94841141Y-62262190D01*
X94986131Y-62049990D01*
X95037140Y-61798100D01*
X95037140Y-61283850D01*
X95754700Y-61283850D01*
X95754700Y-61924410D01*
X95851373Y-62157799D01*
X96030002Y-62336427D01*
X96263391Y-62433100D01*
X97103950Y-62433100D01*
X97262700Y-62274350D01*
X97262700Y-61125100D01*
X97516700Y-61125100D01*
X97516700Y-62274350D01*
X97675450Y-62433100D01*
X98516009Y-62433100D01*
X98749398Y-62336427D01*
X98928027Y-62157799D01*
X99024700Y-61924410D01*
X99024700Y-61283850D01*
X98865950Y-61125100D01*
X97516700Y-61125100D01*
X97262700Y-61125100D01*
X95913450Y-61125100D01*
X95754700Y-61283850D01*
X95037140Y-61283850D01*
X95037140Y-60198100D01*
X95013374Y-60071790D01*
X95754700Y-60071790D01*
X95754700Y-60712350D01*
X95913450Y-60871100D01*
X97262700Y-60871100D01*
X97262700Y-59721850D01*
X97516700Y-59721850D01*
X97516700Y-60871100D01*
X98865950Y-60871100D01*
X98904050Y-60833000D01*
X105349767Y-60833000D01*
X105458041Y-61377329D01*
X105766378Y-61838789D01*
X106161430Y-62102754D01*
X106145338Y-62107475D01*
X105711409Y-62457014D01*
X105444273Y-62946004D01*
X105427590Y-63025940D01*
X105549748Y-63246000D01*
X107035600Y-63246000D01*
X107035600Y-63226000D01*
X107289600Y-63226000D01*
X107289600Y-63246000D01*
X108775452Y-63246000D01*
X108897610Y-63025940D01*
X108880927Y-62946004D01*
X108613791Y-62457014D01*
X108179862Y-62107475D01*
X108163770Y-62102754D01*
X108558822Y-61838789D01*
X108867159Y-61377329D01*
X108975433Y-60833000D01*
X108867159Y-60288671D01*
X108558822Y-59827211D01*
X108097362Y-59518874D01*
X107553033Y-59410600D01*
X106772167Y-59410600D01*
X106227838Y-59518874D01*
X105766378Y-59827211D01*
X105458041Y-60288671D01*
X105349767Y-60833000D01*
X98904050Y-60833000D01*
X99024700Y-60712350D01*
X99024700Y-60071790D01*
X98928027Y-59838401D01*
X98749398Y-59659773D01*
X98516009Y-59563100D01*
X97675450Y-59563100D01*
X97516700Y-59721850D01*
X97262700Y-59721850D01*
X97103950Y-59563100D01*
X96263391Y-59563100D01*
X96030002Y-59659773D01*
X95851373Y-59838401D01*
X95754700Y-60071790D01*
X95013374Y-60071790D01*
X94992862Y-59962783D01*
X94853790Y-59746659D01*
X94641590Y-59601669D01*
X94389700Y-59550660D01*
X92389700Y-59550660D01*
X92154383Y-59594938D01*
X91938259Y-59734010D01*
X91793269Y-59946210D01*
X91742260Y-60198100D01*
X89087765Y-60198100D01*
X89188833Y-59690000D01*
X89080559Y-59145671D01*
X88772222Y-58684211D01*
X88310762Y-58375874D01*
X87766433Y-58267600D01*
X86985567Y-58267600D01*
X86441238Y-58375874D01*
X85979778Y-58684211D01*
X85793459Y-58963057D01*
X83201701Y-56371299D01*
X82955139Y-56206552D01*
X82664300Y-56148700D01*
X82505840Y-56148700D01*
X82604759Y-55651400D01*
X82490685Y-55077911D01*
X82165829Y-54591730D01*
X81851048Y-54381400D01*
X82165829Y-54171070D01*
X82490685Y-53684889D01*
X82604759Y-53111400D01*
X82490685Y-52537911D01*
X82165829Y-52051730D01*
X81851048Y-51841400D01*
X82165829Y-51631070D01*
X82490685Y-51144889D01*
X82604759Y-50571400D01*
X82490685Y-49997911D01*
X82407223Y-49873000D01*
X87030560Y-49873000D01*
X87030560Y-51473000D01*
X87074838Y-51708317D01*
X87213910Y-51924441D01*
X87426110Y-52069431D01*
X87678000Y-52120440D01*
X87793000Y-52120440D01*
X87793000Y-52806960D01*
X87716100Y-52806960D01*
X87480783Y-52851238D01*
X87264659Y-52990310D01*
X87119669Y-53202510D01*
X87068660Y-53454400D01*
X87068660Y-55054400D01*
X87112938Y-55289717D01*
X87252010Y-55505841D01*
X87464210Y-55650831D01*
X87716100Y-55701840D01*
X89716100Y-55701840D01*
X89951417Y-55657562D01*
X90167541Y-55518490D01*
X90312531Y-55306290D01*
X90363540Y-55054400D01*
X90363540Y-54540150D01*
X91081100Y-54540150D01*
X91081100Y-55180710D01*
X91177773Y-55414099D01*
X91356402Y-55592727D01*
X91589791Y-55689400D01*
X92430350Y-55689400D01*
X92589100Y-55530650D01*
X92589100Y-54381400D01*
X92843100Y-54381400D01*
X92843100Y-55530650D01*
X93001850Y-55689400D01*
X93842409Y-55689400D01*
X94075798Y-55592727D01*
X94254427Y-55414099D01*
X94351100Y-55180710D01*
X94351100Y-54540150D01*
X94192350Y-54381400D01*
X92843100Y-54381400D01*
X92589100Y-54381400D01*
X91239850Y-54381400D01*
X91081100Y-54540150D01*
X90363540Y-54540150D01*
X90363540Y-53454400D01*
X90339774Y-53328090D01*
X91081100Y-53328090D01*
X91081100Y-53968650D01*
X91239850Y-54127400D01*
X92589100Y-54127400D01*
X92589100Y-52978150D01*
X92843100Y-52978150D01*
X92843100Y-54127400D01*
X94192350Y-54127400D01*
X94351100Y-53968650D01*
X94351100Y-53328090D01*
X94254427Y-53094701D01*
X94075798Y-52916073D01*
X93842409Y-52819400D01*
X93001850Y-52819400D01*
X92843100Y-52978150D01*
X92589100Y-52978150D01*
X92430350Y-52819400D01*
X91589791Y-52819400D01*
X91356402Y-52916073D01*
X91177773Y-53094701D01*
X91081100Y-53328090D01*
X90339774Y-53328090D01*
X90319262Y-53219083D01*
X90180190Y-53002959D01*
X89967990Y-52857969D01*
X89716100Y-52806960D01*
X89563000Y-52806960D01*
X89563000Y-52120440D01*
X89678000Y-52120440D01*
X89913317Y-52076162D01*
X90129441Y-51937090D01*
X90274431Y-51724890D01*
X90325440Y-51473000D01*
X90325440Y-50958750D01*
X91043000Y-50958750D01*
X91043000Y-51599310D01*
X91139673Y-51832699D01*
X91318302Y-52011327D01*
X91551691Y-52108000D01*
X92392250Y-52108000D01*
X92551000Y-51949250D01*
X92551000Y-50800000D01*
X92805000Y-50800000D01*
X92805000Y-51949250D01*
X92963750Y-52108000D01*
X93804309Y-52108000D01*
X94037698Y-52011327D01*
X94216327Y-51832699D01*
X94313000Y-51599310D01*
X94313000Y-50958750D01*
X94154250Y-50800000D01*
X92805000Y-50800000D01*
X92551000Y-50800000D01*
X91201750Y-50800000D01*
X91043000Y-50958750D01*
X90325440Y-50958750D01*
X90325440Y-49873000D01*
X90301674Y-49746690D01*
X91043000Y-49746690D01*
X91043000Y-50387250D01*
X91201750Y-50546000D01*
X92551000Y-50546000D01*
X92551000Y-49396750D01*
X92805000Y-49396750D01*
X92805000Y-50546000D01*
X94154250Y-50546000D01*
X94313000Y-50387250D01*
X94313000Y-49746690D01*
X94216327Y-49513301D01*
X94037698Y-49334673D01*
X93804309Y-49238000D01*
X92963750Y-49238000D01*
X92805000Y-49396750D01*
X92551000Y-49396750D01*
X92392250Y-49238000D01*
X91551691Y-49238000D01*
X91318302Y-49334673D01*
X91139673Y-49513301D01*
X91043000Y-49746690D01*
X90301674Y-49746690D01*
X90281162Y-49637683D01*
X90142090Y-49421559D01*
X89929890Y-49276569D01*
X89678000Y-49225560D01*
X87678000Y-49225560D01*
X87442683Y-49269838D01*
X87226559Y-49408910D01*
X87081569Y-49621110D01*
X87030560Y-49873000D01*
X82407223Y-49873000D01*
X82165829Y-49511730D01*
X81679648Y-49186874D01*
X81106159Y-49072800D01*
X81047441Y-49072800D01*
X80473952Y-49186874D01*
X79987771Y-49511730D01*
X79806808Y-49782561D01*
X79425290Y-49364579D01*
X78895827Y-49116432D01*
X78663800Y-49236931D01*
X78663800Y-50444400D01*
X78683800Y-50444400D01*
X78683800Y-50698400D01*
X78663800Y-50698400D01*
X78663800Y-50718400D01*
X78409800Y-50718400D01*
X78409800Y-50698400D01*
X77202983Y-50698400D01*
X77081842Y-50930426D01*
X77254112Y-51346347D01*
X77648310Y-51778221D01*
X77771028Y-51835736D01*
X77447771Y-52051730D01*
X77122915Y-52537911D01*
X77091834Y-52694164D01*
X73903998Y-55882000D01*
X70789800Y-55882000D01*
X70498961Y-55939852D01*
X70252399Y-56104599D01*
X68398199Y-57958799D01*
X68233452Y-58205361D01*
X68175600Y-58496200D01*
X67766000Y-58496200D01*
X67766000Y-53614172D01*
X69392338Y-53614172D01*
X69797509Y-54594761D01*
X70547093Y-55345655D01*
X71526973Y-55752536D01*
X72587972Y-55753462D01*
X73568561Y-55348291D01*
X74319455Y-54598707D01*
X74726336Y-53618827D01*
X74727262Y-52557828D01*
X74322091Y-51577239D01*
X73572507Y-50826345D01*
X72592627Y-50419464D01*
X71531628Y-50418538D01*
X70551039Y-50823709D01*
X69800145Y-51573293D01*
X69393264Y-52553173D01*
X69392338Y-53614172D01*
X67766000Y-53614172D01*
X67766000Y-50212374D01*
X77081842Y-50212374D01*
X77202983Y-50444400D01*
X78409800Y-50444400D01*
X78409800Y-49236931D01*
X78177773Y-49116432D01*
X77648310Y-49364579D01*
X77254112Y-49796453D01*
X77081842Y-50212374D01*
X67766000Y-50212374D01*
X67766000Y-48766800D01*
X156389000Y-48766800D01*
X156389000Y-77509252D01*
G36*
X84482400Y-94516098D02*
X82560255Y-96438243D01*
X82579359Y-96342200D01*
X82465285Y-95768711D01*
X82140429Y-95282530D01*
X81825648Y-95072200D01*
X82140429Y-94861870D01*
X82465285Y-94375689D01*
X82521593Y-94092609D01*
X83443001Y-93171201D01*
X83607748Y-92924639D01*
X83665600Y-92633800D01*
X83665600Y-90576400D01*
X83637414Y-90434700D01*
X83607748Y-90285560D01*
X83443001Y-90038999D01*
X82412526Y-89008524D01*
X82481400Y-88939650D01*
X82481400Y-88290400D01*
X82735400Y-88290400D01*
X82735400Y-88939650D01*
X82894150Y-89098400D01*
X83484709Y-89098400D01*
X83718098Y-89001727D01*
X83896727Y-88823099D01*
X83993400Y-88589710D01*
X83993400Y-88449150D01*
X83834650Y-88290400D01*
X82735400Y-88290400D01*
X82481400Y-88290400D01*
X82461400Y-88290400D01*
X82461400Y-88036400D01*
X82481400Y-88036400D01*
X82481400Y-88016400D01*
X82735400Y-88016400D01*
X82735400Y-88036400D01*
X83834650Y-88036400D01*
X83839609Y-88031441D01*
X84208367Y-88031762D01*
X84482400Y-87918534D01*
X84482400Y-94516098D01*
X84482400Y-94516098D01*
G37*
X84482400Y-94516098D02*
X82560255Y-96438243D01*
X82579359Y-96342200D01*
X82465285Y-95768711D01*
X82140429Y-95282530D01*
X81825648Y-95072200D01*
X82140429Y-94861870D01*
X82465285Y-94375689D01*
X82521593Y-94092609D01*
X83443001Y-93171201D01*
X83607748Y-92924639D01*
X83665600Y-92633800D01*
X83665600Y-90576400D01*
X83637414Y-90434700D01*
X83607748Y-90285560D01*
X83443001Y-90038999D01*
X82412526Y-89008524D01*
X82481400Y-88939650D01*
X82481400Y-88290400D01*
X82735400Y-88290400D01*
X82735400Y-88939650D01*
X82894150Y-89098400D01*
X83484709Y-89098400D01*
X83718098Y-89001727D01*
X83896727Y-88823099D01*
X83993400Y-88589710D01*
X83993400Y-88449150D01*
X83834650Y-88290400D01*
X82735400Y-88290400D01*
X82481400Y-88290400D01*
X82461400Y-88290400D01*
X82461400Y-88036400D01*
X82481400Y-88036400D01*
X82481400Y-88016400D01*
X82735400Y-88016400D01*
X82735400Y-88036400D01*
X83834650Y-88036400D01*
X83839609Y-88031441D01*
X84208367Y-88031762D01*
X84482400Y-87918534D01*
X84482400Y-94516098D01*
G36*
X116971678Y-86448880D02*
X116971638Y-86494367D01*
X117113683Y-86838143D01*
X117376473Y-87101392D01*
X117720001Y-87244038D01*
X118091967Y-87244362D01*
X118435743Y-87102317D01*
X118532163Y-87006065D01*
X118772400Y-87246302D01*
X118772400Y-89725500D01*
X118830252Y-90016339D01*
X118994999Y-90262901D01*
X120582499Y-91850401D01*
X120782869Y-91984284D01*
X121006378Y-92318789D01*
X121401799Y-92583000D01*
X121006378Y-92847211D01*
X120698041Y-93308671D01*
X120589767Y-93853000D01*
X120698041Y-94397329D01*
X121006378Y-94858789D01*
X121401799Y-95123000D01*
X121006378Y-95387211D01*
X120842147Y-95633000D01*
X112913002Y-95633000D01*
X109363701Y-92083699D01*
X109117139Y-91918952D01*
X108860141Y-91867832D01*
X108867159Y-91857329D01*
X108975433Y-91313000D01*
X108867159Y-90768671D01*
X108558822Y-90307211D01*
X108163401Y-90043000D01*
X108558822Y-89778789D01*
X108867159Y-89317329D01*
X108975433Y-88773000D01*
X108893799Y-88362600D01*
X110199621Y-88362600D01*
X110206055Y-88369035D01*
X110255683Y-88489143D01*
X110518473Y-88752392D01*
X110862001Y-88895038D01*
X111233967Y-88895362D01*
X111577743Y-88753317D01*
X111840992Y-88490527D01*
X111983638Y-88146999D01*
X111983962Y-87775033D01*
X111841917Y-87431257D01*
X111579127Y-87168008D01*
X111457813Y-87117634D01*
X111191990Y-86851810D01*
X111129741Y-86810217D01*
X110904875Y-86659967D01*
X110807818Y-86640661D01*
X110566200Y-86592599D01*
X110566195Y-86592600D01*
X108903904Y-86592600D01*
X108975433Y-86233000D01*
X108867159Y-85688671D01*
X108813724Y-85608700D01*
X116131498Y-85608700D01*
X116971678Y-86448880D01*
X116971678Y-86448880D01*
G37*
X116971678Y-86448880D02*
X116971638Y-86494367D01*
X117113683Y-86838143D01*
X117376473Y-87101392D01*
X117720001Y-87244038D01*
X118091967Y-87244362D01*
X118435743Y-87102317D01*
X118532163Y-87006065D01*
X118772400Y-87246302D01*
X118772400Y-89725500D01*
X118830252Y-90016339D01*
X118994999Y-90262901D01*
X120582499Y-91850401D01*
X120782869Y-91984284D01*
X121006378Y-92318789D01*
X121401799Y-92583000D01*
X121006378Y-92847211D01*
X120698041Y-93308671D01*
X120589767Y-93853000D01*
X120698041Y-94397329D01*
X121006378Y-94858789D01*
X121401799Y-95123000D01*
X121006378Y-95387211D01*
X120842147Y-95633000D01*
X112913002Y-95633000D01*
X109363701Y-92083699D01*
X109117139Y-91918952D01*
X108860141Y-91867832D01*
X108867159Y-91857329D01*
X108975433Y-91313000D01*
X108867159Y-90768671D01*
X108558822Y-90307211D01*
X108163401Y-90043000D01*
X108558822Y-89778789D01*
X108867159Y-89317329D01*
X108975433Y-88773000D01*
X108893799Y-88362600D01*
X110199621Y-88362600D01*
X110206055Y-88369035D01*
X110255683Y-88489143D01*
X110518473Y-88752392D01*
X110862001Y-88895038D01*
X111233967Y-88895362D01*
X111577743Y-88753317D01*
X111840992Y-88490527D01*
X111983638Y-88146999D01*
X111983962Y-87775033D01*
X111841917Y-87431257D01*
X111579127Y-87168008D01*
X111457813Y-87117634D01*
X111191990Y-86851810D01*
X111129741Y-86810217D01*
X110904875Y-86659967D01*
X110807818Y-86640661D01*
X110566200Y-86592599D01*
X110566195Y-86592600D01*
X108903904Y-86592600D01*
X108975433Y-86233000D01*
X108867159Y-85688671D01*
X108813724Y-85608700D01*
X116131498Y-85608700D01*
X116971678Y-86448880D01*
G36*
X77122915Y-57617911D02*
X77008841Y-58191400D01*
X77122915Y-58764889D01*
X77447771Y-59251070D01*
X77762552Y-59461400D01*
X77447771Y-59671730D01*
X77122915Y-60157911D01*
X77008841Y-60731400D01*
X77122915Y-61304889D01*
X77447771Y-61791070D01*
X77762552Y-62001400D01*
X77447771Y-62211730D01*
X77209545Y-62568261D01*
X77204561Y-62569252D01*
X76957999Y-62733999D01*
X74456099Y-65235899D01*
X74291352Y-65482461D01*
X74233500Y-65773300D01*
X74233500Y-75615800D01*
X74291352Y-75906639D01*
X74456099Y-76153201D01*
X76094399Y-77791501D01*
X76340961Y-77956248D01*
X76631800Y-78014100D01*
X77917198Y-78014100D01*
X80983899Y-81080801D01*
X81230461Y-81245548D01*
X81267800Y-81252975D01*
X81261969Y-81261510D01*
X81210960Y-81513400D01*
X81210960Y-82113400D01*
X81255238Y-82348717D01*
X81304434Y-82425169D01*
X81123599Y-82545999D01*
X80744600Y-82924998D01*
X80744600Y-81940400D01*
X80699924Y-81715800D01*
X80686748Y-81649560D01*
X80522001Y-81402999D01*
X79125001Y-80005999D01*
X78878439Y-79841252D01*
X78587600Y-79783400D01*
X78563314Y-79783400D01*
X78605840Y-79573400D01*
X78605840Y-78973400D01*
X78561562Y-78738083D01*
X78422490Y-78521959D01*
X78210290Y-78376969D01*
X77958400Y-78325960D01*
X76458400Y-78325960D01*
X76223083Y-78370238D01*
X76006959Y-78509310D01*
X75861969Y-78721510D01*
X75810960Y-78973400D01*
X75810960Y-79573400D01*
X75855238Y-79808717D01*
X75919078Y-79907928D01*
X75861969Y-79991510D01*
X75810960Y-80243400D01*
X75810960Y-80843400D01*
X75850474Y-81053400D01*
X75820967Y-81053400D01*
X75748517Y-80878057D01*
X75485727Y-80614808D01*
X75142199Y-80472162D01*
X74770233Y-80471838D01*
X74426457Y-80613883D01*
X74163208Y-80876673D01*
X74020562Y-81220201D01*
X74020238Y-81592167D01*
X74162283Y-81935943D01*
X74425073Y-82199192D01*
X74768601Y-82341838D01*
X74815477Y-82341879D01*
X74824399Y-82350801D01*
X75070960Y-82515548D01*
X75361800Y-82573400D01*
X75853486Y-82573400D01*
X75810960Y-82783400D01*
X75810960Y-83383400D01*
X75855238Y-83618717D01*
X75919078Y-83717928D01*
X75861969Y-83801510D01*
X75810960Y-84053400D01*
X75810960Y-84653400D01*
X75855238Y-84888717D01*
X75919078Y-84987928D01*
X75861969Y-85071510D01*
X75810960Y-85323400D01*
X75810960Y-85923400D01*
X75855238Y-86158717D01*
X75919078Y-86257928D01*
X75861969Y-86341510D01*
X75810960Y-86593400D01*
X75810960Y-87193400D01*
X75855238Y-87428717D01*
X75919078Y-87527928D01*
X75861969Y-87611510D01*
X75810960Y-87863400D01*
X75810960Y-88463400D01*
X75855238Y-88698717D01*
X75994310Y-88914841D01*
X76206510Y-89059831D01*
X76458400Y-89110840D01*
X77958400Y-89110840D01*
X78193717Y-89066562D01*
X78409841Y-88927490D01*
X78429062Y-88899359D01*
X78599039Y-88865548D01*
X78845601Y-88700801D01*
X79225596Y-88320806D01*
X79282452Y-88606639D01*
X79447199Y-88853201D01*
X80467836Y-89873838D01*
X80448552Y-89877674D01*
X79962371Y-90202530D01*
X79781408Y-90473361D01*
X79399890Y-90055379D01*
X78870427Y-89807232D01*
X78638400Y-89927731D01*
X78638400Y-91135200D01*
X78658400Y-91135200D01*
X78658400Y-91389200D01*
X78638400Y-91389200D01*
X78638400Y-91409200D01*
X78384400Y-91409200D01*
X78384400Y-91389200D01*
X77177583Y-91389200D01*
X77056442Y-91621226D01*
X77228712Y-92037147D01*
X77622910Y-92469021D01*
X77745628Y-92526536D01*
X77422371Y-92742530D01*
X77233363Y-93025400D01*
X77139440Y-93025400D01*
X77139440Y-92910400D01*
X77095162Y-92675083D01*
X76956090Y-92458959D01*
X76743890Y-92313969D01*
X76492000Y-92262960D01*
X74892000Y-92262960D01*
X74656683Y-92307238D01*
X74440559Y-92446310D01*
X74295569Y-92658510D01*
X74283700Y-92717121D01*
X74124180Y-92557600D01*
X74717587Y-91964192D01*
X74717590Y-91964190D01*
X74909433Y-91677075D01*
X74976800Y-91338400D01*
X74976800Y-90903174D01*
X77056442Y-90903174D01*
X77177583Y-91135200D01*
X78384400Y-91135200D01*
X78384400Y-89927731D01*
X78152373Y-89807232D01*
X77622910Y-90055379D01*
X77228712Y-90487253D01*
X77056442Y-90903174D01*
X74976800Y-90903174D01*
X74976800Y-84101422D01*
X75026638Y-83981399D01*
X75026962Y-83609433D01*
X74884917Y-83265657D01*
X74622127Y-83002408D01*
X74278599Y-82859762D01*
X73906633Y-82859438D01*
X73885549Y-82868150D01*
X73948833Y-82550000D01*
X73840559Y-82005671D01*
X73532222Y-81544211D01*
X73136801Y-81280000D01*
X73532222Y-81015789D01*
X73840559Y-80554329D01*
X73948833Y-80010000D01*
X73840559Y-79465671D01*
X73532222Y-79004211D01*
X73136801Y-78740000D01*
X73532222Y-78475789D01*
X73840559Y-78014329D01*
X73948833Y-77470000D01*
X73840559Y-76925671D01*
X73532222Y-76464211D01*
X73136801Y-76200000D01*
X73532222Y-75935789D01*
X73840559Y-75474329D01*
X73948833Y-74930000D01*
X73840559Y-74385671D01*
X73532222Y-73924211D01*
X73136801Y-73660000D01*
X73532222Y-73395789D01*
X73840559Y-72934329D01*
X73948833Y-72390000D01*
X73840559Y-71845671D01*
X73532222Y-71384211D01*
X73136801Y-71120000D01*
X73532222Y-70855789D01*
X73840559Y-70394329D01*
X73948833Y-69850000D01*
X73840559Y-69305671D01*
X73532222Y-68844211D01*
X73136801Y-68580000D01*
X73532222Y-68315789D01*
X73840559Y-67854329D01*
X73948833Y-67310000D01*
X73840559Y-66765671D01*
X73532222Y-66304211D01*
X73136801Y-66040000D01*
X73532222Y-65775789D01*
X73840559Y-65314329D01*
X73948833Y-64770000D01*
X73840559Y-64225671D01*
X73532222Y-63764211D01*
X73137170Y-63500246D01*
X73153262Y-63495525D01*
X73587191Y-63145986D01*
X73854327Y-62656996D01*
X73871010Y-62577060D01*
X73748852Y-62357000D01*
X72263000Y-62357000D01*
X72263000Y-62377000D01*
X72009000Y-62377000D01*
X72009000Y-62357000D01*
X71989000Y-62357000D01*
X71989000Y-62103000D01*
X72009000Y-62103000D01*
X72009000Y-62083000D01*
X72263000Y-62083000D01*
X72263000Y-62103000D01*
X73748852Y-62103000D01*
X73871010Y-61882940D01*
X73854327Y-61803004D01*
X73587191Y-61314014D01*
X73153262Y-60964475D01*
X73137170Y-60959754D01*
X73532222Y-60695789D01*
X73840559Y-60234329D01*
X73948833Y-59690000D01*
X73840559Y-59145671D01*
X73761667Y-59027600D01*
X74752200Y-59027600D01*
X75043039Y-58969748D01*
X75289601Y-58805001D01*
X76489402Y-57605200D01*
X77131408Y-57605200D01*
X77122915Y-57617911D01*
X77122915Y-57617911D01*
G37*
X77122915Y-57617911D02*
X77008841Y-58191400D01*
X77122915Y-58764889D01*
X77447771Y-59251070D01*
X77762552Y-59461400D01*
X77447771Y-59671730D01*
X77122915Y-60157911D01*
X77008841Y-60731400D01*
X77122915Y-61304889D01*
X77447771Y-61791070D01*
X77762552Y-62001400D01*
X77447771Y-62211730D01*
X77209545Y-62568261D01*
X77204561Y-62569252D01*
X76957999Y-62733999D01*
X74456099Y-65235899D01*
X74291352Y-65482461D01*
X74233500Y-65773300D01*
X74233500Y-75615800D01*
X74291352Y-75906639D01*
X74456099Y-76153201D01*
X76094399Y-77791501D01*
X76340961Y-77956248D01*
X76631800Y-78014100D01*
X77917198Y-78014100D01*
X80983899Y-81080801D01*
X81230461Y-81245548D01*
X81267800Y-81252975D01*
X81261969Y-81261510D01*
X81210960Y-81513400D01*
X81210960Y-82113400D01*
X81255238Y-82348717D01*
X81304434Y-82425169D01*
X81123599Y-82545999D01*
X80744600Y-82924998D01*
X80744600Y-81940400D01*
X80699924Y-81715800D01*
X80686748Y-81649560D01*
X80522001Y-81402999D01*
X79125001Y-80005999D01*
X78878439Y-79841252D01*
X78587600Y-79783400D01*
X78563314Y-79783400D01*
X78605840Y-79573400D01*
X78605840Y-78973400D01*
X78561562Y-78738083D01*
X78422490Y-78521959D01*
X78210290Y-78376969D01*
X77958400Y-78325960D01*
X76458400Y-78325960D01*
X76223083Y-78370238D01*
X76006959Y-78509310D01*
X75861969Y-78721510D01*
X75810960Y-78973400D01*
X75810960Y-79573400D01*
X75855238Y-79808717D01*
X75919078Y-79907928D01*
X75861969Y-79991510D01*
X75810960Y-80243400D01*
X75810960Y-80843400D01*
X75850474Y-81053400D01*
X75820967Y-81053400D01*
X75748517Y-80878057D01*
X75485727Y-80614808D01*
X75142199Y-80472162D01*
X74770233Y-80471838D01*
X74426457Y-80613883D01*
X74163208Y-80876673D01*
X74020562Y-81220201D01*
X74020238Y-81592167D01*
X74162283Y-81935943D01*
X74425073Y-82199192D01*
X74768601Y-82341838D01*
X74815477Y-82341879D01*
X74824399Y-82350801D01*
X75070960Y-82515548D01*
X75361800Y-82573400D01*
X75853486Y-82573400D01*
X75810960Y-82783400D01*
X75810960Y-83383400D01*
X75855238Y-83618717D01*
X75919078Y-83717928D01*
X75861969Y-83801510D01*
X75810960Y-84053400D01*
X75810960Y-84653400D01*
X75855238Y-84888717D01*
X75919078Y-84987928D01*
X75861969Y-85071510D01*
X75810960Y-85323400D01*
X75810960Y-85923400D01*
X75855238Y-86158717D01*
X75919078Y-86257928D01*
X75861969Y-86341510D01*
X75810960Y-86593400D01*
X75810960Y-87193400D01*
X75855238Y-87428717D01*
X75919078Y-87527928D01*
X75861969Y-87611510D01*
X75810960Y-87863400D01*
X75810960Y-88463400D01*
X75855238Y-88698717D01*
X75994310Y-88914841D01*
X76206510Y-89059831D01*
X76458400Y-89110840D01*
X77958400Y-89110840D01*
X78193717Y-89066562D01*
X78409841Y-88927490D01*
X78429062Y-88899359D01*
X78599039Y-88865548D01*
X78845601Y-88700801D01*
X79225596Y-88320806D01*
X79282452Y-88606639D01*
X79447199Y-88853201D01*
X80467836Y-89873838D01*
X80448552Y-89877674D01*
X79962371Y-90202530D01*
X79781408Y-90473361D01*
X79399890Y-90055379D01*
X78870427Y-89807232D01*
X78638400Y-89927731D01*
X78638400Y-91135200D01*
X78658400Y-91135200D01*
X78658400Y-91389200D01*
X78638400Y-91389200D01*
X78638400Y-91409200D01*
X78384400Y-91409200D01*
X78384400Y-91389200D01*
X77177583Y-91389200D01*
X77056442Y-91621226D01*
X77228712Y-92037147D01*
X77622910Y-92469021D01*
X77745628Y-92526536D01*
X77422371Y-92742530D01*
X77233363Y-93025400D01*
X77139440Y-93025400D01*
X77139440Y-92910400D01*
X77095162Y-92675083D01*
X76956090Y-92458959D01*
X76743890Y-92313969D01*
X76492000Y-92262960D01*
X74892000Y-92262960D01*
X74656683Y-92307238D01*
X74440559Y-92446310D01*
X74295569Y-92658510D01*
X74283700Y-92717121D01*
X74124180Y-92557600D01*
X74717587Y-91964192D01*
X74717590Y-91964190D01*
X74909433Y-91677075D01*
X74976800Y-91338400D01*
X74976800Y-90903174D01*
X77056442Y-90903174D01*
X77177583Y-91135200D01*
X78384400Y-91135200D01*
X78384400Y-89927731D01*
X78152373Y-89807232D01*
X77622910Y-90055379D01*
X77228712Y-90487253D01*
X77056442Y-90903174D01*
X74976800Y-90903174D01*
X74976800Y-84101422D01*
X75026638Y-83981399D01*
X75026962Y-83609433D01*
X74884917Y-83265657D01*
X74622127Y-83002408D01*
X74278599Y-82859762D01*
X73906633Y-82859438D01*
X73885549Y-82868150D01*
X73948833Y-82550000D01*
X73840559Y-82005671D01*
X73532222Y-81544211D01*
X73136801Y-81280000D01*
X73532222Y-81015789D01*
X73840559Y-80554329D01*
X73948833Y-80010000D01*
X73840559Y-79465671D01*
X73532222Y-79004211D01*
X73136801Y-78740000D01*
X73532222Y-78475789D01*
X73840559Y-78014329D01*
X73948833Y-77470000D01*
X73840559Y-76925671D01*
X73532222Y-76464211D01*
X73136801Y-76200000D01*
X73532222Y-75935789D01*
X73840559Y-75474329D01*
X73948833Y-74930000D01*
X73840559Y-74385671D01*
X73532222Y-73924211D01*
X73136801Y-73660000D01*
X73532222Y-73395789D01*
X73840559Y-72934329D01*
X73948833Y-72390000D01*
X73840559Y-71845671D01*
X73532222Y-71384211D01*
X73136801Y-71120000D01*
X73532222Y-70855789D01*
X73840559Y-70394329D01*
X73948833Y-69850000D01*
X73840559Y-69305671D01*
X73532222Y-68844211D01*
X73136801Y-68580000D01*
X73532222Y-68315789D01*
X73840559Y-67854329D01*
X73948833Y-67310000D01*
X73840559Y-66765671D01*
X73532222Y-66304211D01*
X73136801Y-66040000D01*
X73532222Y-65775789D01*
X73840559Y-65314329D01*
X73948833Y-64770000D01*
X73840559Y-64225671D01*
X73532222Y-63764211D01*
X73137170Y-63500246D01*
X73153262Y-63495525D01*
X73587191Y-63145986D01*
X73854327Y-62656996D01*
X73871010Y-62577060D01*
X73748852Y-62357000D01*
X72263000Y-62357000D01*
X72263000Y-62377000D01*
X72009000Y-62377000D01*
X72009000Y-62357000D01*
X71989000Y-62357000D01*
X71989000Y-62103000D01*
X72009000Y-62103000D01*
X72009000Y-62083000D01*
X72263000Y-62083000D01*
X72263000Y-62103000D01*
X73748852Y-62103000D01*
X73871010Y-61882940D01*
X73854327Y-61803004D01*
X73587191Y-61314014D01*
X73153262Y-60964475D01*
X73137170Y-60959754D01*
X73532222Y-60695789D01*
X73840559Y-60234329D01*
X73948833Y-59690000D01*
X73840559Y-59145671D01*
X73761667Y-59027600D01*
X74752200Y-59027600D01*
X75043039Y-58969748D01*
X75289601Y-58805001D01*
X76489402Y-57605200D01*
X77131408Y-57605200D01*
X77122915Y-57617911D01*
G36*
X102522000Y-91490800D02*
X102542000Y-91490800D01*
X102542000Y-91744800D01*
X102522000Y-91744800D01*
X102522000Y-91764800D01*
X102268000Y-91764800D01*
X102268000Y-91744800D01*
X102248000Y-91744800D01*
X102248000Y-91490800D01*
X102268000Y-91490800D01*
X102268000Y-91470800D01*
X102522000Y-91470800D01*
X102522000Y-91490800D01*
X102522000Y-91490800D01*
G37*
X102522000Y-91490800D02*
X102542000Y-91490800D01*
X102542000Y-91744800D01*
X102522000Y-91744800D01*
X102522000Y-91764800D01*
X102268000Y-91764800D01*
X102268000Y-91744800D01*
X102248000Y-91744800D01*
X102248000Y-91490800D01*
X102268000Y-91490800D01*
X102268000Y-91470800D01*
X102522000Y-91470800D01*
X102522000Y-91490800D01*
G36*
X95074200Y-88303100D02*
X95132052Y-88593939D01*
X95296799Y-88840501D01*
X95942202Y-89485904D01*
X95885302Y-89509473D01*
X95706673Y-89688101D01*
X95610000Y-89921490D01*
X95610000Y-90062050D01*
X95768750Y-90220800D01*
X96868000Y-90220800D01*
X96868000Y-90200800D01*
X97122000Y-90200800D01*
X97122000Y-90220800D01*
X97142000Y-90220800D01*
X97142000Y-90474800D01*
X97122000Y-90474800D01*
X97122000Y-90494800D01*
X96868000Y-90494800D01*
X96868000Y-90474800D01*
X95768750Y-90474800D01*
X95610000Y-90633550D01*
X95610000Y-90774110D01*
X95699806Y-90990922D01*
X95648569Y-91065910D01*
X95597560Y-91317800D01*
X95597560Y-91416600D01*
X94536800Y-91416600D01*
X94536800Y-87462202D01*
X95074200Y-86924802D01*
X95074200Y-88303100D01*
X95074200Y-88303100D01*
G37*
X95074200Y-88303100D02*
X95132052Y-88593939D01*
X95296799Y-88840501D01*
X95942202Y-89485904D01*
X95885302Y-89509473D01*
X95706673Y-89688101D01*
X95610000Y-89921490D01*
X95610000Y-90062050D01*
X95768750Y-90220800D01*
X96868000Y-90220800D01*
X96868000Y-90200800D01*
X97122000Y-90200800D01*
X97122000Y-90220800D01*
X97142000Y-90220800D01*
X97142000Y-90474800D01*
X97122000Y-90474800D01*
X97122000Y-90494800D01*
X96868000Y-90494800D01*
X96868000Y-90474800D01*
X95768750Y-90474800D01*
X95610000Y-90633550D01*
X95610000Y-90774110D01*
X95699806Y-90990922D01*
X95648569Y-91065910D01*
X95597560Y-91317800D01*
X95597560Y-91416600D01*
X94536800Y-91416600D01*
X94536800Y-87462202D01*
X95074200Y-86924802D01*
X95074200Y-88303100D01*
G36*
X104678078Y-79997280D02*
X104678038Y-80042767D01*
X104820083Y-80386543D01*
X105082873Y-80649792D01*
X105421862Y-80790553D01*
X105349767Y-81153000D01*
X105451213Y-81663000D01*
X104327802Y-81663000D01*
X103763001Y-81098199D01*
X103516439Y-80933452D01*
X103225600Y-80875600D01*
X103009600Y-80875600D01*
X103009600Y-80251550D01*
X102850850Y-80092800D01*
X101701600Y-80092800D01*
X101701600Y-80112800D01*
X101447600Y-80112800D01*
X101447600Y-80092800D01*
X100298350Y-80092800D01*
X100139600Y-80251550D01*
X100139600Y-80875600D01*
X99368441Y-80875600D01*
X99323627Y-80830708D01*
X99034847Y-80710795D01*
X99051301Y-80699801D01*
X100139600Y-79611502D01*
X100139600Y-79680050D01*
X100298350Y-79838800D01*
X101447600Y-79838800D01*
X101447600Y-79818800D01*
X101701600Y-79818800D01*
X101701600Y-79838800D01*
X102850850Y-79838800D01*
X103009600Y-79680050D01*
X103009600Y-78839491D01*
X103004385Y-78826900D01*
X103507698Y-78826900D01*
X104678078Y-79997280D01*
X104678078Y-79997280D01*
G37*
X104678078Y-79997280D02*
X104678038Y-80042767D01*
X104820083Y-80386543D01*
X105082873Y-80649792D01*
X105421862Y-80790553D01*
X105349767Y-81153000D01*
X105451213Y-81663000D01*
X104327802Y-81663000D01*
X103763001Y-81098199D01*
X103516439Y-80933452D01*
X103225600Y-80875600D01*
X103009600Y-80875600D01*
X103009600Y-80251550D01*
X102850850Y-80092800D01*
X101701600Y-80092800D01*
X101701600Y-80112800D01*
X101447600Y-80112800D01*
X101447600Y-80092800D01*
X100298350Y-80092800D01*
X100139600Y-80251550D01*
X100139600Y-80875600D01*
X99368441Y-80875600D01*
X99323627Y-80830708D01*
X99034847Y-80710795D01*
X99051301Y-80699801D01*
X100139600Y-79611502D01*
X100139600Y-79680050D01*
X100298350Y-79838800D01*
X101447600Y-79838800D01*
X101447600Y-79818800D01*
X101701600Y-79818800D01*
X101701600Y-79838800D01*
X102850850Y-79838800D01*
X103009600Y-79680050D01*
X103009600Y-78839491D01*
X103004385Y-78826900D01*
X103507698Y-78826900D01*
X104678078Y-79997280D01*
G36*
X77762552Y-64541400D02*
X77447771Y-64751730D01*
X77122915Y-65237911D01*
X77008841Y-65811400D01*
X77122915Y-66384889D01*
X77447771Y-66871070D01*
X77762552Y-67081400D01*
X77447771Y-67291730D01*
X77122915Y-67777911D01*
X77008841Y-68351400D01*
X77122915Y-68924889D01*
X77447771Y-69411070D01*
X77771028Y-69627064D01*
X77648310Y-69684579D01*
X77254112Y-70116453D01*
X77081842Y-70532374D01*
X77202983Y-70764400D01*
X78409800Y-70764400D01*
X78409800Y-70744400D01*
X78663800Y-70744400D01*
X78663800Y-70764400D01*
X78683800Y-70764400D01*
X78683800Y-71018400D01*
X78663800Y-71018400D01*
X78663800Y-72225869D01*
X78895827Y-72346368D01*
X79425290Y-72098221D01*
X79595295Y-71911967D01*
X79610038Y-71990317D01*
X79749110Y-72206441D01*
X79961310Y-72351431D01*
X80058200Y-72371052D01*
X80058200Y-72491960D01*
X79943200Y-72491960D01*
X79707883Y-72536238D01*
X79491759Y-72675310D01*
X79346769Y-72887510D01*
X79295760Y-73139400D01*
X79295760Y-74739400D01*
X79340038Y-74974717D01*
X79479110Y-75190841D01*
X79691310Y-75335831D01*
X79943200Y-75386840D01*
X80058200Y-75386840D01*
X80058200Y-75431395D01*
X80058199Y-75431400D01*
X80109639Y-75690000D01*
X80125567Y-75770075D01*
X80184751Y-75858650D01*
X80317410Y-76057190D01*
X80589655Y-76329435D01*
X80639283Y-76449543D01*
X80902073Y-76712792D01*
X81245601Y-76855438D01*
X81617567Y-76855762D01*
X81961343Y-76713717D01*
X82224592Y-76450927D01*
X82367238Y-76107399D01*
X82367562Y-75735433D01*
X82225517Y-75391657D01*
X82176825Y-75342880D01*
X82178517Y-75342562D01*
X82394641Y-75203490D01*
X82475800Y-75084710D01*
X82475800Y-77508100D01*
X82533652Y-77798939D01*
X82633975Y-77949084D01*
X82516357Y-77997683D01*
X82253108Y-78260473D01*
X82225915Y-78325960D01*
X81858400Y-78325960D01*
X81623083Y-78370238D01*
X81406959Y-78509310D01*
X81261969Y-78721510D01*
X81210960Y-78973400D01*
X81210960Y-79158258D01*
X78769401Y-76716699D01*
X78522839Y-76551952D01*
X78232000Y-76494100D01*
X76946602Y-76494100D01*
X75826902Y-75374400D01*
X76657450Y-75374400D01*
X76816200Y-75215650D01*
X76816200Y-74066400D01*
X77070200Y-74066400D01*
X77070200Y-75215650D01*
X77228950Y-75374400D01*
X78069509Y-75374400D01*
X78302898Y-75277727D01*
X78481527Y-75099099D01*
X78578200Y-74865710D01*
X78578200Y-74225150D01*
X78419450Y-74066400D01*
X77070200Y-74066400D01*
X76816200Y-74066400D01*
X76796200Y-74066400D01*
X76796200Y-73812400D01*
X76816200Y-73812400D01*
X76816200Y-72663150D01*
X77070200Y-72663150D01*
X77070200Y-73812400D01*
X78419450Y-73812400D01*
X78578200Y-73653650D01*
X78578200Y-73013090D01*
X78481527Y-72779701D01*
X78302898Y-72601073D01*
X78069509Y-72504400D01*
X77228950Y-72504400D01*
X77070200Y-72663150D01*
X76816200Y-72663150D01*
X76657450Y-72504400D01*
X75816891Y-72504400D01*
X75753500Y-72530657D01*
X75753500Y-71250426D01*
X77081842Y-71250426D01*
X77254112Y-71666347D01*
X77648310Y-72098221D01*
X78177773Y-72346368D01*
X78409800Y-72225869D01*
X78409800Y-71018400D01*
X77202983Y-71018400D01*
X77081842Y-71250426D01*
X75753500Y-71250426D01*
X75753500Y-66088102D01*
X77485393Y-64356209D01*
X77762552Y-64541400D01*
X77762552Y-64541400D01*
G37*
X77762552Y-64541400D02*
X77447771Y-64751730D01*
X77122915Y-65237911D01*
X77008841Y-65811400D01*
X77122915Y-66384889D01*
X77447771Y-66871070D01*
X77762552Y-67081400D01*
X77447771Y-67291730D01*
X77122915Y-67777911D01*
X77008841Y-68351400D01*
X77122915Y-68924889D01*
X77447771Y-69411070D01*
X77771028Y-69627064D01*
X77648310Y-69684579D01*
X77254112Y-70116453D01*
X77081842Y-70532374D01*
X77202983Y-70764400D01*
X78409800Y-70764400D01*
X78409800Y-70744400D01*
X78663800Y-70744400D01*
X78663800Y-70764400D01*
X78683800Y-70764400D01*
X78683800Y-71018400D01*
X78663800Y-71018400D01*
X78663800Y-72225869D01*
X78895827Y-72346368D01*
X79425290Y-72098221D01*
X79595295Y-71911967D01*
X79610038Y-71990317D01*
X79749110Y-72206441D01*
X79961310Y-72351431D01*
X80058200Y-72371052D01*
X80058200Y-72491960D01*
X79943200Y-72491960D01*
X79707883Y-72536238D01*
X79491759Y-72675310D01*
X79346769Y-72887510D01*
X79295760Y-73139400D01*
X79295760Y-74739400D01*
X79340038Y-74974717D01*
X79479110Y-75190841D01*
X79691310Y-75335831D01*
X79943200Y-75386840D01*
X80058200Y-75386840D01*
X80058200Y-75431395D01*
X80058199Y-75431400D01*
X80109639Y-75690000D01*
X80125567Y-75770075D01*
X80184751Y-75858650D01*
X80317410Y-76057190D01*
X80589655Y-76329435D01*
X80639283Y-76449543D01*
X80902073Y-76712792D01*
X81245601Y-76855438D01*
X81617567Y-76855762D01*
X81961343Y-76713717D01*
X82224592Y-76450927D01*
X82367238Y-76107399D01*
X82367562Y-75735433D01*
X82225517Y-75391657D01*
X82176825Y-75342880D01*
X82178517Y-75342562D01*
X82394641Y-75203490D01*
X82475800Y-75084710D01*
X82475800Y-77508100D01*
X82533652Y-77798939D01*
X82633975Y-77949084D01*
X82516357Y-77997683D01*
X82253108Y-78260473D01*
X82225915Y-78325960D01*
X81858400Y-78325960D01*
X81623083Y-78370238D01*
X81406959Y-78509310D01*
X81261969Y-78721510D01*
X81210960Y-78973400D01*
X81210960Y-79158258D01*
X78769401Y-76716699D01*
X78522839Y-76551952D01*
X78232000Y-76494100D01*
X76946602Y-76494100D01*
X75826902Y-75374400D01*
X76657450Y-75374400D01*
X76816200Y-75215650D01*
X76816200Y-74066400D01*
X77070200Y-74066400D01*
X77070200Y-75215650D01*
X77228950Y-75374400D01*
X78069509Y-75374400D01*
X78302898Y-75277727D01*
X78481527Y-75099099D01*
X78578200Y-74865710D01*
X78578200Y-74225150D01*
X78419450Y-74066400D01*
X77070200Y-74066400D01*
X76816200Y-74066400D01*
X76796200Y-74066400D01*
X76796200Y-73812400D01*
X76816200Y-73812400D01*
X76816200Y-72663150D01*
X77070200Y-72663150D01*
X77070200Y-73812400D01*
X78419450Y-73812400D01*
X78578200Y-73653650D01*
X78578200Y-73013090D01*
X78481527Y-72779701D01*
X78302898Y-72601073D01*
X78069509Y-72504400D01*
X77228950Y-72504400D01*
X77070200Y-72663150D01*
X76816200Y-72663150D01*
X76657450Y-72504400D01*
X75816891Y-72504400D01*
X75753500Y-72530657D01*
X75753500Y-71250426D01*
X77081842Y-71250426D01*
X77254112Y-71666347D01*
X77648310Y-72098221D01*
X78177773Y-72346368D01*
X78409800Y-72225869D01*
X78409800Y-71018400D01*
X77202983Y-71018400D01*
X77081842Y-71250426D01*
X75753500Y-71250426D01*
X75753500Y-66088102D01*
X77485393Y-64356209D01*
X77762552Y-64541400D01*
M02*
