G04 #@! TF.FileFunction,Legend,Bot*
%FSLAX46Y46*%
G04 Gerber Fmt 4.6, Leading zero omitted, Abs format (unit mm)*
G04 Created by KiCad (PCBNEW 4.0.4-stable) date 11/06/16 00:01:30*
%MOMM*%
%LPD*%
G01*
G04 APERTURE LIST*
%ADD10C,0.100000*%
%ADD11C,0.150000*%
%ADD12C,0.381000*%
%ADD13C,0.304800*%
G04 APERTURE END LIST*
D10*
D11*
X77943200Y-72914400D02*
X79943200Y-72914400D01*
X79943200Y-74964400D02*
X77943200Y-74964400D01*
X102599600Y-80965800D02*
X102599600Y-82965800D01*
X100549600Y-82965800D02*
X100549600Y-80965800D01*
X96389700Y-62023100D02*
X94389700Y-62023100D01*
X94389700Y-59973100D02*
X96389700Y-59973100D01*
X138730600Y-74194000D02*
X138730600Y-80492000D01*
X138590600Y-74200000D02*
X138590600Y-80486000D01*
X138450600Y-74213000D02*
X138450600Y-76897000D01*
X138450600Y-77789000D02*
X138450600Y-80473000D01*
X138310600Y-74232000D02*
X138310600Y-76687000D01*
X138310600Y-77999000D02*
X138310600Y-80454000D01*
X138170600Y-74258000D02*
X138170600Y-76554000D01*
X138170600Y-78132000D02*
X138170600Y-80428000D01*
X138030600Y-74290000D02*
X138030600Y-76463000D01*
X138030600Y-78223000D02*
X138030600Y-80396000D01*
X137890600Y-74329000D02*
X137890600Y-76401000D01*
X137890600Y-78285000D02*
X137890600Y-80357000D01*
X137750600Y-74375000D02*
X137750600Y-76362000D01*
X137750600Y-78324000D02*
X137750600Y-80311000D01*
X137610600Y-74428000D02*
X137610600Y-76345000D01*
X137610600Y-78341000D02*
X137610600Y-80258000D01*
X137470600Y-74490000D02*
X137470600Y-76347000D01*
X137470600Y-78339000D02*
X137470600Y-80196000D01*
X137330600Y-74560000D02*
X137330600Y-76369000D01*
X137330600Y-78317000D02*
X137330600Y-80126000D01*
X137190600Y-74639000D02*
X137190600Y-76412000D01*
X137190600Y-78274000D02*
X137190600Y-80047000D01*
X137050600Y-74727000D02*
X137050600Y-76480000D01*
X137050600Y-78206000D02*
X137050600Y-79959000D01*
X136910600Y-74827000D02*
X136910600Y-76579000D01*
X136910600Y-78107000D02*
X136910600Y-79859000D01*
X136770600Y-74939000D02*
X136770600Y-76724000D01*
X136770600Y-77962000D02*
X136770600Y-79747000D01*
X136630600Y-75064000D02*
X136630600Y-76963000D01*
X136630600Y-77723000D02*
X136630600Y-79622000D01*
X136490600Y-75207000D02*
X136490600Y-79479000D01*
X136350600Y-75369000D02*
X136350600Y-79317000D01*
X136210600Y-75557000D02*
X136210600Y-79129000D01*
X136070600Y-75780000D02*
X136070600Y-78906000D01*
X135930600Y-76056000D02*
X135930600Y-78630000D01*
X135790600Y-76431000D02*
X135790600Y-78255000D01*
X138555600Y-77343000D02*
G75*
G03X138555600Y-77343000I-1000000J0D01*
G01*
X141993100Y-77343000D02*
G75*
G03X141993100Y-77343000I-3187500J0D01*
G01*
X146884000Y-74422600D02*
X146884000Y-80720600D01*
X146744000Y-74428600D02*
X146744000Y-80714600D01*
X146604000Y-74441600D02*
X146604000Y-77125600D01*
X146604000Y-78017600D02*
X146604000Y-80701600D01*
X146464000Y-74460600D02*
X146464000Y-76915600D01*
X146464000Y-78227600D02*
X146464000Y-80682600D01*
X146324000Y-74486600D02*
X146324000Y-76782600D01*
X146324000Y-78360600D02*
X146324000Y-80656600D01*
X146184000Y-74518600D02*
X146184000Y-76691600D01*
X146184000Y-78451600D02*
X146184000Y-80624600D01*
X146044000Y-74557600D02*
X146044000Y-76629600D01*
X146044000Y-78513600D02*
X146044000Y-80585600D01*
X145904000Y-74603600D02*
X145904000Y-76590600D01*
X145904000Y-78552600D02*
X145904000Y-80539600D01*
X145764000Y-74656600D02*
X145764000Y-76573600D01*
X145764000Y-78569600D02*
X145764000Y-80486600D01*
X145624000Y-74718600D02*
X145624000Y-76575600D01*
X145624000Y-78567600D02*
X145624000Y-80424600D01*
X145484000Y-74788600D02*
X145484000Y-76597600D01*
X145484000Y-78545600D02*
X145484000Y-80354600D01*
X145344000Y-74867600D02*
X145344000Y-76640600D01*
X145344000Y-78502600D02*
X145344000Y-80275600D01*
X145204000Y-74955600D02*
X145204000Y-76708600D01*
X145204000Y-78434600D02*
X145204000Y-80187600D01*
X145064000Y-75055600D02*
X145064000Y-76807600D01*
X145064000Y-78335600D02*
X145064000Y-80087600D01*
X144924000Y-75167600D02*
X144924000Y-76952600D01*
X144924000Y-78190600D02*
X144924000Y-79975600D01*
X144784000Y-75292600D02*
X144784000Y-77191600D01*
X144784000Y-77951600D02*
X144784000Y-79850600D01*
X144644000Y-75435600D02*
X144644000Y-79707600D01*
X144504000Y-75597600D02*
X144504000Y-79545600D01*
X144364000Y-75785600D02*
X144364000Y-79357600D01*
X144224000Y-76008600D02*
X144224000Y-79134600D01*
X144084000Y-76284600D02*
X144084000Y-78858600D01*
X143944000Y-76659600D02*
X143944000Y-78483600D01*
X146709000Y-77571600D02*
G75*
G03X146709000Y-77571600I-1000000J0D01*
G01*
X150146500Y-77571600D02*
G75*
G03X150146500Y-77571600I-3187500J0D01*
G01*
X88814400Y-100194000D02*
X90814400Y-100194000D01*
X90814400Y-102244000D02*
X88814400Y-102244000D01*
X74667000Y-96910400D02*
X74667000Y-94910400D01*
X76717000Y-94910400D02*
X76717000Y-96910400D01*
X130265200Y-95441600D02*
X130265200Y-100581600D01*
X127565200Y-95441600D02*
X130245200Y-95441600D01*
X130245200Y-100581600D02*
X127565200Y-100581600D01*
X127565200Y-95441600D02*
X127565200Y-100581600D01*
X127565200Y-84441600D02*
X127565200Y-89581600D01*
X130245200Y-89581600D02*
X127565200Y-89581600D01*
X127565200Y-84441600D02*
X130245200Y-84441600D01*
X130265200Y-84441600D02*
X130265200Y-89581600D01*
X148765200Y-84441600D02*
X148765200Y-89581600D01*
X146065200Y-84441600D02*
X148745200Y-84441600D01*
X148745200Y-89581600D02*
X146065200Y-89581600D01*
X146065200Y-84441600D02*
X146065200Y-89581600D01*
X147145200Y-100761600D02*
X148695200Y-100761600D01*
X148695200Y-95161600D02*
X147145200Y-95161600D01*
X148745200Y-95161600D02*
X148745200Y-100761600D01*
X127909600Y-57769600D02*
X130589600Y-57769600D01*
X130589600Y-57769600D02*
X130589600Y-60309600D01*
X130589600Y-60309600D02*
X127909600Y-60309600D01*
X127909600Y-60309600D02*
X127909600Y-57769600D01*
X127909600Y-67909600D02*
X127909600Y-65369600D01*
X130589600Y-67909600D02*
X127909600Y-67909600D01*
X130589600Y-65369600D02*
X130589600Y-67909600D01*
X127909600Y-65369600D02*
X130589600Y-65369600D01*
X145509600Y-67869600D02*
X148189600Y-67869600D01*
X148189600Y-67869600D02*
X148189600Y-70409600D01*
X148189600Y-70409600D02*
X145509600Y-70409600D01*
X145509600Y-70409600D02*
X145509600Y-67869600D01*
X146889600Y-58089600D02*
X148439600Y-58089600D01*
X148339600Y-54989600D02*
X146789600Y-54989600D01*
X148389600Y-54989600D02*
X148389600Y-58089600D01*
X92641600Y-84602400D02*
X92641600Y-84497400D01*
X96791600Y-84602400D02*
X96791600Y-84497400D01*
X96791600Y-74452400D02*
X96791600Y-74557400D01*
X92641600Y-74452400D02*
X92641600Y-74557400D01*
X92641600Y-84602400D02*
X96791600Y-84602400D01*
X92641600Y-74452400D02*
X96791600Y-74452400D01*
X92641600Y-84497400D02*
X91266600Y-84497400D01*
X81983400Y-78643400D02*
X81983400Y-78748400D01*
X77833400Y-78643400D02*
X77833400Y-78748400D01*
X77833400Y-88793400D02*
X77833400Y-88688400D01*
X81983400Y-88793400D02*
X81983400Y-88688400D01*
X81983400Y-78643400D02*
X77833400Y-78643400D01*
X81983400Y-88793400D02*
X77833400Y-88793400D01*
X81983400Y-78748400D02*
X83358400Y-78748400D01*
X97620000Y-99867800D02*
X97620000Y-99762800D01*
X101770000Y-99867800D02*
X101770000Y-99762800D01*
X101770000Y-89717800D02*
X101770000Y-89822800D01*
X97620000Y-89717800D02*
X97620000Y-89822800D01*
X97620000Y-99867800D02*
X101770000Y-99867800D01*
X97620000Y-89717800D02*
X101770000Y-89717800D01*
X97620000Y-99762800D02*
X96245000Y-99762800D01*
D12*
X86106000Y-99060000D02*
X86106000Y-55880000D01*
X86106000Y-55880000D02*
X73406000Y-55880000D01*
X73406000Y-55880000D02*
X73406000Y-99060000D01*
X73406000Y-99060000D02*
X86106000Y-99060000D01*
X78486000Y-99060000D02*
X78486000Y-97790000D01*
X78486000Y-97790000D02*
X81026000Y-97790000D01*
X81026000Y-97790000D02*
X81026000Y-99060000D01*
X121132600Y-100203000D02*
X121132600Y-57023000D01*
X121132600Y-57023000D02*
X108432600Y-57023000D01*
X108432600Y-57023000D02*
X108432600Y-100203000D01*
X108432600Y-100203000D02*
X121132600Y-100203000D01*
X113512600Y-100203000D02*
X113512600Y-98933000D01*
X113512600Y-98933000D02*
X116052600Y-98933000D01*
X116052600Y-98933000D02*
X116052600Y-100203000D01*
D11*
X91678000Y-51698000D02*
X89678000Y-51698000D01*
X89678000Y-49648000D02*
X91678000Y-49648000D01*
X91716100Y-55279400D02*
X89716100Y-55279400D01*
X89716100Y-53229400D02*
X91716100Y-53229400D01*
X130577200Y-74194000D02*
X130577200Y-80492000D01*
X130437200Y-74200000D02*
X130437200Y-80486000D01*
X130297200Y-74213000D02*
X130297200Y-76897000D01*
X130297200Y-77789000D02*
X130297200Y-80473000D01*
X130157200Y-74232000D02*
X130157200Y-76687000D01*
X130157200Y-77999000D02*
X130157200Y-80454000D01*
X130017200Y-74258000D02*
X130017200Y-76554000D01*
X130017200Y-78132000D02*
X130017200Y-80428000D01*
X129877200Y-74290000D02*
X129877200Y-76463000D01*
X129877200Y-78223000D02*
X129877200Y-80396000D01*
X129737200Y-74329000D02*
X129737200Y-76401000D01*
X129737200Y-78285000D02*
X129737200Y-80357000D01*
X129597200Y-74375000D02*
X129597200Y-76362000D01*
X129597200Y-78324000D02*
X129597200Y-80311000D01*
X129457200Y-74428000D02*
X129457200Y-76345000D01*
X129457200Y-78341000D02*
X129457200Y-80258000D01*
X129317200Y-74490000D02*
X129317200Y-76347000D01*
X129317200Y-78339000D02*
X129317200Y-80196000D01*
X129177200Y-74560000D02*
X129177200Y-76369000D01*
X129177200Y-78317000D02*
X129177200Y-80126000D01*
X129037200Y-74639000D02*
X129037200Y-76412000D01*
X129037200Y-78274000D02*
X129037200Y-80047000D01*
X128897200Y-74727000D02*
X128897200Y-76480000D01*
X128897200Y-78206000D02*
X128897200Y-79959000D01*
X128757200Y-74827000D02*
X128757200Y-76579000D01*
X128757200Y-78107000D02*
X128757200Y-79859000D01*
X128617200Y-74939000D02*
X128617200Y-76724000D01*
X128617200Y-77962000D02*
X128617200Y-79747000D01*
X128477200Y-75064000D02*
X128477200Y-76963000D01*
X128477200Y-77723000D02*
X128477200Y-79622000D01*
X128337200Y-75207000D02*
X128337200Y-79479000D01*
X128197200Y-75369000D02*
X128197200Y-79317000D01*
X128057200Y-75557000D02*
X128057200Y-79129000D01*
X127917200Y-75780000D02*
X127917200Y-78906000D01*
X127777200Y-76056000D02*
X127777200Y-78630000D01*
X127637200Y-76431000D02*
X127637200Y-78255000D01*
X130402200Y-77343000D02*
G75*
G03X130402200Y-77343000I-1000000J0D01*
G01*
X133839700Y-77343000D02*
G75*
G03X133839700Y-77343000I-3187500J0D01*
G01*
X81346371Y-76252343D02*
X81393990Y-76299962D01*
X81536847Y-76347581D01*
X81632085Y-76347581D01*
X81774943Y-76299962D01*
X81870181Y-76204724D01*
X81917800Y-76109486D01*
X81965419Y-75919010D01*
X81965419Y-75776152D01*
X81917800Y-75585676D01*
X81870181Y-75490438D01*
X81774943Y-75395200D01*
X81632085Y-75347581D01*
X81536847Y-75347581D01*
X81393990Y-75395200D01*
X81346371Y-75442819D01*
X81155895Y-76442819D02*
X80393990Y-76442819D01*
X79584466Y-76252343D02*
X79632085Y-76299962D01*
X79774942Y-76347581D01*
X79870180Y-76347581D01*
X80013038Y-76299962D01*
X80108276Y-76204724D01*
X80155895Y-76109486D01*
X80203514Y-75919010D01*
X80203514Y-75776152D01*
X80155895Y-75585676D01*
X80108276Y-75490438D01*
X80013038Y-75395200D01*
X79870180Y-75347581D01*
X79774942Y-75347581D01*
X79632085Y-75395200D01*
X79584466Y-75442819D01*
X79203514Y-76061867D02*
X78727323Y-76061867D01*
X79298752Y-76347581D02*
X78965419Y-75347581D01*
X78632085Y-76347581D01*
X78298752Y-76347581D02*
X78298752Y-75347581D01*
X77965418Y-76061867D01*
X77632085Y-75347581D01*
X77632085Y-76347581D01*
X77393990Y-76442819D02*
X76632085Y-76442819D01*
X75870180Y-76347581D02*
X76441609Y-76347581D01*
X76155895Y-76347581D02*
X76155895Y-75347581D01*
X76251133Y-75490438D01*
X76346371Y-75585676D01*
X76441609Y-75633295D01*
X104231743Y-79418181D02*
X104279362Y-79370562D01*
X104326981Y-79227705D01*
X104326981Y-79132467D01*
X104279362Y-78989609D01*
X104184124Y-78894371D01*
X104088886Y-78846752D01*
X103898410Y-78799133D01*
X103755552Y-78799133D01*
X103565076Y-78846752D01*
X103469838Y-78894371D01*
X103374600Y-78989609D01*
X103326981Y-79132467D01*
X103326981Y-79227705D01*
X103374600Y-79370562D01*
X103422219Y-79418181D01*
X104422219Y-79608657D02*
X104422219Y-80370562D01*
X103803171Y-80941991D02*
X103803171Y-80608657D01*
X104326981Y-80608657D02*
X103326981Y-80608657D01*
X103326981Y-81084848D01*
X104326981Y-81465800D02*
X103326981Y-81465800D01*
X103803171Y-82275324D02*
X103803171Y-81941990D01*
X104326981Y-81941990D02*
X103326981Y-81941990D01*
X103326981Y-82418181D01*
X103326981Y-82989609D02*
X103326981Y-83180086D01*
X103374600Y-83275324D01*
X103469838Y-83370562D01*
X103660314Y-83418181D01*
X103993648Y-83418181D01*
X104184124Y-83370562D01*
X104279362Y-83275324D01*
X104326981Y-83180086D01*
X104326981Y-82989609D01*
X104279362Y-82894371D01*
X104184124Y-82799133D01*
X103993648Y-82751514D01*
X103660314Y-82751514D01*
X103469838Y-82799133D01*
X103374600Y-82894371D01*
X103326981Y-82989609D01*
X104422219Y-83608657D02*
X104422219Y-84370562D01*
X103422219Y-84561038D02*
X103374600Y-84608657D01*
X103326981Y-84703895D01*
X103326981Y-84941991D01*
X103374600Y-85037229D01*
X103422219Y-85084848D01*
X103517457Y-85132467D01*
X103612695Y-85132467D01*
X103755552Y-85084848D01*
X104326981Y-84513419D01*
X104326981Y-85132467D01*
X97746843Y-63655243D02*
X97794462Y-63702862D01*
X97937319Y-63750481D01*
X98032557Y-63750481D01*
X98175415Y-63702862D01*
X98270653Y-63607624D01*
X98318272Y-63512386D01*
X98365891Y-63321910D01*
X98365891Y-63179052D01*
X98318272Y-62988576D01*
X98270653Y-62893338D01*
X98175415Y-62798100D01*
X98032557Y-62750481D01*
X97937319Y-62750481D01*
X97794462Y-62798100D01*
X97746843Y-62845719D01*
X97556367Y-63845719D02*
X96794462Y-63845719D01*
X96556367Y-63750481D02*
X96556367Y-62750481D01*
X95984938Y-63750481D01*
X95984938Y-62750481D01*
X95318272Y-62750481D02*
X95127795Y-62750481D01*
X95032557Y-62798100D01*
X94937319Y-62893338D01*
X94889700Y-63083814D01*
X94889700Y-63417148D01*
X94937319Y-63607624D01*
X95032557Y-63702862D01*
X95127795Y-63750481D01*
X95318272Y-63750481D01*
X95413510Y-63702862D01*
X95508748Y-63607624D01*
X95556367Y-63417148D01*
X95556367Y-63083814D01*
X95508748Y-62893338D01*
X95413510Y-62798100D01*
X95318272Y-62750481D01*
X94603986Y-62750481D02*
X94032557Y-62750481D01*
X94318272Y-63750481D02*
X94318272Y-62750481D01*
X93937319Y-63845719D02*
X93175414Y-63845719D01*
X92413509Y-63750481D02*
X92984938Y-63750481D01*
X92699224Y-63750481D02*
X92699224Y-62750481D01*
X92794462Y-62893338D01*
X92889700Y-62988576D01*
X92984938Y-63036195D01*
X135256543Y-74754100D02*
X135304162Y-74706481D01*
X135351781Y-74563624D01*
X135351781Y-74468386D01*
X135304162Y-74325528D01*
X135208924Y-74230290D01*
X135113686Y-74182671D01*
X134923210Y-74135052D01*
X134780352Y-74135052D01*
X134589876Y-74182671D01*
X134494638Y-74230290D01*
X134399400Y-74325528D01*
X134351781Y-74468386D01*
X134351781Y-74563624D01*
X134399400Y-74706481D01*
X134447019Y-74754100D01*
X135447019Y-74944576D02*
X135447019Y-75706481D01*
X135351781Y-75944576D02*
X134351781Y-75944576D01*
X134351781Y-76325529D01*
X134399400Y-76420767D01*
X134447019Y-76468386D01*
X134542257Y-76516005D01*
X134685114Y-76516005D01*
X134780352Y-76468386D01*
X134827971Y-76420767D01*
X134875590Y-76325529D01*
X134875590Y-75944576D01*
X134351781Y-76849338D02*
X135351781Y-77087433D01*
X134637495Y-77277910D01*
X135351781Y-77468386D01*
X134351781Y-77706481D01*
X135351781Y-78658862D02*
X134875590Y-78325528D01*
X135351781Y-78087433D02*
X134351781Y-78087433D01*
X134351781Y-78468386D01*
X134399400Y-78563624D01*
X134447019Y-78611243D01*
X134542257Y-78658862D01*
X134685114Y-78658862D01*
X134780352Y-78611243D01*
X134827971Y-78563624D01*
X134875590Y-78468386D01*
X134875590Y-78087433D01*
X135447019Y-78849338D02*
X135447019Y-79611243D01*
X135351781Y-80373148D02*
X135351781Y-79801719D01*
X135351781Y-80087433D02*
X134351781Y-80087433D01*
X134494638Y-79992195D01*
X134589876Y-79896957D01*
X134637495Y-79801719D01*
X143435343Y-74843000D02*
X143482962Y-74795381D01*
X143530581Y-74652524D01*
X143530581Y-74557286D01*
X143482962Y-74414428D01*
X143387724Y-74319190D01*
X143292486Y-74271571D01*
X143102010Y-74223952D01*
X142959152Y-74223952D01*
X142768676Y-74271571D01*
X142673438Y-74319190D01*
X142578200Y-74414428D01*
X142530581Y-74557286D01*
X142530581Y-74652524D01*
X142578200Y-74795381D01*
X142625819Y-74843000D01*
X143625819Y-75033476D02*
X143625819Y-75795381D01*
X143530581Y-76033476D02*
X142530581Y-76033476D01*
X142530581Y-76414429D01*
X142578200Y-76509667D01*
X142625819Y-76557286D01*
X142721057Y-76604905D01*
X142863914Y-76604905D01*
X142959152Y-76557286D01*
X143006771Y-76509667D01*
X143054390Y-76414429D01*
X143054390Y-76033476D01*
X142530581Y-76938238D02*
X143530581Y-77176333D01*
X142816295Y-77366810D01*
X143530581Y-77557286D01*
X142530581Y-77795381D01*
X143530581Y-78747762D02*
X143054390Y-78414428D01*
X143530581Y-78176333D02*
X142530581Y-78176333D01*
X142530581Y-78557286D01*
X142578200Y-78652524D01*
X142625819Y-78700143D01*
X142721057Y-78747762D01*
X142863914Y-78747762D01*
X142959152Y-78700143D01*
X143006771Y-78652524D01*
X143054390Y-78557286D01*
X143054390Y-78176333D01*
X143625819Y-78938238D02*
X143625819Y-79700143D01*
X142625819Y-79890619D02*
X142578200Y-79938238D01*
X142530581Y-80033476D01*
X142530581Y-80271572D01*
X142578200Y-80366810D01*
X142625819Y-80414429D01*
X142721057Y-80462048D01*
X142816295Y-80462048D01*
X142959152Y-80414429D01*
X143530581Y-79843000D01*
X143530581Y-80462048D01*
X91742971Y-99276143D02*
X91790590Y-99323762D01*
X91933447Y-99371381D01*
X92028685Y-99371381D01*
X92171543Y-99323762D01*
X92266781Y-99228524D01*
X92314400Y-99133286D01*
X92362019Y-98942810D01*
X92362019Y-98799952D01*
X92314400Y-98609476D01*
X92266781Y-98514238D01*
X92171543Y-98419000D01*
X92028685Y-98371381D01*
X91933447Y-98371381D01*
X91790590Y-98419000D01*
X91742971Y-98466619D01*
X91552495Y-99466619D02*
X90790590Y-99466619D01*
X90600114Y-99323762D02*
X90457257Y-99371381D01*
X90219161Y-99371381D01*
X90123923Y-99323762D01*
X90076304Y-99276143D01*
X90028685Y-99180905D01*
X90028685Y-99085667D01*
X90076304Y-98990429D01*
X90123923Y-98942810D01*
X90219161Y-98895190D01*
X90409638Y-98847571D01*
X90504876Y-98799952D01*
X90552495Y-98752333D01*
X90600114Y-98657095D01*
X90600114Y-98561857D01*
X90552495Y-98466619D01*
X90504876Y-98419000D01*
X90409638Y-98371381D01*
X90171542Y-98371381D01*
X90028685Y-98419000D01*
X89600114Y-99371381D02*
X89600114Y-98371381D01*
X89600114Y-98847571D02*
X89028685Y-98847571D01*
X89028685Y-99371381D02*
X89028685Y-98371381D01*
X88790590Y-99466619D02*
X88028685Y-99466619D01*
X87838209Y-98466619D02*
X87790590Y-98419000D01*
X87695352Y-98371381D01*
X87457256Y-98371381D01*
X87362018Y-98419000D01*
X87314399Y-98466619D01*
X87266780Y-98561857D01*
X87266780Y-98657095D01*
X87314399Y-98799952D01*
X87885828Y-99371381D01*
X87266780Y-99371381D01*
X75845943Y-87377852D02*
X75893562Y-87330233D01*
X75941181Y-87187376D01*
X75941181Y-87092138D01*
X75893562Y-86949280D01*
X75798324Y-86854042D01*
X75703086Y-86806423D01*
X75512610Y-86758804D01*
X75369752Y-86758804D01*
X75179276Y-86806423D01*
X75084038Y-86854042D01*
X74988800Y-86949280D01*
X74941181Y-87092138D01*
X74941181Y-87187376D01*
X74988800Y-87330233D01*
X75036419Y-87377852D01*
X76036419Y-87568328D02*
X76036419Y-88330233D01*
X74941181Y-88425471D02*
X74941181Y-88996900D01*
X75941181Y-88711185D02*
X74941181Y-88711185D01*
X75417371Y-89663567D02*
X75417371Y-89330233D01*
X75941181Y-89330233D02*
X74941181Y-89330233D01*
X74941181Y-89806424D01*
X74941181Y-90044519D02*
X74941181Y-90615948D01*
X75941181Y-90330233D02*
X74941181Y-90330233D01*
X76036419Y-90711186D02*
X76036419Y-91473091D01*
X75941181Y-92234996D02*
X75941181Y-91663567D01*
X75941181Y-91949281D02*
X74941181Y-91949281D01*
X75084038Y-91854043D01*
X75179276Y-91758805D01*
X75226895Y-91663567D01*
X148229581Y-90217905D02*
X147229581Y-90217905D01*
X147229581Y-90456000D01*
X147277200Y-90598858D01*
X147372438Y-90694096D01*
X147467676Y-90741715D01*
X147658152Y-90789334D01*
X147801010Y-90789334D01*
X147991486Y-90741715D01*
X148086724Y-90694096D01*
X148181962Y-90598858D01*
X148229581Y-90456000D01*
X148229581Y-90217905D01*
X148134343Y-91789334D02*
X148181962Y-91741715D01*
X148229581Y-91598858D01*
X148229581Y-91503620D01*
X148181962Y-91360762D01*
X148086724Y-91265524D01*
X147991486Y-91217905D01*
X147801010Y-91170286D01*
X147658152Y-91170286D01*
X147467676Y-91217905D01*
X147372438Y-91265524D01*
X147277200Y-91360762D01*
X147229581Y-91503620D01*
X147229581Y-91598858D01*
X147277200Y-91741715D01*
X147324819Y-91789334D01*
X148229581Y-92217905D02*
X147229581Y-92217905D01*
X147229581Y-92456000D01*
X147277200Y-92598858D01*
X147372438Y-92694096D01*
X147467676Y-92741715D01*
X147658152Y-92789334D01*
X147801010Y-92789334D01*
X147991486Y-92741715D01*
X148086724Y-92694096D01*
X148181962Y-92598858D01*
X148229581Y-92456000D01*
X148229581Y-92217905D01*
X148134343Y-93789334D02*
X148181962Y-93741715D01*
X148229581Y-93598858D01*
X148229581Y-93503620D01*
X148181962Y-93360762D01*
X148086724Y-93265524D01*
X147991486Y-93217905D01*
X147801010Y-93170286D01*
X147658152Y-93170286D01*
X147467676Y-93217905D01*
X147372438Y-93265524D01*
X147277200Y-93360762D01*
X147229581Y-93503620D01*
X147229581Y-93598858D01*
X147277200Y-93741715D01*
X147324819Y-93789334D01*
X147324819Y-94170286D02*
X147277200Y-94217905D01*
X147229581Y-94313143D01*
X147229581Y-94551239D01*
X147277200Y-94646477D01*
X147324819Y-94694096D01*
X147420057Y-94741715D01*
X147515295Y-94741715D01*
X147658152Y-94694096D01*
X148229581Y-94122667D01*
X148229581Y-94741715D01*
X131014248Y-82763981D02*
X130823771Y-82763981D01*
X130728533Y-82811600D01*
X130633295Y-82906838D01*
X130585676Y-83097314D01*
X130585676Y-83430648D01*
X130633295Y-83621124D01*
X130728533Y-83716362D01*
X130823771Y-83763981D01*
X131014248Y-83763981D01*
X131109486Y-83716362D01*
X131204724Y-83621124D01*
X131252343Y-83430648D01*
X131252343Y-83097314D01*
X131204724Y-82906838D01*
X131109486Y-82811600D01*
X131014248Y-82763981D01*
X130157105Y-82763981D02*
X130157105Y-83573505D01*
X130109486Y-83668743D01*
X130061867Y-83716362D01*
X129966629Y-83763981D01*
X129776152Y-83763981D01*
X129680914Y-83716362D01*
X129633295Y-83668743D01*
X129585676Y-83573505D01*
X129585676Y-82763981D01*
X129252343Y-82763981D02*
X128680914Y-82763981D01*
X128966629Y-83763981D02*
X128966629Y-82763981D01*
X128347581Y-83383029D02*
X127585676Y-83383029D01*
X130914248Y-101363981D02*
X130723771Y-101363981D01*
X130628533Y-101411600D01*
X130533295Y-101506838D01*
X130485676Y-101697314D01*
X130485676Y-102030648D01*
X130533295Y-102221124D01*
X130628533Y-102316362D01*
X130723771Y-102363981D01*
X130914248Y-102363981D01*
X131009486Y-102316362D01*
X131104724Y-102221124D01*
X131152343Y-102030648D01*
X131152343Y-101697314D01*
X131104724Y-101506838D01*
X131009486Y-101411600D01*
X130914248Y-101363981D01*
X130057105Y-101363981D02*
X130057105Y-102173505D01*
X130009486Y-102268743D01*
X129961867Y-102316362D01*
X129866629Y-102363981D01*
X129676152Y-102363981D01*
X129580914Y-102316362D01*
X129533295Y-102268743D01*
X129485676Y-102173505D01*
X129485676Y-101363981D01*
X129152343Y-101363981D02*
X128580914Y-101363981D01*
X128866629Y-102363981D02*
X128866629Y-101363981D01*
X128247581Y-101983029D02*
X127485676Y-101983029D01*
X127866628Y-102363981D02*
X127866628Y-101602076D01*
X148738057Y-83763981D02*
X148738057Y-82763981D01*
X148261867Y-83763981D02*
X148261867Y-82763981D01*
X147690438Y-83763981D01*
X147690438Y-82763981D01*
X147214248Y-83383029D02*
X146452343Y-83383029D01*
X148638057Y-102363981D02*
X148638057Y-101363981D01*
X148161867Y-102363981D02*
X148161867Y-101363981D01*
X147590438Y-102363981D01*
X147590438Y-101363981D01*
X147114248Y-101983029D02*
X146352343Y-101983029D01*
X146733295Y-102363981D02*
X146733295Y-101602076D01*
X147899381Y-60487205D02*
X146899381Y-60487205D01*
X146899381Y-60725300D01*
X146947000Y-60868158D01*
X147042238Y-60963396D01*
X147137476Y-61011015D01*
X147327952Y-61058634D01*
X147470810Y-61058634D01*
X147661286Y-61011015D01*
X147756524Y-60963396D01*
X147851762Y-60868158D01*
X147899381Y-60725300D01*
X147899381Y-60487205D01*
X147804143Y-62058634D02*
X147851762Y-62011015D01*
X147899381Y-61868158D01*
X147899381Y-61772920D01*
X147851762Y-61630062D01*
X147756524Y-61534824D01*
X147661286Y-61487205D01*
X147470810Y-61439586D01*
X147327952Y-61439586D01*
X147137476Y-61487205D01*
X147042238Y-61534824D01*
X146947000Y-61630062D01*
X146899381Y-61772920D01*
X146899381Y-61868158D01*
X146947000Y-62011015D01*
X146994619Y-62058634D01*
X147899381Y-62487205D02*
X146899381Y-62487205D01*
X146899381Y-62725300D01*
X146947000Y-62868158D01*
X147042238Y-62963396D01*
X147137476Y-63011015D01*
X147327952Y-63058634D01*
X147470810Y-63058634D01*
X147661286Y-63011015D01*
X147756524Y-62963396D01*
X147851762Y-62868158D01*
X147899381Y-62725300D01*
X147899381Y-62487205D01*
X147804143Y-64058634D02*
X147851762Y-64011015D01*
X147899381Y-63868158D01*
X147899381Y-63772920D01*
X147851762Y-63630062D01*
X147756524Y-63534824D01*
X147661286Y-63487205D01*
X147470810Y-63439586D01*
X147327952Y-63439586D01*
X147137476Y-63487205D01*
X147042238Y-63534824D01*
X146947000Y-63630062D01*
X146899381Y-63772920D01*
X146899381Y-63868158D01*
X146947000Y-64011015D01*
X146994619Y-64058634D01*
X146899381Y-64391967D02*
X146899381Y-65011015D01*
X147280333Y-64677681D01*
X147280333Y-64820539D01*
X147327952Y-64915777D01*
X147375571Y-64963396D01*
X147470810Y-65011015D01*
X147708905Y-65011015D01*
X147804143Y-64963396D01*
X147851762Y-64915777D01*
X147899381Y-64820539D01*
X147899381Y-64534824D01*
X147851762Y-64439586D01*
X147804143Y-64391967D01*
X131258648Y-53191981D02*
X131068171Y-53191981D01*
X130972933Y-53239600D01*
X130877695Y-53334838D01*
X130830076Y-53525314D01*
X130830076Y-53858648D01*
X130877695Y-54049124D01*
X130972933Y-54144362D01*
X131068171Y-54191981D01*
X131258648Y-54191981D01*
X131353886Y-54144362D01*
X131449124Y-54049124D01*
X131496743Y-53858648D01*
X131496743Y-53525314D01*
X131449124Y-53334838D01*
X131353886Y-53239600D01*
X131258648Y-53191981D01*
X130401505Y-53191981D02*
X130401505Y-54001505D01*
X130353886Y-54096743D01*
X130306267Y-54144362D01*
X130211029Y-54191981D01*
X130020552Y-54191981D01*
X129925314Y-54144362D01*
X129877695Y-54096743D01*
X129830076Y-54001505D01*
X129830076Y-53191981D01*
X129496743Y-53191981D02*
X128925314Y-53191981D01*
X129211029Y-54191981D02*
X129211029Y-53191981D01*
X128591981Y-53811029D02*
X127830076Y-53811029D01*
X131058648Y-70991981D02*
X130868171Y-70991981D01*
X130772933Y-71039600D01*
X130677695Y-71134838D01*
X130630076Y-71325314D01*
X130630076Y-71658648D01*
X130677695Y-71849124D01*
X130772933Y-71944362D01*
X130868171Y-71991981D01*
X131058648Y-71991981D01*
X131153886Y-71944362D01*
X131249124Y-71849124D01*
X131296743Y-71658648D01*
X131296743Y-71325314D01*
X131249124Y-71134838D01*
X131153886Y-71039600D01*
X131058648Y-70991981D01*
X130201505Y-70991981D02*
X130201505Y-71801505D01*
X130153886Y-71896743D01*
X130106267Y-71944362D01*
X130011029Y-71991981D01*
X129820552Y-71991981D01*
X129725314Y-71944362D01*
X129677695Y-71896743D01*
X129630076Y-71801505D01*
X129630076Y-70991981D01*
X129296743Y-70991981D02*
X128725314Y-70991981D01*
X129011029Y-71991981D02*
X129011029Y-70991981D01*
X128391981Y-71611029D02*
X127630076Y-71611029D01*
X128011028Y-71991981D02*
X128011028Y-71230076D01*
X147982457Y-72191981D02*
X147982457Y-71191981D01*
X147506267Y-72191981D02*
X147506267Y-71191981D01*
X146934838Y-72191981D01*
X146934838Y-71191981D01*
X146458648Y-71811029D02*
X145696743Y-71811029D01*
X147882457Y-54191981D02*
X147882457Y-53191981D01*
X147406267Y-54191981D02*
X147406267Y-53191981D01*
X146834838Y-54191981D01*
X146834838Y-53191981D01*
X146358648Y-53811029D02*
X145596743Y-53811029D01*
X145977695Y-54191981D02*
X145977695Y-53430076D01*
X96240409Y-85455971D02*
X96573743Y-85455971D01*
X96573743Y-85979781D02*
X96573743Y-84979781D01*
X96097552Y-84979781D01*
X95716600Y-85979781D02*
X95716600Y-84979781D01*
X94907076Y-85455971D02*
X95240410Y-85455971D01*
X95240410Y-85979781D02*
X95240410Y-84979781D01*
X94764219Y-84979781D01*
X94192791Y-84979781D02*
X94002314Y-84979781D01*
X93907076Y-85027400D01*
X93811838Y-85122638D01*
X93764219Y-85313114D01*
X93764219Y-85646448D01*
X93811838Y-85836924D01*
X93907076Y-85932162D01*
X94002314Y-85979781D01*
X94192791Y-85979781D01*
X94288029Y-85932162D01*
X94383267Y-85836924D01*
X94430886Y-85646448D01*
X94430886Y-85313114D01*
X94383267Y-85122638D01*
X94288029Y-85027400D01*
X94192791Y-84979781D01*
X93383267Y-85075019D02*
X93335648Y-85027400D01*
X93240410Y-84979781D01*
X93002314Y-84979781D01*
X92907076Y-85027400D01*
X92859457Y-85075019D01*
X92811838Y-85170257D01*
X92811838Y-85265495D01*
X92859457Y-85408352D01*
X93430886Y-85979781D01*
X92811838Y-85979781D01*
X80551257Y-78170781D02*
X81027448Y-78170781D01*
X81027448Y-77170781D01*
X80265543Y-78123162D02*
X80122686Y-78170781D01*
X79884590Y-78170781D01*
X79789352Y-78123162D01*
X79741733Y-78075543D01*
X79694114Y-77980305D01*
X79694114Y-77885067D01*
X79741733Y-77789829D01*
X79789352Y-77742210D01*
X79884590Y-77694590D01*
X80075067Y-77646971D01*
X80170305Y-77599352D01*
X80217924Y-77551733D01*
X80265543Y-77456495D01*
X80265543Y-77361257D01*
X80217924Y-77266019D01*
X80170305Y-77218400D01*
X80075067Y-77170781D01*
X79836971Y-77170781D01*
X79694114Y-77218400D01*
X78741733Y-78170781D02*
X79313162Y-78170781D01*
X79027448Y-78170781D02*
X79027448Y-77170781D01*
X79122686Y-77313638D01*
X79217924Y-77408876D01*
X79313162Y-77456495D01*
X100980714Y-101197562D02*
X100837857Y-101245181D01*
X100599761Y-101245181D01*
X100504523Y-101197562D01*
X100456904Y-101149943D01*
X100409285Y-101054705D01*
X100409285Y-100959467D01*
X100456904Y-100864229D01*
X100504523Y-100816610D01*
X100599761Y-100768990D01*
X100790238Y-100721371D01*
X100885476Y-100673752D01*
X100933095Y-100626133D01*
X100980714Y-100530895D01*
X100980714Y-100435657D01*
X100933095Y-100340419D01*
X100885476Y-100292800D01*
X100790238Y-100245181D01*
X100552142Y-100245181D01*
X100409285Y-100292800D01*
X99980714Y-101245181D02*
X99980714Y-100245181D01*
X99980714Y-100721371D02*
X99409285Y-100721371D01*
X99409285Y-101245181D02*
X99409285Y-100245181D01*
X98409285Y-101245181D02*
X98980714Y-101245181D01*
X98695000Y-101245181D02*
X98695000Y-100245181D01*
X98790238Y-100388038D01*
X98885476Y-100483276D01*
X98980714Y-100530895D01*
D13*
X75429533Y-56629301D02*
X75429533Y-57475967D01*
X75937533Y-56459967D02*
X74159533Y-57052634D01*
X75937533Y-57645301D01*
X75937533Y-59253967D02*
X75090867Y-58661301D01*
X75937533Y-58237967D02*
X74159533Y-58237967D01*
X74159533Y-58915301D01*
X74244200Y-59084634D01*
X74328867Y-59169301D01*
X74498200Y-59253967D01*
X74752200Y-59253967D01*
X74921533Y-59169301D01*
X75006200Y-59084634D01*
X75090867Y-58915301D01*
X75090867Y-58237967D01*
X75937533Y-60015967D02*
X74159533Y-60015967D01*
X74159533Y-60439301D01*
X74244200Y-60693301D01*
X74413533Y-60862634D01*
X74582867Y-60947301D01*
X74921533Y-61031967D01*
X75175533Y-61031967D01*
X75514200Y-60947301D01*
X75683533Y-60862634D01*
X75852867Y-60693301D01*
X75937533Y-60439301D01*
X75937533Y-60015967D01*
X75937533Y-62725301D02*
X75937533Y-61709301D01*
X75937533Y-62217301D02*
X74159533Y-62217301D01*
X74413533Y-62047967D01*
X74582867Y-61878634D01*
X74667533Y-61709301D01*
X85513333Y-57268531D02*
X84582000Y-57268531D01*
X84412667Y-57183865D01*
X84328000Y-57014531D01*
X84328000Y-56675865D01*
X84412667Y-56506531D01*
X85428667Y-57268531D02*
X85513333Y-57099198D01*
X85513333Y-56675865D01*
X85428667Y-56506531D01*
X85259333Y-56421865D01*
X85090000Y-56421865D01*
X84920667Y-56506531D01*
X84836000Y-56675865D01*
X84836000Y-57099198D01*
X84751333Y-57268531D01*
X85513333Y-58115198D02*
X84328000Y-58115198D01*
X84666667Y-58115198D02*
X84497333Y-58199865D01*
X84412667Y-58284532D01*
X84328000Y-58453865D01*
X84328000Y-58623198D01*
X85513333Y-59977865D02*
X83735333Y-59977865D01*
X85428667Y-59977865D02*
X85513333Y-59808532D01*
X85513333Y-59469865D01*
X85428667Y-59300532D01*
X85344000Y-59215865D01*
X85174667Y-59131199D01*
X84666667Y-59131199D01*
X84497333Y-59215865D01*
X84412667Y-59300532D01*
X84328000Y-59469865D01*
X84328000Y-59808532D01*
X84412667Y-59977865D01*
X84328000Y-61586532D02*
X85513333Y-61586532D01*
X84328000Y-60824532D02*
X85259333Y-60824532D01*
X85428667Y-60909199D01*
X85513333Y-61078532D01*
X85513333Y-61332532D01*
X85428667Y-61501866D01*
X85344000Y-61586532D01*
X85513333Y-62433199D02*
X84328000Y-62433199D01*
X83735333Y-62433199D02*
X83820000Y-62348533D01*
X83904667Y-62433199D01*
X83820000Y-62517866D01*
X83735333Y-62433199D01*
X83904667Y-62433199D01*
X84328000Y-63279866D02*
X85513333Y-63279866D01*
X84497333Y-63279866D02*
X84412667Y-63364533D01*
X84328000Y-63533866D01*
X84328000Y-63787866D01*
X84412667Y-63957200D01*
X84582000Y-64041866D01*
X85513333Y-64041866D01*
X85513333Y-65142533D02*
X85428667Y-64973200D01*
X85344000Y-64888533D01*
X85174667Y-64803867D01*
X84666667Y-64803867D01*
X84497333Y-64888533D01*
X84412667Y-64973200D01*
X84328000Y-65142533D01*
X84328000Y-65396533D01*
X84412667Y-65565867D01*
X84497333Y-65650533D01*
X84666667Y-65735200D01*
X85174667Y-65735200D01*
X85344000Y-65650533D01*
X85428667Y-65565867D01*
X85513333Y-65396533D01*
X85513333Y-65142533D01*
X85682667Y-66073867D02*
X85682667Y-67428534D01*
X85513333Y-67851867D02*
X84328000Y-67851867D01*
X84497333Y-67851867D02*
X84412667Y-67936534D01*
X84328000Y-68105867D01*
X84328000Y-68359867D01*
X84412667Y-68529201D01*
X84582000Y-68613867D01*
X85513333Y-68613867D01*
X84582000Y-68613867D02*
X84412667Y-68698534D01*
X84328000Y-68867867D01*
X84328000Y-69121867D01*
X84412667Y-69291201D01*
X84582000Y-69375867D01*
X85513333Y-69375867D01*
X85513333Y-70222534D02*
X84328000Y-70222534D01*
X83735333Y-70222534D02*
X83820000Y-70137868D01*
X83904667Y-70222534D01*
X83820000Y-70307201D01*
X83735333Y-70222534D01*
X83904667Y-70222534D01*
X84328000Y-71069201D02*
X85513333Y-71069201D01*
X84497333Y-71069201D02*
X84412667Y-71153868D01*
X84328000Y-71323201D01*
X84328000Y-71577201D01*
X84412667Y-71746535D01*
X84582000Y-71831201D01*
X85513333Y-71831201D01*
X85513333Y-72677868D02*
X84328000Y-72677868D01*
X83735333Y-72677868D02*
X83820000Y-72593202D01*
X83904667Y-72677868D01*
X83820000Y-72762535D01*
X83735333Y-72677868D01*
X83904667Y-72677868D01*
X110557733Y-57873901D02*
X110557733Y-58720567D01*
X111065733Y-57704567D02*
X109287733Y-58297234D01*
X111065733Y-58889901D01*
X111065733Y-60498567D02*
X110219067Y-59905901D01*
X111065733Y-59482567D02*
X109287733Y-59482567D01*
X109287733Y-60159901D01*
X109372400Y-60329234D01*
X109457067Y-60413901D01*
X109626400Y-60498567D01*
X109880400Y-60498567D01*
X110049733Y-60413901D01*
X110134400Y-60329234D01*
X110219067Y-60159901D01*
X110219067Y-59482567D01*
X111065733Y-61260567D02*
X109287733Y-61260567D01*
X109287733Y-61683901D01*
X109372400Y-61937901D01*
X109541733Y-62107234D01*
X109711067Y-62191901D01*
X110049733Y-62276567D01*
X110303733Y-62276567D01*
X110642400Y-62191901D01*
X110811733Y-62107234D01*
X110981067Y-61937901D01*
X111065733Y-61683901D01*
X111065733Y-61260567D01*
X109457067Y-62953901D02*
X109372400Y-63038567D01*
X109287733Y-63207901D01*
X109287733Y-63631234D01*
X109372400Y-63800567D01*
X109457067Y-63885234D01*
X109626400Y-63969901D01*
X109795733Y-63969901D01*
X110049733Y-63885234D01*
X111065733Y-62869234D01*
X111065733Y-63969901D01*
X120476433Y-58627431D02*
X119545100Y-58627431D01*
X119375767Y-58542765D01*
X119291100Y-58373431D01*
X119291100Y-58034765D01*
X119375767Y-57865431D01*
X120391767Y-58627431D02*
X120476433Y-58458098D01*
X120476433Y-58034765D01*
X120391767Y-57865431D01*
X120222433Y-57780765D01*
X120053100Y-57780765D01*
X119883767Y-57865431D01*
X119799100Y-58034765D01*
X119799100Y-58458098D01*
X119714433Y-58627431D01*
X120476433Y-59474098D02*
X119291100Y-59474098D01*
X119629767Y-59474098D02*
X119460433Y-59558765D01*
X119375767Y-59643432D01*
X119291100Y-59812765D01*
X119291100Y-59982098D01*
X120476433Y-61336765D02*
X118698433Y-61336765D01*
X120391767Y-61336765D02*
X120476433Y-61167432D01*
X120476433Y-60828765D01*
X120391767Y-60659432D01*
X120307100Y-60574765D01*
X120137767Y-60490099D01*
X119629767Y-60490099D01*
X119460433Y-60574765D01*
X119375767Y-60659432D01*
X119291100Y-60828765D01*
X119291100Y-61167432D01*
X119375767Y-61336765D01*
X119291100Y-62945432D02*
X120476433Y-62945432D01*
X119291100Y-62183432D02*
X120222433Y-62183432D01*
X120391767Y-62268099D01*
X120476433Y-62437432D01*
X120476433Y-62691432D01*
X120391767Y-62860766D01*
X120307100Y-62945432D01*
X120476433Y-63792099D02*
X119291100Y-63792099D01*
X118698433Y-63792099D02*
X118783100Y-63707433D01*
X118867767Y-63792099D01*
X118783100Y-63876766D01*
X118698433Y-63792099D01*
X118867767Y-63792099D01*
X119291100Y-64638766D02*
X120476433Y-64638766D01*
X119460433Y-64638766D02*
X119375767Y-64723433D01*
X119291100Y-64892766D01*
X119291100Y-65146766D01*
X119375767Y-65316100D01*
X119545100Y-65400766D01*
X120476433Y-65400766D01*
X120476433Y-66501433D02*
X120391767Y-66332100D01*
X120307100Y-66247433D01*
X120137767Y-66162767D01*
X119629767Y-66162767D01*
X119460433Y-66247433D01*
X119375767Y-66332100D01*
X119291100Y-66501433D01*
X119291100Y-66755433D01*
X119375767Y-66924767D01*
X119460433Y-67009433D01*
X119629767Y-67094100D01*
X120137767Y-67094100D01*
X120307100Y-67009433D01*
X120391767Y-66924767D01*
X120476433Y-66755433D01*
X120476433Y-66501433D01*
X120645767Y-67432767D02*
X120645767Y-68787434D01*
X120476433Y-69210767D02*
X119291100Y-69210767D01*
X119460433Y-69210767D02*
X119375767Y-69295434D01*
X119291100Y-69464767D01*
X119291100Y-69718767D01*
X119375767Y-69888101D01*
X119545100Y-69972767D01*
X120476433Y-69972767D01*
X119545100Y-69972767D02*
X119375767Y-70057434D01*
X119291100Y-70226767D01*
X119291100Y-70480767D01*
X119375767Y-70650101D01*
X119545100Y-70734767D01*
X120476433Y-70734767D01*
X120476433Y-71581434D02*
X119291100Y-71581434D01*
X118698433Y-71581434D02*
X118783100Y-71496768D01*
X118867767Y-71581434D01*
X118783100Y-71666101D01*
X118698433Y-71581434D01*
X118867767Y-71581434D01*
X119291100Y-72428101D02*
X120476433Y-72428101D01*
X119460433Y-72428101D02*
X119375767Y-72512768D01*
X119291100Y-72682101D01*
X119291100Y-72936101D01*
X119375767Y-73105435D01*
X119545100Y-73190101D01*
X120476433Y-73190101D01*
X120476433Y-74036768D02*
X119291100Y-74036768D01*
X118698433Y-74036768D02*
X118783100Y-73952102D01*
X118867767Y-74036768D01*
X118783100Y-74121435D01*
X118698433Y-74036768D01*
X118867767Y-74036768D01*
D11*
X94897105Y-52884343D02*
X94944724Y-52931962D01*
X95087581Y-52979581D01*
X95182819Y-52979581D01*
X95325677Y-52931962D01*
X95420915Y-52836724D01*
X95468534Y-52741486D01*
X95516153Y-52551010D01*
X95516153Y-52408152D01*
X95468534Y-52217676D01*
X95420915Y-52122438D01*
X95325677Y-52027200D01*
X95182819Y-51979581D01*
X95087581Y-51979581D01*
X94944724Y-52027200D01*
X94897105Y-52074819D01*
X94706629Y-53074819D02*
X93944724Y-53074819D01*
X93801867Y-51979581D02*
X93182819Y-51979581D01*
X93516153Y-52360533D01*
X93373295Y-52360533D01*
X93278057Y-52408152D01*
X93230438Y-52455771D01*
X93182819Y-52551010D01*
X93182819Y-52789105D01*
X93230438Y-52884343D01*
X93278057Y-52931962D01*
X93373295Y-52979581D01*
X93659010Y-52979581D01*
X93754248Y-52931962D01*
X93801867Y-52884343D01*
X92897105Y-51979581D02*
X92563772Y-52979581D01*
X92230438Y-51979581D01*
X91563771Y-52455771D02*
X91420914Y-52503390D01*
X91373295Y-52551010D01*
X91325676Y-52646248D01*
X91325676Y-52789105D01*
X91373295Y-52884343D01*
X91420914Y-52931962D01*
X91516152Y-52979581D01*
X91897105Y-52979581D01*
X91897105Y-51979581D01*
X91563771Y-51979581D01*
X91468533Y-52027200D01*
X91420914Y-52074819D01*
X91373295Y-52170057D01*
X91373295Y-52265295D01*
X91420914Y-52360533D01*
X91468533Y-52408152D01*
X91563771Y-52455771D01*
X91897105Y-52455771D01*
X90897105Y-51979581D02*
X90897105Y-52789105D01*
X90849486Y-52884343D01*
X90801867Y-52931962D01*
X90706629Y-52979581D01*
X90516152Y-52979581D01*
X90420914Y-52931962D01*
X90373295Y-52884343D01*
X90325676Y-52789105D01*
X90325676Y-51979581D01*
X89373295Y-52979581D02*
X89849486Y-52979581D01*
X89849486Y-51979581D01*
X89039962Y-52979581D02*
X89039962Y-51979581D01*
X88468533Y-52979581D02*
X88897105Y-52408152D01*
X88468533Y-51979581D02*
X89039962Y-52551010D01*
X88278057Y-53074819D02*
X87516152Y-53074819D01*
X86754247Y-52979581D02*
X87325676Y-52979581D01*
X87039962Y-52979581D02*
X87039962Y-51979581D01*
X87135200Y-52122438D01*
X87230438Y-52217676D01*
X87325676Y-52265295D01*
X94922505Y-56440343D02*
X94970124Y-56487962D01*
X95112981Y-56535581D01*
X95208219Y-56535581D01*
X95351077Y-56487962D01*
X95446315Y-56392724D01*
X95493934Y-56297486D01*
X95541553Y-56107010D01*
X95541553Y-55964152D01*
X95493934Y-55773676D01*
X95446315Y-55678438D01*
X95351077Y-55583200D01*
X95208219Y-55535581D01*
X95112981Y-55535581D01*
X94970124Y-55583200D01*
X94922505Y-55630819D01*
X94732029Y-56630819D02*
X93970124Y-56630819D01*
X93827267Y-55535581D02*
X93208219Y-55535581D01*
X93541553Y-55916533D01*
X93398695Y-55916533D01*
X93303457Y-55964152D01*
X93255838Y-56011771D01*
X93208219Y-56107010D01*
X93208219Y-56345105D01*
X93255838Y-56440343D01*
X93303457Y-56487962D01*
X93398695Y-56535581D01*
X93684410Y-56535581D01*
X93779648Y-56487962D01*
X93827267Y-56440343D01*
X92922505Y-55535581D02*
X92589172Y-56535581D01*
X92255838Y-55535581D01*
X91589171Y-56011771D02*
X91446314Y-56059390D01*
X91398695Y-56107010D01*
X91351076Y-56202248D01*
X91351076Y-56345105D01*
X91398695Y-56440343D01*
X91446314Y-56487962D01*
X91541552Y-56535581D01*
X91922505Y-56535581D01*
X91922505Y-55535581D01*
X91589171Y-55535581D01*
X91493933Y-55583200D01*
X91446314Y-55630819D01*
X91398695Y-55726057D01*
X91398695Y-55821295D01*
X91446314Y-55916533D01*
X91493933Y-55964152D01*
X91589171Y-56011771D01*
X91922505Y-56011771D01*
X90922505Y-55535581D02*
X90922505Y-56345105D01*
X90874886Y-56440343D01*
X90827267Y-56487962D01*
X90732029Y-56535581D01*
X90541552Y-56535581D01*
X90446314Y-56487962D01*
X90398695Y-56440343D01*
X90351076Y-56345105D01*
X90351076Y-55535581D01*
X89398695Y-56535581D02*
X89874886Y-56535581D01*
X89874886Y-55535581D01*
X89065362Y-56535581D02*
X89065362Y-55535581D01*
X88493933Y-56535581D02*
X88922505Y-55964152D01*
X88493933Y-55535581D02*
X89065362Y-56107010D01*
X88303457Y-56630819D02*
X87541552Y-56630819D01*
X87351076Y-55630819D02*
X87303457Y-55583200D01*
X87208219Y-55535581D01*
X86970123Y-55535581D01*
X86874885Y-55583200D01*
X86827266Y-55630819D01*
X86779647Y-55726057D01*
X86779647Y-55821295D01*
X86827266Y-55964152D01*
X87398695Y-56535581D01*
X86779647Y-56535581D01*
X126950743Y-73796995D02*
X126998362Y-73749376D01*
X127045981Y-73606519D01*
X127045981Y-73511281D01*
X126998362Y-73368423D01*
X126903124Y-73273185D01*
X126807886Y-73225566D01*
X126617410Y-73177947D01*
X126474552Y-73177947D01*
X126284076Y-73225566D01*
X126188838Y-73273185D01*
X126093600Y-73368423D01*
X126045981Y-73511281D01*
X126045981Y-73606519D01*
X126093600Y-73749376D01*
X126141219Y-73796995D01*
X127141219Y-73987471D02*
X127141219Y-74749376D01*
X126045981Y-75463662D02*
X126045981Y-74987471D01*
X126522171Y-74939852D01*
X126474552Y-74987471D01*
X126426933Y-75082709D01*
X126426933Y-75320805D01*
X126474552Y-75416043D01*
X126522171Y-75463662D01*
X126617410Y-75511281D01*
X126855505Y-75511281D01*
X126950743Y-75463662D01*
X126998362Y-75416043D01*
X127045981Y-75320805D01*
X127045981Y-75082709D01*
X126998362Y-74987471D01*
X126950743Y-74939852D01*
X126045981Y-75796995D02*
X127045981Y-76130328D01*
X126045981Y-76463662D01*
X126522171Y-77130329D02*
X126569790Y-77273186D01*
X126617410Y-77320805D01*
X126712648Y-77368424D01*
X126855505Y-77368424D01*
X126950743Y-77320805D01*
X126998362Y-77273186D01*
X127045981Y-77177948D01*
X127045981Y-76796995D01*
X126045981Y-76796995D01*
X126045981Y-77130329D01*
X126093600Y-77225567D01*
X126141219Y-77273186D01*
X126236457Y-77320805D01*
X126331695Y-77320805D01*
X126426933Y-77273186D01*
X126474552Y-77225567D01*
X126522171Y-77130329D01*
X126522171Y-76796995D01*
X126045981Y-77796995D02*
X126855505Y-77796995D01*
X126950743Y-77844614D01*
X126998362Y-77892233D01*
X127045981Y-77987471D01*
X127045981Y-78177948D01*
X126998362Y-78273186D01*
X126950743Y-78320805D01*
X126855505Y-78368424D01*
X126045981Y-78368424D01*
X127045981Y-79320805D02*
X127045981Y-78844614D01*
X126045981Y-78844614D01*
X127045981Y-79654138D02*
X126045981Y-79654138D01*
X127045981Y-80225567D02*
X126474552Y-79796995D01*
X126045981Y-80225567D02*
X126617410Y-79654138D01*
X127141219Y-80416043D02*
X127141219Y-81177948D01*
X127045981Y-81939853D02*
X127045981Y-81368424D01*
X127045981Y-81654138D02*
X126045981Y-81654138D01*
X126188838Y-81558900D01*
X126284076Y-81463662D01*
X126331695Y-81368424D01*
M02*
