G04 #@! TF.FileFunction,Soldermask,Bot*
%FSLAX46Y46*%
G04 Gerber Fmt 4.6, Leading zero omitted, Abs format (unit mm)*
G04 Created by KiCad (PCBNEW 4.0.4-stable) date 11/06/16 00:01:30*
%MOMM*%
%LPD*%
G01*
G04 APERTURE LIST*
%ADD10C,0.100000*%
%ADD11C,4.464000*%
%ADD12R,2.400000X2.000000*%
%ADD13R,2.000000X2.400000*%
%ADD14C,1.700000*%
%ADD15R,1.700000X1.700000*%
%ADD16C,2.099260*%
%ADD17R,2.099260X2.099260*%
%ADD18O,2.432000X2.127200*%
%ADD19R,2.432000X2.127200*%
%ADD20O,2.127200X2.432000*%
%ADD21R,2.127200X2.432000*%
%ADD22R,1.900000X1.000000*%
%ADD23R,2.127200X2.127200*%
%ADD24O,2.127200X2.127200*%
%ADD25C,4.400000*%
%ADD26R,2.432000X2.432000*%
%ADD27O,2.432000X2.432000*%
%ADD28R,2.686000X1.974800*%
%ADD29O,2.686000X1.974800*%
G04 APERTURE END LIST*
D10*
D11*
X152095200Y-103047800D03*
X152069800Y-53086000D03*
X72059800Y-53086000D03*
X72059800Y-103047800D03*
D12*
X80943200Y-73939400D03*
X76943200Y-73939400D03*
D13*
X101574600Y-83965800D03*
X101574600Y-79965800D03*
D12*
X93389700Y-60998100D03*
X97389700Y-60998100D03*
D14*
X137555600Y-77343000D03*
D15*
X140055600Y-77343000D03*
D14*
X145709000Y-77571600D03*
D15*
X148209000Y-77571600D03*
D12*
X91814400Y-101219000D03*
X87814400Y-101219000D03*
D13*
X75692000Y-93910400D03*
X75692000Y-97910400D03*
D16*
X153621740Y-89560920D03*
D17*
X153621740Y-79400920D03*
D16*
X153743660Y-65912480D03*
D17*
X153743660Y-76072480D03*
D18*
X145106000Y-52017200D03*
X128706000Y-51917200D03*
X145106000Y-92017200D03*
D19*
X128706000Y-91977200D03*
D20*
X128835200Y-99311600D03*
X128835200Y-96711600D03*
X128835200Y-85711600D03*
X128835200Y-88311600D03*
X147335200Y-88311600D03*
D21*
X147295200Y-99311600D03*
D20*
X147335200Y-85711600D03*
D21*
X147295200Y-96711600D03*
D20*
X129179600Y-59039600D03*
X129179600Y-66639600D03*
X146779600Y-69139600D03*
D21*
X146739600Y-56539600D03*
D22*
X92016600Y-83972400D03*
X92016600Y-82702400D03*
X92016600Y-81432400D03*
X92016600Y-80162400D03*
X92016600Y-78892400D03*
X92016600Y-77622400D03*
X92016600Y-76352400D03*
X92016600Y-75082400D03*
X97416600Y-75082400D03*
X97416600Y-76352400D03*
X97416600Y-77622400D03*
X97416600Y-78892400D03*
X97416600Y-80162400D03*
X97416600Y-81432400D03*
X97416600Y-82702400D03*
X97416600Y-83972400D03*
X82608400Y-79273400D03*
X82608400Y-80543400D03*
X82608400Y-81813400D03*
X82608400Y-83083400D03*
X82608400Y-84353400D03*
X82608400Y-85623400D03*
X82608400Y-86893400D03*
X82608400Y-88163400D03*
X77208400Y-88163400D03*
X77208400Y-86893400D03*
X77208400Y-85623400D03*
X77208400Y-84353400D03*
X77208400Y-83083400D03*
X77208400Y-81813400D03*
X77208400Y-80543400D03*
X77208400Y-79273400D03*
D23*
X81076800Y-70891400D03*
D24*
X78536800Y-70891400D03*
X81076800Y-68351400D03*
X78536800Y-68351400D03*
X81076800Y-65811400D03*
X78536800Y-65811400D03*
X81076800Y-63271400D03*
X78536800Y-63271400D03*
X81076800Y-60731400D03*
X78536800Y-60731400D03*
X81076800Y-58191400D03*
X78536800Y-58191400D03*
X81076800Y-55651400D03*
X78536800Y-55651400D03*
X81076800Y-53111400D03*
X78536800Y-53111400D03*
X81076800Y-50571400D03*
X78536800Y-50571400D03*
D21*
X106451400Y-105029000D03*
D20*
X103911400Y-105029000D03*
X101371400Y-105029000D03*
D21*
X94576900Y-105105200D03*
D20*
X92036900Y-105105200D03*
X89496900Y-105105200D03*
D25*
X98415800Y-68985800D03*
D21*
X113715800Y-51485800D03*
D20*
X111175800Y-51485800D03*
X108635800Y-51485800D03*
X106095800Y-51485800D03*
X103555800Y-51485800D03*
X101015800Y-51485800D03*
D25*
X116415800Y-68985800D03*
D26*
X153797000Y-94234000D03*
D27*
X153797000Y-96774000D03*
D21*
X117449600Y-105003600D03*
D20*
X114909600Y-105003600D03*
X112369600Y-105003600D03*
D26*
X153720800Y-59842400D03*
D27*
X153720800Y-62382400D03*
D22*
X96995000Y-99237800D03*
X96995000Y-97967800D03*
X96995000Y-96697800D03*
X96995000Y-95427800D03*
X96995000Y-94157800D03*
X96995000Y-92887800D03*
X96995000Y-91617800D03*
X96995000Y-90347800D03*
X102395000Y-90347800D03*
X102395000Y-91617800D03*
X102395000Y-92887800D03*
X102395000Y-94157800D03*
X102395000Y-95427800D03*
X102395000Y-96697800D03*
X102395000Y-97967800D03*
X102395000Y-99237800D03*
D18*
X134591800Y-103405000D03*
X134591800Y-100865000D03*
D19*
X134591800Y-98325000D03*
D18*
X140491800Y-98325000D03*
X140491800Y-100865000D03*
X140491800Y-103405000D03*
D23*
X81051400Y-98882200D03*
D24*
X78511400Y-98882200D03*
X81051400Y-96342200D03*
X78511400Y-96342200D03*
X81051400Y-93802200D03*
X78511400Y-93802200D03*
X81051400Y-91262200D03*
X78511400Y-91262200D03*
D28*
X72136000Y-95250000D03*
D29*
X72136000Y-92710000D03*
X72136000Y-90170000D03*
X72136000Y-87630000D03*
X72136000Y-85090000D03*
X72136000Y-82550000D03*
X72136000Y-80010000D03*
X72136000Y-77470000D03*
X72136000Y-74930000D03*
X72136000Y-72390000D03*
X72136000Y-69850000D03*
X72136000Y-67310000D03*
X72136000Y-64770000D03*
X72136000Y-62230000D03*
X72136000Y-59690000D03*
X87376000Y-59690000D03*
X87376000Y-62230000D03*
X87376000Y-64770000D03*
X87376000Y-67310000D03*
X87376000Y-69850000D03*
X87376000Y-72390000D03*
X87376000Y-74930000D03*
X87376000Y-77470000D03*
X87376000Y-80010000D03*
X87376000Y-82550000D03*
X87376000Y-85090000D03*
X87376000Y-87630000D03*
X87376000Y-90170000D03*
X87376000Y-92710000D03*
X87376000Y-95250000D03*
D28*
X107162600Y-96393000D03*
D29*
X107162600Y-93853000D03*
X107162600Y-91313000D03*
X107162600Y-88773000D03*
X107162600Y-86233000D03*
X107162600Y-83693000D03*
X107162600Y-81153000D03*
X107162600Y-78613000D03*
X107162600Y-76073000D03*
X107162600Y-73533000D03*
X107162600Y-70993000D03*
X107162600Y-68453000D03*
X107162600Y-65913000D03*
X107162600Y-63373000D03*
X107162600Y-60833000D03*
X122402600Y-60833000D03*
X122402600Y-63373000D03*
X122402600Y-65913000D03*
X122402600Y-68453000D03*
X122402600Y-70993000D03*
X122402600Y-73533000D03*
X122402600Y-76073000D03*
X122402600Y-78613000D03*
X122402600Y-81153000D03*
X122402600Y-83693000D03*
X122402600Y-86233000D03*
X122402600Y-88773000D03*
X122402600Y-91313000D03*
X122402600Y-93853000D03*
X122402600Y-96393000D03*
D12*
X88678000Y-50673000D03*
X92678000Y-50673000D03*
X88716100Y-54254400D03*
X92716100Y-54254400D03*
D14*
X129402200Y-77343000D03*
D15*
X131902200Y-77343000D03*
M02*
