M48
METRIC,TZ
T1C0.400
T2C0.701
T3C0.800
T4C0.813
T5C1.016
T6C3.200
%
G90
G05
T1
X74092Y-83795
X74955Y-81407
X75324Y-98044
X75997Y-91135
X76416Y-58369
X76441Y-66523
X76530Y-52083
X77140Y-84303
X77153Y-86893
X78969Y-86385
X79121Y-84531
X81229Y-85750
X81432Y-75921
X83045Y-78791
X83236Y-65189
X83884Y-95034
X84023Y-87097
X84963Y-80201
X85166Y-99187
X88481Y-54254
X88678Y-50673
X89205Y-86335
X89243Y-96799
X90551Y-81026
X90615Y-91732
X90615Y-92951
X90894Y-85865
X91814Y-101219
X93390Y-60998
X94234Y-96926
X95225Y-94183
X95250Y-95352
X95301Y-92837
X95606Y-90068
X95733Y-93548
X97066Y-86144
X97130Y-85293
X97155Y-86995
X97269Y-73762
X97295Y-87795
X98679Y-82702
X98793Y-81623
X99136Y-86017
X100559Y-99263
X100851Y-98387
X101841Y-73698
X102032Y-62865
X102235Y-88018
X102242Y-100990
X102395Y-91618
X103861Y-79312
X104953Y-81496
X105474Y-94869
X105613Y-79858
X106242Y-100990
X111049Y-87960
X115837Y-80747
X116503Y-93269
X116605Y-87935
X117907Y-86309
X148742Y-94107
T2
X153622Y-79401
X153622Y-89561
X153744Y-65912
X153744Y-76072
T3
X129402Y-77343
X131902Y-77343
X137556Y-77343
X140056Y-77343
X145709Y-77572
X148209Y-77572
T4
X72136Y-59690
X72136Y-62230
X72136Y-64770
X72136Y-67310
X72136Y-69850
X72136Y-72390
X72136Y-74930
X72136Y-77470
X72136Y-80010
X72136Y-82550
X72136Y-85090
X72136Y-87630
X72136Y-90170
X72136Y-92710
X72136Y-95250
X87376Y-59690
X87376Y-62230
X87376Y-64770
X87376Y-67310
X87376Y-69850
X87376Y-72390
X87376Y-74930
X87376Y-77470
X87376Y-80010
X87376Y-82550
X87376Y-85090
X87376Y-87630
X87376Y-90170
X87376Y-92710
X87376Y-95250
X107163Y-60833
X107163Y-63373
X107163Y-65913
X107163Y-68453
X107163Y-70993
X107163Y-73533
X107163Y-76073
X107163Y-78613
X107163Y-81153
X107163Y-83693
X107163Y-86233
X107163Y-88773
X107163Y-91313
X107163Y-93853
X107163Y-96393
X122403Y-60833
X122403Y-63373
X122403Y-65913
X122403Y-68453
X122403Y-70993
X122403Y-73533
X122403Y-76073
X122403Y-78613
X122403Y-81153
X122403Y-83693
X122403Y-86233
X122403Y-88773
X122403Y-91313
X122403Y-93853
X122403Y-96393
T5
X78511Y-91262
X78511Y-93802
X78511Y-96342
X78511Y-98882
X78537Y-50571
X78537Y-53111
X78537Y-55651
X78537Y-58191
X78537Y-60731
X78537Y-63271
X78537Y-65811
X78537Y-68351
X78537Y-70891
X81051Y-91262
X81051Y-93802
X81051Y-96342
X81051Y-98882
X81077Y-50571
X81077Y-53111
X81077Y-55651
X81077Y-58191
X81077Y-60731
X81077Y-63271
X81077Y-65811
X81077Y-68351
X81077Y-70891
X89497Y-105105
X92037Y-105105
X94577Y-105105
X101016Y-51486
X101371Y-105029
X103556Y-51486
X103911Y-105029
X106096Y-51486
X106451Y-105029
X108636Y-51486
X111176Y-51486
X112370Y-105004
X113716Y-51486
X114910Y-105004
X117450Y-105004
X128706Y-51917
X128706Y-91977
X128835Y-85712
X128835Y-88312
X128835Y-96712
X128835Y-99312
X129180Y-59040
X129180Y-66640
X134592Y-98325
X134592Y-100865
X134592Y-103405
X140492Y-98325
X140492Y-100865
X140492Y-103405
X145106Y-52017
X145106Y-92017
X146740Y-56540
X146780Y-69140
X147295Y-96712
X147295Y-99312
X147335Y-85712
X147335Y-88312
X153721Y-59842
X153721Y-62382
X153797Y-94234
X153797Y-96774
T6
X72060Y-53086
X72060Y-103048
X152070Y-53086
X152095Y-103048
T0
M30
